GeezHandwritingArrowsRules.ufo
<glyph name="exclam" format="2">
  <advance width="819"/>
  <unicode hex="0021"/>
  <outline>
    <contour>
      <point x="262" y="358" type="line" smooth="yes"/>
      <point x="262" y="328"/>
      <point x="246" y="309"/>
      <point x="211" y="307" type="curve"/>
      <point x="176" y="309"/>
      <point x="160" y="328"/>
      <point x="160" y="358" type="curve" smooth="yes"/>
      <point x="160" y="1280" type="line" smooth="yes"/>
      <point x="160" y="1311"/>
      <point x="176" y="1329"/>
      <point x="211" y="1331" type="curve"/>
      <point x="246" y="1329"/>
      <point x="262" y="1311"/>
      <point x="262" y="1280" type="curve" smooth="yes"/>
    </contour>
    <contour>
      <point x="270" y="59" type="curve" smooth="yes"/>
      <point x="270" y="20"/>
      <point x="250" y="0"/>
      <point x="211" y="0" type="curve" smooth="yes"/>
      <point x="172" y="0"/>
      <point x="152" y="20" name=".hr01"/>
      <point x="152" y="59" type="curve" smooth="yes"/>
      <point x="152" y="98"/>
      <point x="172" y="119"/>
      <point x="211" y="119" type="curve" smooth="yes"/>
      <point x="250" y="119"/>
      <point x="270" y="98"/>
    </contour>
  </outline>
</glyph>
<glyph name="percent" format="2">
  <advance width="1126"/>
  <unicode hex="0025"/>
  <outline>
    <contour>
      <point x="565" y="1061" type="curve" smooth="yes"/>
      <point x="565" y="997"/>
      <point x="543" y="942"/>
      <point x="498" y="897" type="curve" smooth="yes"/>
      <point x="453" y="852"/>
      <point x="397" y="829"/>
      <point x="334" y="829" type="curve" smooth="yes"/>
      <point x="270" y="829"/>
      <point x="215" y="852"/>
      <point x="170" y="897" type="curve" smooth="yes"/>
      <point x="125" y="942"/>
      <point x="102" y="997"/>
      <point x="102" y="1061" type="curve" smooth="yes"/>
      <point x="102" y="1124"/>
      <point x="125" y="1180"/>
      <point x="170" y="1225" type="curve" smooth="yes"/>
      <point x="215" y="1270"/>
      <point x="270" y="1292"/>
      <point x="334" y="1292" type="curve" smooth="yes"/>
      <point x="397" y="1292"/>
      <point x="453" y="1270"/>
      <point x="498" y="1225" type="curve" smooth="yes"/>
      <point x="543" y="1180"/>
      <point x="565" y="1124"/>
    </contour>
    <contour>
      <point x="877" y="1270" type="curve" smooth="yes"/>
      <point x="877" y="1262"/>
      <point x="874" y="1253"/>
      <point x="870" y="1247" type="curve"/>
      <point x="309" y="29" type="line" smooth="yes"/>
      <point x="299.825" y="9.0795"/>
      <point x="287" y="-2"/>
      <point x="266" y="-2" type="curve" smooth="yes"/>
      <point x="231" y="-2"/>
      <point x="213" y="14"/>
      <point x="213" y="47" type="curve" smooth="yes"/>
      <point x="213" y="55"/>
      <point x="215" y="63"/>
      <point x="219" y="70" type="curve"/>
      <point x="780" y="1288" type="line" smooth="yes"/>
      <point x="789.175" y="1307.92"/>
      <point x="803" y="1319"/>
      <point x="823" y="1319" type="curve" smooth="yes"/>
      <point x="858" y="1319"/>
      <point x="877" y="1303"/>
    </contour>
    <contour>
      <point x="995" y="256" type="curve" smooth="yes"/>
      <point x="995" y="193"/>
      <point x="973" y="137"/>
      <point x="928" y="92" type="curve" smooth="yes"/>
      <point x="883" y="47"/>
      <point x="827" y="25"/>
      <point x="764" y="25" type="curve" smooth="yes"/>
      <point x="700" y="25" name=".hr01"/>
      <point x="647" y="47"/>
      <point x="602" y="92" type="curve" smooth="yes"/>
      <point x="557" y="137"/>
      <point x="535" y="193"/>
      <point x="535" y="256" type="curve" smooth="yes"/>
      <point x="535" y="319"/>
      <point x="557" y="375"/>
      <point x="602" y="420" type="curve" smooth="yes"/>
      <point x="647" y="465"/>
      <point x="700" y="487"/>
      <point x="764" y="487" type="curve" smooth="yes"/>
      <point x="827" y="487"/>
      <point x="883" y="465"/>
      <point x="928" y="420" type="curve" smooth="yes"/>
      <point x="973" y="375"/>
      <point x="995" y="319"/>
    </contour>
    <contour>
      <point x="463" y="1061" type="curve" smooth="yes"/>
      <point x="463" y="1133"/>
      <point x="406" y="1190"/>
      <point x="334" y="1190" type="curve" smooth="yes" name=".hr02"/>
      <point x="262" y="1190"/>
      <point x="205" y="1133"/>
      <point x="205" y="1061" type="curve" smooth="yes"/>
      <point x="205" y="989"/>
      <point x="262" y="932"/>
      <point x="334" y="932" type="curve" smooth="yes"/>
      <point x="406" y="932"/>
      <point x="463" y="989"/>
    </contour>
    <contour>
      <point x="893" y="256" type="curve" smooth="yes"/>
      <point x="893" y="328"/>
      <point x="836" y="385"/>
      <point x="764" y="385" type="curve" smooth="yes"/>
      <point x="692" y="385"/>
      <point x="635" y="328"/>
      <point x="635" y="256" type="curve" smooth="yes"/>
      <point x="635" y="184"/>
      <point x="692" y="127"/>
      <point x="764" y="127" type="curve" smooth="yes" name=".hr03"/>
      <point x="836" y="127"/>
      <point x="893" y="184"/>
    </contour>
  </outline>
</glyph>
<glyph name="parenright" format="2">
  <advance width="717"/>
  <unicode hex="0029"/>
  <outline>
    <contour>
      <point x="547" y="684" type="curve" smooth="yes"/>
      <point x="547" y="557"/>
      <point x="519.01" y="429.997"/>
      <point x="459" y="303" type="curve" smooth="yes"/>
      <point x="433.01" y="247.997"/>
      <point x="396.61" y="185.332"/>
      <point x="344" y="123" type="curve" smooth="yes"/>
      <point x="252" y="14" type="line" smooth="yes"/>
      <point x="242.833" y="3.13875"/>
      <point x="231" y="0"/>
      <point x="217" y="0" type="curve" smooth="yes"/>
      <point x="182" y="0"/>
      <point x="166" y="16"/>
      <point x="166" y="51" type="curve" smooth="yes"/>
      <point x="166" y="66"/>
      <point x="170.739" y="77.2188"/>
      <point x="180" y="88" type="curve" smooth="yes"/>
      <point x="237.742" y="155.222"/>
      <point x="273.137" y="199.9"/>
      <point x="287" y="219" type="curve" smooth="yes"/>
      <point x="318.137" y="261.9"/>
      <point x="344.708" y="303.143"/>
      <point x="365" y="344" type="curve" smooth="yes"/>
      <point x="418.709" y="452.144"/>
      <point x="444" y="565"/>
      <point x="444" y="684" type="curve" smooth="yes"/>
      <point x="444" y="803"/>
      <point x="418.137" y="915.07"/>
      <point x="365" y="1024" type="curve" smooth="yes"/>
      <point x="338.139" y="1079.07"/>
      <point x="276" y="1163"/>
      <point x="180" y="1280" type="curve"/>
      <point x="170" y="1290"/>
      <point x="166" y="1303"/>
      <point x="166" y="1317" type="curve" smooth="yes"/>
      <point x="166" y="1352"/>
      <point x="182" y="1368"/>
      <point x="217" y="1368" type="curve" smooth="yes"/>
      <point x="231" y="1368"/>
      <point x="242.833" y="1364.86"/>
      <point x="252" y="1354" type="curve" smooth="yes"/>
      <point x="344" y="1245" type="line" smooth="yes"/>
      <point x="396.61" y="1182.67"/>
      <point x="433.01" y="1120"/>
      <point x="459" y="1065" type="curve" smooth="yes"/>
      <point x="519.009" y="938.003"/>
      <point x="547" y="811"/>
    </contour>
  </outline>
</glyph>
<glyph name="plus" format="2">
  <advance width="1024"/>
  <unicode hex="002B"/>
  <outline>
    <contour>
      <point x="895" y="688" type="curve"/>
      <point x="893" y="653"/>
      <point x="874" y="637"/>
      <point x="844" y="637" type="curve" smooth="yes"/>
      <point x="563" y="637" type="line"/>
      <point x="563" y="356" type="line" smooth="yes"/>
      <point x="563" y="326"/>
      <point x="547" y="307"/>
      <point x="512" y="305" type="curve"/>
      <point x="477" y="307"/>
      <point x="461" y="326"/>
      <point x="461" y="356" type="curve" smooth="yes"/>
      <point x="461" y="637" type="line"/>
      <point x="180" y="637" type="line" smooth="yes"/>
      <point x="150" y="637"/>
      <point x="131" y="653"/>
      <point x="129" y="688" type="curve"/>
      <point x="131" y="723"/>
      <point x="150" y="739"/>
      <point x="180" y="739" type="curve" smooth="yes"/>
      <point x="461" y="739" type="line"/>
      <point x="461" y="1020" type="line" smooth="yes"/>
      <point x="461" y="1051"/>
      <point x="477" y="1069"/>
      <point x="512" y="1071" type="curve"/>
      <point x="547" y="1069"/>
      <point x="563" y="1051"/>
      <point x="563" y="1020" type="curve" smooth="yes"/>
      <point x="563" y="739" type="line"/>
      <point x="844" y="739" type="line" smooth="yes"/>
      <point x="874" y="739"/>
      <point x="893" y="723"/>
    </contour>
  </outline>
</glyph>
<glyph name="comma" format="2">
  <advance width="307"/>
  <unicode hex="002C"/>
  <outline>
    <contour>
      <point x="186" y="55" type="curve" smooth="yes"/>
      <point x="186" y="-2"/>
      <point x="135" y="-78"/>
      <point x="86" y="-94" type="curve"/>
      <point x="66" y="-84"/>
      <point x="55" y="-72"/>
      <point x="55" y="-55" type="curve"/>
      <point x="96" y="0" type="line"/>
      <point x="74" y="12"/>
      <point x="61" y="31"/>
      <point x="61" y="55" type="curve" smooth="yes"/>
      <point x="61" y="98"/>
      <point x="80" y="121"/>
      <point x="119" y="121" type="curve" smooth="yes"/>
      <point x="141" y="121"/>
      <point x="156" y="117"/>
      <point x="166" y="109" type="curve"/>
      <point x="180" y="94"/>
      <point x="186" y="78"/>
    </contour>
  </outline>
</glyph>
<glyph name="slash" format="2">
  <advance width="1024"/>
  <unicode hex="002F"/>
  <outline>
    <contour>
      <point x="846" y="1255" type="curve" smooth="yes"/>
      <point x="846" y="1247"/>
      <point x="843.789" y="1239.1"/>
      <point x="840" y="1231" type="curve" smooth="yes"/>
      <point x="276" y="25" type="line" smooth="yes"/>
      <point x="262.536" y="-3.7895"/>
      <point x="239.021" y="-12.9502"/>
      <point x="209" y="0" type="curve" smooth="yes"/>
      <point x="188.021" y="9.04975"/>
      <point x="178" y="27"/>
      <point x="178" y="45" type="curve" smooth="yes"/>
      <point x="178" y="51"/>
      <point x="179.828" y="59.0782"/>
      <point x="184" y="68" type="curve" smooth="yes"/>
      <point x="748" y="1274" type="line" smooth="yes"/>
      <point x="761.464" y="1302.79"/>
      <point x="784.822" y="1311.61"/>
      <point x="815" y="1298" type="curve" smooth="yes"/>
      <point x="835.828" y="1288.61"/>
      <point x="846" y="1274"/>
    </contour>
  </outline>
</glyph>
<glyph name="one" format="2">
  <advance width="1024"/>
  <unicode hex="0031"/>
  <outline>
    <contour>
      <point x="563" y="51" type="line" smooth="yes"/>
      <point x="563" y="20"/>
      <point x="547" y="2"/>
      <point x="512" y="0" type="curve"/>
      <point x="477" y="2"/>
      <point x="461" y="20"/>
      <point x="461" y="51" type="curve" smooth="yes"/>
      <point x="461" y="1284" type="line" smooth="yes"/>
      <point x="461" y="1315"/>
      <point x="477" y="1333"/>
      <point x="512" y="1335" type="curve"/>
      <point x="547" y="1333"/>
      <point x="563" y="1315"/>
      <point x="563" y="1284" type="curve" smooth="yes"/>
    </contour>
  </outline>
</glyph>
<glyph name="six" format="2">
  <advance width="1024"/>
  <unicode hex="0036"/>
  <outline>
    <contour>
      <point x="924" y="412" type="curve" smooth="yes"/>
      <point x="924" y="294.996"/>
      <point x="885" y="199"/>
      <point x="805" y="119" type="curve" smooth="yes"/>
      <point x="725" y="39"/>
      <point x="629" y="0"/>
      <point x="512" y="0" type="curve" smooth="yes"/>
      <point x="395" y="0"/>
      <point x="298.245" y="38.2407"/>
      <point x="219" y="119" type="curve" smooth="yes"/>
      <point x="141.245" y="198.241"/>
      <point x="102" y="295"/>
      <point x="102" y="412" type="curve" smooth="yes"/>
      <point x="102" y="561"/>
      <point x="156.193" y="728.9"/>
      <point x="260" y="915" type="curve" smooth="yes"/>
      <point x="349.188" y="1074.89"/>
      <point x="457" y="1219"/>
      <point x="584" y="1343" type="curve"/>
      <point x="590" y="1350"/>
      <point x="596" y="1352"/>
      <point x="606" y="1352" type="curve" smooth="yes"/>
      <point x="633" y="1352"/>
      <point x="670" y="1321"/>
      <point x="670" y="1294" type="curve" smooth="yes"/>
      <point x="670" y="1288"/>
      <point x="667.322" y="1281.74"/>
      <point x="664" y="1278" type="curve" smooth="yes"/>
      <point x="467.317" y="1056.73"/>
      <point x="350" y="887"/>
      <point x="311" y="768" type="curve"/>
      <point x="373" y="803"/>
      <point x="439.997" y="821"/>
      <point x="512" y="821" type="curve" smooth="yes"/>
      <point x="629.005" y="821"/>
      <point x="723.996" y="781.992"/>
      <point x="805" y="702" type="curve" smooth="yes"/>
      <point x="883.992" y="623.995"/>
      <point x="924" y="528.004"/>
    </contour>
    <contour>
      <point x="821" y="412" type="curve" smooth="yes"/>
      <point x="821" y="496"/>
      <point x="790.005" y="569.004"/>
      <point x="729" y="629" type="curve" smooth="yes"/>
      <point x="669.002" y="688.006"/>
      <point x="596" y="719"/>
      <point x="512" y="719" type="curve" smooth="yes"/>
      <point x="428" y="719"/>
      <point x="353.749" y="688.247"/>
      <point x="295" y="629" type="curve" smooth="yes"/>
      <point x="235.75" y="569.247"/>
      <point x="205" y="496"/>
      <point x="205" y="412" type="curve" smooth="yes"/>
      <point x="205" y="326"/>
      <point x="233" y="253"/>
      <point x="293" y="193" type="curve" smooth="yes"/>
      <point x="353" y="133"/>
      <point x="426" y="102"/>
      <point x="512" y="102" type="curve" smooth="yes"/>
      <point x="598" y="102"/>
      <point x="671" y="133"/>
      <point x="731" y="193" type="curve" smooth="yes"/>
      <point x="791" y="253"/>
      <point x="821" y="326"/>
    </contour>
  </outline>
</glyph>
<glyph name="question" format="2">
  <advance width="1024"/>
  <unicode hex="003F"/>
  <outline>
    <contour>
      <point x="602" y="1104" type="curve" smooth="yes"/>
      <point x="602" y="1049"/>
      <point x="578.564" y="973.202"/>
      <point x="532" y="874" type="curve" smooth="yes"/>
      <point x="486.564" y="777.202"/>
      <point x="465" y="698.001"/>
      <point x="465" y="643" type="curve" smooth="yes"/>
      <point x="465" y="348" type="line" smooth="yes"/>
      <point x="465" y="317"/>
      <point x="449" y="299"/>
      <point x="414" y="297" type="curve"/>
      <point x="379" y="299"/>
      <point x="362" y="317"/>
      <point x="362" y="348" type="curve" smooth="yes"/>
      <point x="362" y="655" type="line" smooth="yes"/>
      <point x="362" y="741.002"/>
      <point x="393.041" y="835.978"/>
      <point x="457" y="936" type="curve" smooth="yes"/>
      <point x="487.038" y="982.974"/>
      <point x="502" y="1040"/>
      <point x="502" y="1104" type="curve" smooth="yes"/>
      <point x="502" y="1171"/>
      <point x="442" y="1229"/>
      <point x="375" y="1229" type="curve" smooth="yes"/>
      <point x="340" y="1229"/>
      <point x="309.01" y="1216.99"/>
      <point x="285" y="1194" type="curve" smooth="yes"/>
      <point x="262.011" y="1171.99"/>
      <point x="249" y="1143"/>
      <point x="248" y="1108" type="curve" smooth="yes"/>
      <point x="247" y="1073"/>
      <point x="231" y="1057"/>
      <point x="197" y="1057" type="curve" smooth="yes"/>
      <point x="174" y="1057"/>
      <point x="146.067" y="1081"/>
      <point x="147" y="1104" type="curve" smooth="yes"/>
      <point x="152.067" y="1228.99"/>
      <point x="250" y="1331"/>
      <point x="375" y="1331" type="curve" smooth="yes"/>
      <point x="506" y="1331"/>
      <point x="602" y="1235"/>
    </contour>
    <contour>
      <point x="475" y="59" type="curve" smooth="yes"/>
      <point x="475" y="20" name=".hr01"/>
      <point x="455" y="0"/>
      <point x="416" y="0" type="curve" smooth="yes"/>
      <point x="377" y="0"/>
      <point x="356" y="20"/>
      <point x="356" y="59" type="curve" smooth="yes"/>
      <point x="356" y="98"/>
      <point x="377" y="119"/>
      <point x="416" y="119" type="curve" smooth="yes"/>
      <point x="455" y="119"/>
      <point x="475" y="98"/>
    </contour>
  </outline>
</glyph>
<glyph name="A" format="2">
  <advance width="1536"/>
  <unicode hex="0041"/>
  <outline>
    <contour>
      <point x="1436" y="74" type="line" smooth="yes"/>
      <point x="1451.78" y="42.8902"/>
      <point x="1443.1" y="20.802"/>
      <point x="1413" y="6" type="curve" smooth="yes"/>
      <point x="1382.1" y="-9.1985"/>
      <point x="1361.89" y="-2.0555"/>
      <point x="1346" y="29" type="curve" smooth="yes"/>
      <point x="1061" y="586" type="line"/>
      <point x="475" y="586" type="line"/>
      <point x="190" y="31" type="line" smooth="yes"/>
      <point x="174.678" y="1.16275" name=".hr01"/>
      <point x="153.811" y="-6.41175"/>
      <point x="123" y="8" type="curve" smooth="yes"/>
      <point x="91.8045" y="22.5913"/>
      <point x="84.804" y="48.0985"/>
      <point x="100" y="78" type="curve" smooth="yes"/>
      <point x="719" y="1296" type="line" smooth="yes"/>
      <point x="730.144" y="1317.93"/>
      <point x="745" y="1331"/>
      <point x="766" y="1331" type="curve" smooth="yes"/>
      <point x="788" y="1331"/>
      <point x="805.239" y="1317.12"/>
      <point x="819" y="1290" type="curve" smooth="yes"/>
    </contour>
    <contour>
      <point x="1008" y="688" type="line"/>
      <point x="768" y="1167" type="line"/>
      <point x="526" y="688" type="line"/>
    </contour>
  </outline>
</glyph>
<glyph name="D" format="2">
  <advance width="1229"/>
  <unicode hex="0044"/>
  <outline>
    <contour>
      <point x="1178" y="684" type="curve" smooth="yes"/>
      <point x="1178" y="518"/>
      <point x="1116" y="362"/>
      <point x="995" y="217" type="curve" smooth="yes"/>
      <point x="874" y="72"/>
      <point x="752.006" y="0"/>
      <point x="625" y="0" type="curve" smooth="yes"/>
      <point x="154" y="0" type="line" smooth="yes"/>
      <point x="118.998" y="0"/>
      <point x="102" y="16"/>
      <point x="102" y="51" type="curve" smooth="yes"/>
      <point x="102" y="1280" type="line" smooth="yes"/>
      <point x="102" y="1315"/>
      <point x="118.998" y="1331"/>
      <point x="154" y="1331" type="curve" smooth="yes"/>
      <point x="625" y="1331" type="line" smooth="yes"/>
      <point x="756.007" y="1331"/>
      <point x="879.596" y="1268.63"/>
      <point x="995" y="1143" type="curve" smooth="yes"/>
      <point x="1116.6" y="1010.62"/>
      <point x="1178" y="856"/>
    </contour>
    <contour>
      <point x="1075" y="684" type="curve" smooth="yes"/>
      <point x="1075" y="827"/>
      <point x="1025.27" y="953.249"/>
      <point x="926" y="1063" type="curve" smooth="yes"/>
      <point x="826.275" y="1173.25"/>
      <point x="719.002" y="1229"/>
      <point x="602" y="1229" type="curve" smooth="yes"/>
      <point x="205" y="1229" type="line"/>
      <point x="205" y="102" type="line"/>
      <point x="602" y="102" type="line" smooth="yes"/>
      <point x="715.002" y="102"/>
      <point x="823.309" y="165.754"/>
      <point x="924" y="295" type="curve" smooth="yes"/>
      <point x="1024.31" y="423.76"/>
      <point x="1075" y="553"/>
    </contour>
  </outline>
</glyph>
<glyph name="G" format="2">
  <advance width="1536"/>
  <unicode hex="0047"/>
  <outline>
    <contour>
      <point x="1466" y="688" type="line"/>
      <point x="1466" y="498"/>
      <point x="1401" y="334"/>
      <point x="1268" y="201" type="curve" smooth="yes"/>
      <point x="1135" y="68"/>
      <point x="974.996" y="0"/>
      <point x="784" y="0" type="curve" smooth="yes"/>
      <point x="593.996" y="0"/>
      <point x="432.699" y="59.6707"/>
      <point x="303" y="180" type="curve" smooth="yes"/>
      <point x="169.694" y="303.676"/>
      <point x="102" y="458.996"/>
      <point x="102" y="649" type="curve" smooth="yes"/>
      <point x="102" y="839.996"/>
      <point x="167.745" y="1001.25"/>
      <point x="299" y="1133" type="curve" smooth="yes"/>
      <point x="431.751" y="1266.25"/>
      <point x="593.993" y="1331"/>
      <point x="784" y="1331" type="curve" smooth="yes"/>
      <point x="1008.01" y="1331"/>
      <point x="1184" y="1247"/>
      <point x="1311" y="1077" type="curve"/>
      <point x="1321" y="1067"/>
      <point x="1327" y="1057"/>
      <point x="1327" y="1042" type="curve" smooth="yes"/>
      <point x="1327" y="1008"/>
      <point x="1311" y="991"/>
      <point x="1276" y="991" type="curve" smooth="yes"/>
      <point x="1262" y="991"/>
      <point x="1248.33" y="994.251"/>
      <point x="1239" y="1006" type="curve" smooth="yes"/>
      <point x="1121.32" y="1154.26"/>
      <point x="970.992" y="1229"/>
      <point x="784" y="1229" type="curve" smooth="yes"/>
      <point x="623" y="1229"/>
      <point x="485.251" y="1173.75"/>
      <point x="373" y="1061" type="curve" smooth="yes"/>
      <point x="260.252" y="947.751"/>
      <point x="205" y="811"/>
      <point x="205" y="649" type="curve" smooth="yes"/>
      <point x="205" y="487"/>
      <point x="260.219" y="356.25"/>
      <point x="373" y="256" type="curve" smooth="yes"/>
      <point x="485.225" y="156.245"/>
      <point x="622.996" y="104"/>
      <point x="784" y="104" type="curve" smooth="yes"/>
      <point x="928.004" y="104"/>
      <point x="1052.79" y="149.244"/>
      <point x="1159" y="240" type="curve" smooth="yes"/>
      <point x="1265.79" y="331.249"/>
      <point x="1331" y="446"/>
      <point x="1356" y="586" type="curve"/>
      <point x="801" y="586" type="line" smooth="yes"/>
      <point x="765.999" y="586"/>
      <point x="750" y="602"/>
      <point x="750" y="637" type="curve" smooth="yes"/>
      <point x="750" y="672"/>
      <point x="766" y="688"/>
      <point x="801" y="688" type="curve" smooth="yes"/>
    </contour>
  </outline>
</glyph>
<glyph name="Z" format="2">
  <advance width="1229"/>
  <unicode hex="005A"/>
  <outline>
    <contour>
      <point x="1079" y="51" type="curve"/>
      <point x="1077" y="16"/>
      <point x="1059" y="0"/>
      <point x="1028" y="0" type="curve" smooth="yes"/>
      <point x="106" y="0" type="line" smooth="yes"/>
      <point x="88" y="0"/>
      <point x="80" y="10"/>
      <point x="80" y="33" type="curve" smooth="yes"/>
      <point x="80" y="47"/>
      <point x="90.974" y="69.0155"/>
      <point x="111" y="100" type="curve" smooth="yes"/>
      <point x="842" y="1231" type="line"/>
      <point x="154" y="1231" type="line" smooth="yes"/>
      <point x="123" y="1231"/>
      <point x="104" y="1247"/>
      <point x="102" y="1282" type="curve"/>
      <point x="104" y="1315"/>
      <point x="122.999" y="1331"/>
      <point x="154" y="1331" type="curve" smooth="yes"/>
      <point x="918" y="1331" type="line" smooth="yes"/>
      <point x="963.002" y="1331"/>
      <point x="985" y="1313"/>
      <point x="985" y="1278" type="curve" smooth="yes"/>
      <point x="985" y="1270"/>
      <point x="981.334" y="1258.79"/>
      <point x="975" y="1249" type="curve" smooth="yes"/>
      <point x="233" y="102" type="line"/>
      <point x="1028" y="102" type="line" smooth="yes"/>
      <point x="1059" y="102"/>
      <point x="1077" y="86"/>
    </contour>
  </outline>
</glyph>
<glyph name="backslash" format="2">
  <advance width="717"/>
  <unicode hex="005C"/>
  <outline>
    <contour>
      <point x="524" y="39" type="curve" smooth="yes"/>
      <point x="517.928" y="20.0235"/>
      <point x="506" y="8"/>
      <point x="483" y="2" type="curve"/>
      <point x="451" y="-2"/>
      <point x="430.39" y="12.078"/>
      <point x="424" y="43" type="curve" smooth="yes"/>
      <point x="170" y="1272" type="line" smooth="yes"/>
      <point x="167.936" y="1281.99"/>
      <point x="168" y="1290"/>
      <point x="170" y="1296" type="curve"/>
      <point x="174" y="1315"/>
      <point x="186" y="1325"/>
      <point x="209" y="1331" type="curve"/>
      <point x="244" y="1335"/>
      <point x="261.562" y="1320.91"/>
      <point x="268" y="1290" type="curve" smooth="yes"/>
      <point x="524" y="61" type="line" smooth="yes"/>
      <point x="526.079" y="51.0162"/>
      <point x="525.927" y="45.0237"/>
    </contour>
  </outline>
</glyph>
<glyph name="bracketright" format="2">
  <advance width="717"/>
  <unicode hex="005D"/>
  <outline>
    <contour>
      <point x="520" y="51" type="line" smooth="yes"/>
      <point x="520" y="16"/>
      <point x="504" y="0"/>
      <point x="469" y="0" type="curve" smooth="yes"/>
      <point x="221" y="0" type="line" smooth="yes"/>
      <point x="190" y="0"/>
      <point x="172" y="16"/>
      <point x="170" y="51" type="curve"/>
      <point x="172" y="86"/>
      <point x="189.999" y="102"/>
      <point x="221" y="102" type="curve" smooth="yes"/>
      <point x="416" y="102" type="line"/>
      <point x="416" y="1229" type="line"/>
      <point x="219" y="1229" type="line" smooth="yes"/>
      <point x="187.999" y="1229"/>
      <point x="170" y="1245"/>
      <point x="168" y="1280" type="curve"/>
      <point x="170" y="1315"/>
      <point x="188" y="1331"/>
      <point x="219" y="1331" type="curve" smooth="yes"/>
      <point x="469" y="1331" type="line" smooth="yes"/>
      <point x="504" y="1331"/>
      <point x="520" y="1311"/>
      <point x="520" y="1280" type="curve" smooth="yes"/>
    </contour>
  </outline>
</glyph>
<glyph name="grave" format="2">
  <advance width="10"/>
  <unicode hex="0060"/>
  <outline>
    <contour>
      <point x="61" y="1260" type="curve" smooth="yes"/>
      <point x="61" y="1249"/>
      <point x="58.736" y="1240.17"/>
      <point x="53" y="1231" type="curve" smooth="yes"/>
      <point x="-256" y="737" type="line" smooth="yes"/>
      <point x="-266.005" y="721.004"/>
      <point x="-281" y="713"/>
      <point x="-295" y="713" type="curve" smooth="yes"/>
      <point x="-305" y="713"/>
      <point x="-315" y="715"/>
      <point x="-326" y="721" type="curve"/>
      <point x="-342" y="733"/>
      <point x="-350" y="748"/>
      <point x="-350" y="764" type="curve" smooth="yes"/>
      <point x="-350" y="774"/>
      <point x="-347.468" y="782.276"/>
      <point x="-342" y="791" type="curve" smooth="yes"/>
      <point x="-33" y="1284" type="line" smooth="yes"/>
      <point x="-22.9795" y="1299.99"/>
      <point x="-8" y="1309"/>
      <point x="6" y="1309" type="curve" smooth="yes"/>
      <point x="43" y="1309"/>
      <point x="61" y="1292"/>
    </contour>
  </outline>
</glyph>
<glyph name="k" format="2">
  <advance width="819"/>
  <unicode hex="006B"/>
  <outline>
    <contour>
      <point x="670" y="20" type="curve" smooth="yes"/>
      <point x="652.348" y="-6.23875"/>
      <point x="625.659" y="-11.4948"/>
      <point x="598" y="8" type="curve" smooth="yes"/>
      <point x="205" y="285" type="line"/>
      <point x="205" y="51" type="line" smooth="yes"/>
      <point x="205" y="20"/>
      <point x="188" y="2"/>
      <point x="154" y="0" type="curve"/>
      <point x="119" y="2"/>
      <point x="102" y="20"/>
      <point x="102" y="51" type="curve" smooth="yes"/>
      <point x="102" y="1280" type="line" smooth="yes"/>
      <point x="102" y="1311"/>
      <point x="119" y="1329"/>
      <point x="154" y="1331" type="curve"/>
      <point x="188" y="1329"/>
      <point x="205" y="1311"/>
      <point x="205" y="1280" type="curve" smooth="yes"/>
      <point x="205" y="410" type="line"/>
      <point x="573" y="670" type="line" smooth="yes"/>
      <point x="601.102" y="689.854"/>
      <point x="626.887" y="683.924"/>
      <point x="645" y="657" type="curve" smooth="yes"/>
      <point x="663.887" y="628.924"/>
      <point x="658.907" y="604.135"/>
      <point x="633" y="586" type="curve" smooth="yes"/>
      <point x="293" y="348" type="line"/>
      <point x="657" y="92" type="line" smooth="yes"/>
      <point x="684.005" y="73.0075"/>
      <point x="689.351" y="48.766"/>
    </contour>
  </outline>
</glyph>
<glyph name="l" format="2">
  <advance width="307"/>
  <unicode hex="006C"/>
  <outline>
    <contour>
      <point x="205" y="51" type="line" smooth="yes"/>
      <point x="205" y="20"/>
      <point x="188" y="2"/>
      <point x="154" y="0" type="curve"/>
      <point x="119" y="2"/>
      <point x="102" y="20"/>
      <point x="102" y="51" type="curve" smooth="yes"/>
      <point x="102" y="1280" type="line" smooth="yes"/>
      <point x="102" y="1311"/>
      <point x="119" y="1329"/>
      <point x="154" y="1331" type="curve"/>
      <point x="188" y="1329"/>
      <point x="205" y="1311"/>
      <point x="205" y="1280" type="curve" smooth="yes"/>
    </contour>
  </outline>
</glyph>
<glyph name="r" format="2">
  <advance width="819"/>
  <unicode hex="0072"/>
  <outline>
    <contour>
      <point x="612" y="563" type="curve" smooth="yes"/>
      <point x="630.887" y="534.924"/>
      <point x="626.697" y="509.474"/>
      <point x="600" y="492" type="curve" smooth="yes"/>
      <point x="571.688" y="473.469"/>
      <point x="545.757" y="476.842"/>
      <point x="528" y="504" type="curve" smooth="yes"/>
      <point x="494.757" y="554.841"/>
      <point x="444" y="582"/>
      <point x="375" y="582" type="curve" smooth="yes"/>
      <point x="283" y="582"/>
      <point x="227" y="541"/>
      <point x="205" y="461" type="curve"/>
      <point x="205" y="51" type="line" smooth="yes"/>
      <point x="205" y="20"/>
      <point x="188" y="2"/>
      <point x="154" y="0" type="curve"/>
      <point x="119" y="2"/>
      <point x="102" y="20"/>
      <point x="102" y="51" type="curve" smooth="yes"/>
      <point x="102" y="633" type="line" smooth="yes"/>
      <point x="102" y="664"/>
      <point x="119.009" y="681.846"/>
      <point x="154" y="684" type="curve" smooth="yes"/>
      <point x="184.01" y="685.847"/>
      <point x="201" y="670"/>
      <point x="205" y="639" type="curve"/>
      <point x="205" y="631" type="line"/>
      <point x="240" y="666"/>
      <point x="297" y="684"/>
      <point x="375" y="684" type="curve" smooth="yes"/>
      <point x="434" y="684"/>
      <point x="487.277" y="668.427"/>
      <point x="535" y="637" type="curve" smooth="yes"/>
      <point x="569.283" y="614.423"/>
      <point x="593.887" y="589.924"/>
    </contour>
  </outline>
</glyph>
<glyph name="w" format="2">
  <advance width="1229"/>
  <unicode hex="0077"/>
  <outline>
    <contour>
      <point x="1155" y="610" type="curve" smooth="yes"/>
      <point x="903" y="14" type="line"/>
      <point x="893" y="4"/>
      <point x="883" y="0"/>
      <point x="868" y="0" type="curve" smooth="yes"/>
      <point x="854" y="0"/>
      <point x="842" y="4"/>
      <point x="831" y="14" type="curve"/>
      <point x="629" y="498" type="line"/>
      <point x="424" y="16" type="line"/>
      <point x="414" y="6"/>
      <point x="401" y="0"/>
      <point x="387" y="0" type="curve" smooth="yes"/>
      <point x="373" y="0"/>
      <point x="362" y="6"/>
      <point x="352" y="16" type="curve"/>
      <point x="102" y="610" type="line" smooth="yes"/>
      <point x="88.6012" y="641.836"/>
      <point x="97.8965" y="664.233"/>
      <point x="129" y="678" type="curve" smooth="yes"/>
      <point x="158.896" y="691.233"/>
      <point x="183.887" y="680.955"/>
      <point x="197" y="649" type="curve" smooth="yes"/>
      <point x="387" y="186" type="line"/>
      <point x="582" y="649" type="line" smooth="yes"/>
      <point x="590.869" y="670.058"/>
      <point x="606" y="680"/>
      <point x="629" y="680" type="curve" smooth="yes"/>
      <point x="651" y="680"/>
      <point x="667.326" y="670.139"/>
      <point x="676" y="649" type="curve" smooth="yes"/>
      <point x="866" y="186" type="line"/>
      <point x="1061" y="647" type="line" smooth="yes"/>
      <point x="1074.97" y="680.016"/>
      <point x="1097" y="689"/>
      <point x="1128" y="676" type="curve" smooth="yes"/>
      <point x="1159" y="663"/>
      <point x="1168.45" y="641.812"/>
    </contour>
  </outline>
</glyph>
<glyph name="y" format="2">
  <advance width="819"/>
  <unicode hex="0079"/>
  <outline>
    <contour>
      <point x="688" y="629" type="curve" smooth="yes"/>
      <point x="688" y="625"/>
      <point x="686.063" y="620.975"/>
      <point x="684" y="616" type="curve" smooth="yes"/>
      <point x="166" y="-633" type="line" smooth="yes"/>
      <point x="153.122" y="-664.052"/>
      <point x="129.103" y="-673.787"/>
      <point x="98" y="-659" type="curve" smooth="yes"/>
      <point x="68.1017" y="-644.786"/>
      <point x="58.9855" y="-622.994"/>
      <point x="72" y="-592" type="curve" smooth="yes"/>
      <point x="342" y="51" type="line"/>
      <point x="109" y="610" type="line" smooth="yes"/>
      <point x="96.9248" y="638.971"/>
      <point x="104" y="662"/>
      <point x="135" y="678" type="curve"/>
      <point x="168" y="688"/>
      <point x="191.084" y="678.037"/>
      <point x="203" y="649" type="curve" smooth="yes"/>
      <point x="393" y="186" type="line"/>
      <point x="588" y="649" type="line" smooth="yes"/>
      <point x="600.183" y="677.926"/>
      <point x="623" y="688"/>
      <point x="653" y="678" type="curve"/>
      <point x="676" y="668"/>
      <point x="688" y="651"/>
    </contour>
  </outline>
</glyph>
<glyph name="asciitilde" format="2">
  <advance width="10"/>
  <unicode hex="007E"/>
  <outline>
    <contour>
      <point x="-78" y="887" type="curve" smooth="yes"/>
      <point x="-78" y="872"/>
      <point x="-84" y="860"/>
      <point x="-94" y="848" type="curve"/>
      <point x="-188" y="791"/>
      <point x="-256" y="762"/>
      <point x="-295" y="762" type="curve" smooth="yes"/>
      <point x="-317" y="762"/>
      <point x="-355" y="777"/>
      <point x="-401" y="809" type="curve" smooth="yes"/>
      <point x="-424" y="825"/>
      <point x="-446" y="834" name=".hr01"/>
      <point x="-465" y="834" type="curve" smooth="yes"/>
      <point x="-500" y="834"/>
      <point x="-541" y="813"/>
      <point x="-592" y="772" type="curve"/>
      <point x="-602" y="762" name=".hr02"/>
      <point x="-614" y="758"/>
      <point x="-627" y="758" type="curve" smooth="yes"/>
      <point x="-662" y="758"/>
      <point x="-680" y="776"/>
      <point x="-680" y="811" type="curve" smooth="yes"/>
      <point x="-680" y="823"/>
      <point x="-674" y="836"/>
      <point x="-664" y="848" type="curve"/>
      <point x="-573" y="907"/>
      <point x="-508" y="936" name=".hr03"/>
      <point x="-465" y="936" type="curve" smooth="yes"/>
      <point x="-432" y="936"/>
      <point x="-397.922" y="923.118"/>
      <point x="-362" y="899" type="curve" smooth="yes"/>
      <point x="-327.92" y="876.118"/>
      <point x="-305" y="864" name=".hr04"/>
      <point x="-295" y="864" type="curve" smooth="yes"/>
      <point x="-270" y="864"/>
      <point x="-227" y="885"/>
      <point x="-164" y="924" type="curve"/>
      <point x="-154" y="934"/>
      <point x="-143" y="938"/>
      <point x="-129" y="938" type="curve" smooth="yes"/>
      <point x="-94" y="938"/>
      <point x="-78" y="922"/>
    </contour>
  </outline>
</glyph>
<glyph name="guillemotleft" format="2">
  <advance width="1229"/>
  <unicode hex="00AB"/>
  <outline>
    <contour>
      <point x="1014" y="260" type="curve"/>
      <point x="999" y="242"/>
      <point x="983" y="236"/>
      <point x="965" y="238" type="curve"/>
      <point x="958" y="240"/>
      <point x="950.112" y="242.152"/>
      <point x="942" y="248" type="curve" smooth="yes"/>
      <point x="641" y="465" type="line"/>
      <point x="616" y="487"/>
      <point x="604" y="504"/>
      <point x="604" y="518" type="curve" smooth="yes"/>
      <point x="604" y="530"/>
      <point x="615.092" y="548.871"/>
      <point x="643" y="569" type="curve" smooth="yes"/>
      <point x="930" y="776" type="line" smooth="yes"/>
      <point x="938.111" y="781.85"/>
      <point x="946" y="784"/>
      <point x="952" y="786" type="curve"/>
      <point x="971" y="788"/>
      <point x="987.771" y="782.841"/>
      <point x="1001" y="764" type="curve" smooth="yes"/>
      <point x="1020.77" y="735.84"/>
      <point x="1015.85" y="711.21"/>
      <point x="989" y="692" type="curve" smooth="yes"/>
      <point x="743" y="516" type="line"/>
      <point x="1001" y="330" type="line" smooth="yes"/>
      <point x="1027.78" y="310.693"/>
      <point x="1032" y="289"/>
    </contour>
    <contour>
      <point x="643" y="264" type="curve" smooth="yes"/>
      <point x="629.771" y="245.159"/>
      <point x="612" y="240"/>
      <point x="594" y="242" type="curve"/>
      <point x="588" y="244"/>
      <point x="579.978" y="246.97"/>
      <point x="573" y="252" type="curve" smooth="yes"/>
      <point x="272" y="469" type="line" smooth="yes"/>
      <point x="244.087" y="489.123"/>
      <point x="233" y="510"/>
      <point x="233" y="524" type="curve" smooth="yes"/>
      <point x="233" y="537"/>
      <point x="245.248" y="553.653"/>
      <point x="272" y="573" type="curve" smooth="yes"/>
      <point x="561" y="782" type="line"/>
      <point x="567" y="788"/>
      <point x="575" y="791"/>
      <point x="582" y="793" type="curve"/>
      <point x="600" y="795"/>
      <point x="616" y="788"/>
      <point x="631" y="770" type="curve"/>
      <point x="649" y="741"/>
      <point x="644.71" y="717.406"/>
      <point x="618" y="698" type="curve" smooth="yes"/>
      <point x="373" y="520" type="line"/>
      <point x="631" y="336" type="line" smooth="yes"/>
      <point x="657.218" y="317.302"/>
      <point x="662.772" y="292.16"/>
    </contour>
  </outline>
</glyph>
<glyph name="Ntilde" format="2">
  <advance width="1229"/>
  <unicode hex="00D1"/>
  <outline>
    <contour>
      <point x="926" y="1311" type="curve" smooth="yes"/>
      <point x="949" y="1288"/>
      <point x="948" y="1264"/>
      <point x="924" y="1239" type="curve"/>
      <point x="856" y="1192"/>
      <point x="791" y="1167"/>
      <point x="729" y="1167" type="curve" smooth="yes"/>
      <point x="713" y="1167"/>
      <point x="684" y="1176"/>
      <point x="645" y="1192" type="curve" smooth="yes"/>
      <point x="606" y="1208"/>
      <point x="571" y="1217" name=".hr01"/>
      <point x="541" y="1217" type="curve" smooth="yes"/>
      <point x="498" y="1217"/>
      <point x="457" y="1202"/>
      <point x="418" y="1174" type="curve"/>
      <point x="393" y="1151"/>
      <point x="369" y="1151"/>
      <point x="346" y="1174" type="curve" smooth="yes"/>
      <point x="324" y="1196"/>
      <point x="324" y="1221"/>
      <point x="346" y="1247" type="curve"/>
      <point x="416" y="1294"/>
      <point x="481" y="1319"/>
      <point x="541" y="1319" type="curve" smooth="yes"/>
      <point x="571" y="1319"/>
      <point x="605.845" y="1308.64"/>
      <point x="645" y="1292" type="curve" smooth="yes"/>
      <point x="685.848" y="1274.64"/>
      <point x="715" y="1268"/>
      <point x="729" y="1268" type="curve" smooth="yes"/>
      <point x="772" y="1268"/>
      <point x="813" y="1282"/>
      <point x="854" y="1311" type="curve"/>
      <point x="879" y="1333"/>
      <point x="903" y="1334"/>
    </contour>
    <contour>
      <point x="1047" y="51" type="line" smooth="yes"/>
      <point x="1047" y="16"/>
      <point x="1030" y="0"/>
      <point x="995" y="0" type="curve" smooth="yes"/>
      <point x="975" y="0"/>
      <point x="961" y="8"/>
      <point x="950" y="27" type="curve"/>
      <point x="285" y="887" type="line"/>
      <point x="285" y="51" type="line" smooth="yes"/>
      <point x="285" y="20"/>
      <point x="268" y="2"/>
      <point x="233" y="0" type="curve"/>
      <point x="199" y="2"/>
      <point x="182" y="20"/>
      <point x="182" y="51" type="curve" smooth="yes"/>
      <point x="182" y="1034" type="line" smooth="yes"/>
      <point x="182" y="1065"/>
      <point x="199" y="1083"/>
      <point x="233" y="1085" type="curve"/>
      <point x="244" y="1087"/>
      <point x="258" y="1081"/>
      <point x="274" y="1067" type="curve"/>
      <point x="944" y="199" type="line"/>
      <point x="944" y="1034" type="line" smooth="yes"/>
      <point x="944" y="1065"/>
      <point x="961" y="1083"/>
      <point x="995" y="1085" type="curve"/>
      <point x="1030" y="1083"/>
      <point x="1047" y="1065"/>
      <point x="1047" y="1034" type="curve" smooth="yes"/>
    </contour>
  </outline>
</glyph>
<glyph name="Odieresis" format="2">
  <advance width="1331"/>
  <unicode hex="00D6"/>
  <outline>
    <contour>
      <point x="879" y="1210" type="curve" smooth="yes"/>
      <point x="879" y="1169"/>
      <point x="858" y="1149"/>
      <point x="817" y="1149" type="curve" smooth="yes"/>
      <point x="774" y="1149"/>
      <point x="754" y="1169"/>
      <point x="754" y="1210" type="curve" smooth="yes"/>
      <point x="754" y="1253"/>
      <point x="774" y="1274"/>
      <point x="817" y="1274" type="curve" smooth="yes"/>
      <point x="858" y="1274"/>
      <point x="879" y="1253"/>
    </contour>
    <contour>
      <point x="561" y="1210" type="curve" smooth="yes"/>
      <point x="561" y="1169"/>
      <point x="541" y="1149"/>
      <point x="500" y="1149" type="curve" smooth="yes"/>
      <point x="457" y="1149"/>
      <point x="436" y="1169"/>
      <point x="436" y="1210" type="curve" smooth="yes"/>
      <point x="436" y="1253"/>
      <point x="457" y="1274"/>
      <point x="500" y="1274" type="curve" smooth="yes"/>
      <point x="541" y="1274"/>
      <point x="561" y="1253"/>
    </contour>
    <contour>
      <point x="1214" y="557" type="curve" smooth="yes"/>
      <point x="1214" y="401"/>
      <point x="1161" y="270.002"/>
      <point x="1053" y="162" type="curve" smooth="yes"/>
      <point x="943.997" y="52.9967"/>
      <point x="813.004" y="0"/>
      <point x="657" y="0" type="curve" smooth="yes"/>
      <point x="501.996" y="0"/>
      <point x="370" y="52.9943"/>
      <point x="262" y="162" type="curve" smooth="yes"/>
      <point x="154.996" y="270"/>
      <point x="102" y="401"/>
      <point x="102" y="557" type="curve" smooth="yes"/>
      <point x="102" y="713"/>
      <point x="154.996" y="844"/>
      <point x="262" y="952" type="curve" smooth="yes"/>
      <point x="370" y="1061.01"/>
      <point x="501.995" y="1114"/>
      <point x="657" y="1114" type="curve" smooth="yes"/>
      <point x="813.004" y="1114"/>
      <point x="943.997" y="1061"/>
      <point x="1053" y="952" type="curve" smooth="yes"/>
      <point x="1161" y="843.998"/>
      <point x="1214" y="713"/>
    </contour>
    <contour>
      <point x="1112" y="555" type="curve" smooth="yes"/>
      <point x="1112" y="682"/>
      <point x="1067.25" y="788.251"/>
      <point x="979" y="877" type="curve" smooth="yes"/>
      <point x="891.251" y="965.247"/>
      <point x="784" y="1010"/>
      <point x="657" y="1010" type="curve" smooth="yes"/>
      <point x="530" y="1010"/>
      <point x="423.749" y="965.248"/>
      <point x="336" y="877" type="curve" smooth="yes"/>
      <point x="247.752" y="788.251"/>
      <point x="205" y="682"/>
      <point x="205" y="555" type="curve" smooth="yes"/>
      <point x="205" y="428"/>
      <point x="247.752" y="321.749"/>
      <point x="336" y="233" type="curve" smooth="yes"/>
      <point x="423.749" y="144.753"/>
      <point x="530" y="102"/>
      <point x="657" y="102" type="curve" smooth="yes"/>
      <point x="784" y="102"/>
      <point x="891.251" y="144.752"/>
      <point x="979" y="233" type="curve" smooth="yes"/>
      <point x="1067.25" y="321.749"/>
      <point x="1112" y="428"/>
    </contour>
  </outline>
</glyph>
<glyph name="icircumflex" format="2">
  <advance width="614"/>
  <unicode hex="00EE"/>
  <outline>
    <contour>
      <point x="674" y="825" type="curve" smooth="yes"/>
      <point x="674" y="801"/>
      <point x="645" y="772"/>
      <point x="621" y="772" type="curve" smooth="yes"/>
      <point x="608" y="772"/>
      <point x="595.95" y="777.949"/>
      <point x="586" y="788" type="curve" smooth="yes"/>
      <point x="389" y="987" type="line"/>
      <point x="190" y="788" type="line" smooth="yes"/>
      <point x="180" y="778"/>
      <point x="168" y="772"/>
      <point x="156" y="772" type="curve" smooth="yes"/>
      <point x="131" y="772"/>
      <point x="102" y="801"/>
      <point x="102" y="825" type="curve" smooth="yes"/>
      <point x="102" y="838"/>
      <point x="109.022" y="849.979"/>
      <point x="119" y="860" type="curve" smooth="yes"/>
      <point x="352" y="1094" type="line" smooth="yes"/>
      <point x="361.979" y="1104.02"/>
      <point x="375" y="1110"/>
      <point x="387" y="1110" type="curve" smooth="yes"/>
      <point x="389" y="1110" type="line" smooth="yes"/>
      <point x="401" y="1110"/>
      <point x="414.021" y="1104.02"/>
      <point x="424" y="1094" type="curve" smooth="yes"/>
      <point x="657" y="860" type="line" smooth="yes"/>
      <point x="667.489" y="849.465"/>
      <point x="674" y="838"/>
    </contour>
    <contour>
      <point x="438" y="51" type="line" smooth="yes"/>
      <point x="438" y="20"/>
      <point x="422" y="2"/>
      <point x="387" y="0" type="curve"/>
      <point x="352" y="2"/>
      <point x="336" y="20"/>
      <point x="336" y="51" type="curve" smooth="yes"/>
      <point x="336" y="633" type="line" smooth="yes"/>
      <point x="336" y="664"/>
      <point x="352" y="682"/>
      <point x="387" y="684" type="curve"/>
      <point x="422" y="682"/>
      <point x="438" y="664"/>
      <point x="438" y="633" type="curve" smooth="yes"/>
    </contour>
  </outline>
</glyph>
<glyph name="uacute" format="2">
  <advance width="819"/>
  <unicode hex="00FA"/>
  <outline>
    <contour>
      <point x="567" y="1004" type="curve" smooth="yes"/>
      <point x="567" y="991"/>
      <point x="561" y="979"/>
      <point x="551" y="969" type="curve" smooth="yes"/>
      <point x="317" y="735" type="line" smooth="yes"/>
      <point x="307" y="725"/>
      <point x="295" y="719"/>
      <point x="283" y="719" type="curve" smooth="yes"/>
      <point x="258" y="719"/>
      <point x="229" y="748"/>
      <point x="229" y="772" type="curve" smooth="yes"/>
      <point x="229" y="784"/>
      <point x="236" y="797"/>
      <point x="246" y="807" type="curve" smooth="yes"/>
      <point x="479" y="1040" type="line" smooth="yes"/>
      <point x="490" y="1051"/>
      <point x="502" y="1057"/>
      <point x="514" y="1057" type="curve" smooth="yes"/>
      <point x="541" y="1057"/>
      <point x="567" y="1030"/>
    </contour>
    <contour>
      <point x="645" y="51" type="line" smooth="yes"/>
      <point x="645" y="16"/>
      <point x="629" y="0"/>
      <point x="594" y="0" type="curve" smooth="yes"/>
      <point x="559" y="0"/>
      <point x="543" y="16"/>
      <point x="543" y="51" type="curve" smooth="yes"/>
      <point x="543" y="53" type="line"/>
      <point x="506" y="18"/>
      <point x="449" y="0"/>
      <point x="373" y="0" type="curve" smooth="yes"/>
      <point x="209" y="0"/>
      <point x="102" y="89.9898"/>
      <point x="102" y="252" type="curve" smooth="yes"/>
      <point x="102" y="631" type="line" smooth="yes"/>
      <point x="102" y="662.002"/>
      <point x="119" y="680"/>
      <point x="154" y="682" type="curve"/>
      <point x="188" y="680"/>
      <point x="205" y="662"/>
      <point x="205" y="631" type="curve" smooth="yes"/>
      <point x="205" y="223" type="line"/>
      <point x="219" y="143"/>
      <point x="275.996" y="102"/>
      <point x="373" y="102" type="curve" smooth="yes"/>
      <point x="465.004" y="102"/>
      <point x="520" y="143"/>
      <point x="543" y="223" type="curve"/>
      <point x="543" y="633" type="line" smooth="yes"/>
      <point x="543" y="664"/>
      <point x="559" y="682"/>
      <point x="594" y="684" type="curve"/>
      <point x="629" y="682"/>
      <point x="645" y="664"/>
      <point x="645" y="633" type="curve" smooth="yes"/>
    </contour>
  </outline>
</glyph>
<glyph name="ucircumflex" format="2">
  <advance width="819"/>
  <unicode hex="00FB"/>
  <outline>
    <contour>
      <point x="674" y="825" type="curve" smooth="yes"/>
      <point x="674" y="801"/>
      <point x="645" y="772"/>
      <point x="621" y="772" type="curve" smooth="yes"/>
      <point x="608" y="772"/>
      <point x="595.95" y="777.949"/>
      <point x="586" y="788" type="curve" smooth="yes"/>
      <point x="389" y="987" type="line"/>
      <point x="190" y="788" type="line" smooth="yes"/>
      <point x="180" y="778"/>
      <point x="168" y="772"/>
      <point x="156" y="772" type="curve" smooth="yes"/>
      <point x="131" y="772"/>
      <point x="102" y="801"/>
      <point x="102" y="825" type="curve" smooth="yes"/>
      <point x="102" y="838"/>
      <point x="109.022" y="849.979"/>
      <point x="119" y="860" type="curve" smooth="yes"/>
      <point x="352" y="1094" type="line" smooth="yes"/>
      <point x="361.979" y="1104.02"/>
      <point x="375" y="1110"/>
      <point x="387" y="1110" type="curve" smooth="yes"/>
      <point x="389" y="1110" type="line" smooth="yes"/>
      <point x="401" y="1110"/>
      <point x="414.021" y="1104.02"/>
      <point x="424" y="1094" type="curve" smooth="yes"/>
      <point x="657" y="860" type="line" smooth="yes"/>
      <point x="667.489" y="849.465"/>
      <point x="674" y="838"/>
    </contour>
    <contour>
      <point x="659" y="51" type="line" smooth="yes"/>
      <point x="659" y="16"/>
      <point x="643" y="0"/>
      <point x="608" y="0" type="curve" smooth="yes"/>
      <point x="573" y="0"/>
      <point x="557" y="16"/>
      <point x="557" y="51" type="curve" smooth="yes"/>
      <point x="557" y="53" type="line"/>
      <point x="520" y="18"/>
      <point x="463" y="0"/>
      <point x="387" y="0" type="curve" smooth="yes"/>
      <point x="223" y="0"/>
      <point x="117" y="89.9898"/>
      <point x="117" y="252" type="curve" smooth="yes"/>
      <point x="117" y="631" type="line" smooth="yes"/>
      <point x="117" y="662.002"/>
      <point x="133" y="680"/>
      <point x="168" y="682" type="curve"/>
      <point x="203" y="680"/>
      <point x="219" y="662"/>
      <point x="219" y="631" type="curve" smooth="yes"/>
      <point x="219" y="223" type="line"/>
      <point x="233" y="143"/>
      <point x="291" y="102"/>
      <point x="387" y="102" type="curve" smooth="yes"/>
      <point x="479" y="102"/>
      <point x="535" y="143"/>
      <point x="557" y="223" type="curve"/>
      <point x="557" y="633" type="line" smooth="yes"/>
      <point x="557" y="664"/>
      <point x="573" y="682"/>
      <point x="608" y="684" type="curve"/>
      <point x="643" y="682"/>
      <point x="659" y="664"/>
      <point x="659" y="633" type="curve" smooth="yes"/>
    </contour>
  </outline>
</glyph>
<glyph name="uni1200" format="2">
  <advance width="900"/>
  <unicode hex="1200"/>
  <outline>
    <component base="bar"/>
    <contour>
      <point x="426" y="1017" type="line"/>
      <point x="405" y="1017" type="line"/>
      <point x="405" y="1118" type="line"/>
      <point x="398" y="1112"/>
      <point x="384" y="1105"/>
      <point x="376" y="1103" type="curve"/>
      <point x="376" y="1122" type="line"/>
      <point x="385" y="1126"/>
      <point x="401" y="1139"/>
      <point x="405" y="1143" type="curve"/>
      <point x="426" y="1143" type="line"/>
    </contour>
    <contour>
      <point x="669" y="1070" type="line"/>
      <point x="653.787" y="1061.19" type="line"/>
      <point x="708.445" y="904.213"/>
      <point x="634.924" y="609.088"/>
      <point x="577.029" y="471.939" type="curve" smooth="yes"/>
      <point x="477.605" y="236.41"/>
      <point x="352.346" y="132"/>
      <point x="310.962" y="132" type="curve" smooth="yes"/>
      <point x="217.074" y="132"/>
      <point x="163.566" y="195.042"/>
      <point x="182.765" y="297.305" type="curve"/>
      <point x="182.765" y="297.305"/>
      <point x="275.211" y="789.528"/>
      <point x="327.237" y="1066.84" type="curve"/>
      <point x="356.722" y="1061.31" type="line"/>
      <point x="304.696" y="783.994"/>
      <point x="212.249" y="291.768"/>
      <point x="212.249" y="291.768" type="curve"/>
      <point x="196.276" y="206.687"/>
      <point x="237.06" y="162"/>
      <point x="310.962" y="162" type="curve" smooth="yes"/>
      <point x="330.303" y="162"/>
      <point x="448.879" y="245.5"/>
      <point x="549.391" y="483.606" type="curve" smooth="yes"/>
      <point x="607.313" y="620.82"/>
      <point x="674.123" y="900.812"/>
      <point x="627.343" y="1045.87" type="curve"/>
      <point x="612" y="1037" type="line"/>
      <point x="612" y="1103" type="line"/>
    </contour>
    <contour>
      <point x="753.645" y="1155.84" type="curve" smooth="yes"/>
      <point x="855.913" y="969.487"/>
      <point x="767.507" y="588.887"/>
      <point x="696.795" y="421.38" type="curve" smooth="yes"/>
      <point x="602.447" y="197.885"/>
      <point x="448.012" y="2"/>
      <point x="310.962" y="2" type="curve" smooth="yes"/>
      <point x="142.599" y="2"/>
      <point x="25.0045" y="159.695"/>
      <point x="54.553" y="318.406" type="curve"/>
      <point x="199.444" y="1090.69" type="line"/>
      <point x="207.948" y="1136.58"/>
      <point x="276.765" y="1123.77"/>
      <point x="268.262" y="1077.88" type="curve"/>
      <point x="123.371" y="305.594" type="line"/>
      <point x="101.709" y="189.244"/>
      <point x="186.382" y="72"/>
      <point x="310.962" y="72" type="curve" smooth="yes"/>
      <point x="396.489" y="72"/>
      <point x="535.261" y="218.719"/>
      <point x="632.306" y="448.604" type="curve" smooth="yes"/>
      <point x="703.159" y="616.444"/>
      <point x="755.066" y="867.544"/>
      <point x="718.762" y="1052.25" type="curve" smooth="yes"/>
      <point x="714.616" y="1073.34"/>
      <point x="707.199" y="1094.97"/>
      <point x="692.279" y="1122.16" type="curve" smooth="yes"/>
      <point x="669.828" y="1163.07"/>
      <point x="731.186" y="1196.76"/>
    </contour>
  </outline>
</glyph>
<glyph name="uni1204" format="2">
  <advance width="799"/>
  <unicode hex="1204"/>
  <outline>
    <component base="bar"/>
    <contour>
      <point x="894" y="1381" type="curve" smooth="yes"/>
      <point x="894" y="1352"/>
      <point x="867" y="1332"/>
      <point x="827" y="1306" type="curve"/>
      <point x="891" y="1306" type="line"/>
      <point x="891" y="1286" type="line"/>
      <point x="806" y="1286" type="line"/>
      <point x="806" y="1304" type="line"/>
      <point x="857" y="1345"/>
      <point x="872" y="1364" name=".hr01"/>
      <point x="872" y="1381" type="curve" smooth="yes"/>
      <point x="872" y="1389"/>
      <point x="868" y="1401"/>
      <point x="853" y="1401" type="curve" smooth="yes"/>
      <point x="837" y="1401"/>
      <point x="831" y="1388"/>
      <point x="830" y="1377" type="curve"/>
      <point x="808" y="1377" type="line"/>
      <point x="810" y="1403"/>
      <point x="825" y="1416"/>
      <point x="853" y="1416" type="curve" smooth="yes"/>
      <point x="879" y="1416"/>
      <point x="894" y="1402"/>
    </contour>
    <contour>
      <point x="283" y="1289" type="line"/>
      <point x="262" y="1289" type="line"/>
      <point x="262" y="1390" type="line"/>
      <point x="255" y="1384"/>
      <point x="241" y="1377"/>
      <point x="233" y="1375" type="curve"/>
      <point x="233" y="1394" type="line"/>
      <point x="242" y="1398"/>
      <point x="258" y="1411"/>
      <point x="262" y="1415" type="curve"/>
      <point x="283" y="1415" type="line"/>
    </contour>
    <contour>
      <point x="581.644" y="1369.61" type="line"/>
      <point x="566.378" y="1373.72" type="line"/>
      <point x="552.977" y="1319.06"/>
      <point x="506.681" y="1130.31"/>
      <point x="484.22" y="1040.01" type="curve" smooth="yes"/>
      <point x="483.987" y="1039.07" type="line"/>
      <point x="443.113" y="934.334"/>
      <point x="392.283" y="898"/>
      <point x="279.922" y="898" type="curve" smooth="yes"/>
      <point x="215.186" y="898"/>
      <point x="178.466" y="954.771"/>
      <point x="180.042" y="1074.21" type="curve" smooth="yes"/>
      <point x="183.379" y="1326.94" type="line"/>
      <point x="213.376" y="1326.55" type="line"/>
      <point x="210.04" y="1073.81" type="line" smooth="yes"/>
      <point x="208.482" y="955.806"/>
      <point x="243.922" y="928"/>
      <point x="279.922" y="928" type="curve" smooth="yes"/>
      <point x="377.442" y="928"/>
      <point x="418.72" y="954.833"/>
      <point x="455.344" y="1048.18" type="curve"/>
      <point x="477.792" y="1138.44"/>
      <point x="524.271" y="1327.91"/>
      <point x="537.411" y="1381.52" type="curve"/>
      <point x="518.046" y="1386.73" type="line"/>
      <point x="564.563" y="1433.36" type="line"/>
    </contour>
    <contour>
      <point x="785.095" y="1338.53" type="line"/>
      <point x="562.184" y="441.025" type="line"/>
      <point x="580.007" y="435.554" type="line"/>
      <point x="531.891" y="390.578" type="line"/>
      <point x="517.045" y="454.886" type="line"/>
      <point x="533.463" y="449.839" type="line"/>
      <point x="755.98" y="1345.76" type="line"/>
    </contour>
    <contour>
      <point x="697.74" y="1360.19" type="curve" smooth="yes"/>
      <point x="440.922" y="324" type="line"/>
      <point x="464.922" y="337"/>
      <point x="491.922" y="344"/>
      <point x="520.922" y="344" type="curve" smooth="yes"/>
      <point x="615.922" y="344"/>
      <point x="692.922" y="267"/>
      <point x="692.922" y="172" type="curve" smooth="yes"/>
      <point x="692.922" y="77"/>
      <point x="615.922" y="0"/>
      <point x="520.922" y="0" type="curve" smooth="yes"/>
      <point x="461.922" y="0"/>
      <point x="408.922" y="30"/>
      <point x="377.922" y="76" type="curve"/>
      <point x="335.529" y="119.241"/>
      <point x="345.098" y="214.937"/>
      <point x="348.729" y="243.089" type="curve" smooth="yes"/>
      <point x="349.051" y="245.585"/>
      <point x="349.237" y="248.24"/>
      <point x="349.923" y="251" type="curve" smooth="yes"/>
      <point x="496.12" y="839.418" type="line"/>
      <point x="439.781" y="794.168"/>
      <point x="367.579" y="768"/>
      <point x="279.923" y="768" type="curve" smooth="yes"/>
      <point x="111.563" y="768"/>
      <point x="47.9205" y="914.247"/>
      <point x="50.0515" y="1075.67" type="curve" smooth="yes"/>
      <point x="53.388" y="1328.4" type="line" smooth="yes"/>
      <point x="54.0038" y="1375.06"/>
      <point x="124" y="1374.39"/>
      <point x="123.384" y="1327.74" type="curve" smooth="yes"/>
      <point x="120.048" y="1075" type="line" smooth="yes"/>
      <point x="118.487" y="956.738"/>
      <point x="155.338" y="838"/>
      <point x="279.923" y="838" type="curve" smooth="yes"/>
      <point x="416.971" y="838"/>
      <point x="491.184" y="889.36"/>
      <point x="541.307" y="1020.99" type="curve"/>
      <point x="628.923" y="1373" type="line" smooth="yes"/>
      <point x="640.194" y="1418.29"/>
      <point x="708.973" y="1405.51"/>
    </contour>
    <contour>
      <point x="782.922" y="172" type="curve" smooth="yes"/>
      <point x="782.922" y="27.28"/>
      <point x="665.65" y="-90"/>
      <point x="520.922" y="-90" type="curve" smooth="yes"/>
      <point x="433.634" y="-90"/>
      <point x="355.167" y="-46.918"/>
      <point x="307.495" y="19.6608" type="curve"/>
      <point x="219.969" y="119.378"/>
      <point x="256.387" y="245.579"/>
      <point x="284.088" y="357.627" type="curve"/>
      <point x="313.211" y="350.427" type="line"/>
      <point x="288.179" y="249.173"/>
      <point x="251.058" y="128.581"/>
      <point x="330.985" y="38.3195" type="curve"/>
      <point x="373.176" y="-20.9865"/>
      <point x="443.394" y="-60"/>
      <point x="520.922" y="-60" type="curve" smooth="yes"/>
      <point x="649.074" y="-60"/>
      <point x="752.922" y="43.868"/>
      <point x="752.922" y="172" type="curve" smooth="yes"/>
      <point x="752.922" y="248.29"/>
      <point x="716.123" y="315.97"/>
      <point x="659.259" y="358.269" type="curve"/>
      <point x="651" y="344" type="line"/>
      <point x="618" y="401" type="line"/>
      <point x="684" y="401" type="line"/>
      <point x="674.382" y="384.385" type="line"/>
      <point x="740.122" y="336.804"/>
      <point x="782.922" y="259.408"/>
    </contour>
    <contour>
      <point x="254" y="333" type="curve" smooth="yes"/>
      <point x="254" y="314"/>
      <point x="240" y="295"/>
      <point x="208" y="295" type="curve" smooth="yes"/>
      <point x="175" y="295"/>
      <point x="167" y="315"/>
      <point x="167" y="331" type="curve"/>
      <point x="189" y="331" type="line"/>
      <point x="189" y="319"/>
      <point x="197" y="311"/>
      <point x="209" y="311" type="curve" smooth="yes"/>
      <point x="221" y="311"/>
      <point x="232" y="319"/>
      <point x="232" y="333" type="curve" smooth="yes"/>
      <point x="232" y="338"/>
      <point x="228" y="355"/>
      <point x="210" y="355" type="curve" smooth="yes"/>
      <point x="199" y="355" type="line"/>
      <point x="199" y="369" type="line"/>
      <point x="227" y="369"/>
      <point x="229" y="381"/>
      <point x="229" y="391" type="curve" smooth="yes"/>
      <point x="229" y="400"/>
      <point x="225" y="410"/>
      <point x="212" y="410" type="curve" smooth="yes"/>
      <point x="198" y="410"/>
      <point x="192" y="404"/>
      <point x="191" y="392" type="curve"/>
      <point x="169" y="392" type="line"/>
      <point x="170" y="414"/>
      <point x="188" y="425"/>
      <point x="211" y="425" type="curve" smooth="yes"/>
      <point x="233" y="425"/>
      <point x="251" y="413"/>
      <point x="251" y="391" type="curve" smooth="yes"/>
      <point x="251" y="372"/>
      <point x="239" y="367"/>
      <point x="228" y="363" type="curve"/>
      <point x="239" y="360"/>
      <point x="254" y="351"/>
    </contour>
    <contour>
      <point x="622.922" y="172" type="curve" smooth="yes"/>
      <point x="622.922" y="229"/>
      <point x="576.922" y="274"/>
      <point x="520.922" y="274" type="curve" smooth="yes"/>
      <point x="464.922" y="274"/>
      <point x="418.922" y="229"/>
      <point x="418.922" y="172" type="curve" smooth="yes"/>
      <point x="418.922" y="116"/>
      <point x="464.922" y="71"/>
      <point x="520.922" y="71" type="curve" smooth="yes"/>
      <point x="576.922" y="71"/>
      <point x="622.922" y="116"/>
    </contour>
  </outline>
</glyph>
<glyph name="uni1206" format="2">
  <advance width="1184"/>
  <unicode hex="1206"/>
  <outline>
    <component base="bar"/>
    <contour>
      <point x="1173.97" y="1118" type="curve" smooth="yes"/>
      <point x="1173.97" y="982.766"/>
      <point x="1071.52" y="871.478"/>
      <point x="940" y="857.489" type="curve"/>
      <point x="940" y="838" type="line"/>
      <point x="883" y="871" type="line"/>
      <point x="940" y="904" type="line"/>
      <point x="940" y="887.669" type="line"/>
      <point x="1054.91" y="901.508"/>
      <point x="1143.97" y="999.352"/>
      <point x="1143.97" y="1118" type="curve" smooth="yes"/>
      <point x="1143.97" y="1246.14"/>
      <point x="1040.1" y="1350"/>
      <point x="911.967" y="1350" type="curve" smooth="yes"/>
      <point x="788.302" y="1350"/>
      <point x="670.115" y="1250.45"/>
      <point x="669.967" y="1118.07" type="curve"/>
      <point x="639.967" y="1118.1" type="line"/>
      <point x="640.136" y="1269.34"/>
      <point x="774.151" y="1380"/>
      <point x="911.967" y="1380" type="curve" smooth="yes"/>
      <point x="1056.67" y="1380"/>
      <point x="1173.97" y="1262.71"/>
    </contour>
    <contour>
      <point x="608" y="1131" type="curve" smooth="yes"/>
      <point x="608" y="1102"/>
      <point x="581" y="1082"/>
      <point x="541" y="1056" type="curve"/>
      <point x="605" y="1056" type="line"/>
      <point x="605" y="1036" type="line"/>
      <point x="520" y="1036" type="line"/>
      <point x="520" y="1054" type="line"/>
      <point x="571" y="1095"/>
      <point x="586" y="1114"/>
      <point x="586" y="1131" type="curve" smooth="yes"/>
      <point x="586" y="1139"/>
      <point x="582" y="1151"/>
      <point x="567" y="1151" type="curve" smooth="yes"/>
      <point x="551" y="1151"/>
      <point x="545" y="1138"/>
      <point x="544" y="1127" type="curve"/>
      <point x="522" y="1127" type="line"/>
      <point x="524" y="1153"/>
      <point x="539" y="1166"/>
      <point x="567" y="1166" type="curve" smooth="yes"/>
      <point x="593" y="1166"/>
      <point x="608" y="1152"/>
    </contour>
    <contour>
      <point x="426" y="1017" type="line"/>
      <point x="405" y="1017" type="line"/>
      <point x="405" y="1118" type="line"/>
      <point x="398" y="1112"/>
      <point x="384" y="1105"/>
      <point x="376" y="1103" type="curve"/>
      <point x="376" y="1122" type="line"/>
      <point x="385" y="1126"/>
      <point x="401" y="1139"/>
      <point x="405" y="1143" type="curve"/>
      <point x="426" y="1143" type="line"/>
    </contour>
    <contour>
      <point x="1083.97" y="1118" type="curve" smooth="yes"/>
      <point x="1083.97" y="1023"/>
      <point x="1006.97" y="946"/>
      <point x="911.966" y="946" type="curve" smooth="yes"/>
      <point x="868.966" y="946"/>
      <point x="827.241" y="967.983"/>
      <point x="797.241" y="992.983" type="curve"/>
      <point x="814.297" y="798.424"/>
      <point x="750.415" y="548.481"/>
      <point x="696.761" y="421.38" type="curve" smooth="yes"/>
      <point x="602.426" y="197.911"/>
      <point x="447.977" y="2"/>
      <point x="310.928" y="2" type="curve" smooth="yes"/>
      <point x="142.567" y="2"/>
      <point x="25.1068" y="159.685"/>
      <point x="54.5193" y="318.406" type="curve"/>
      <point x="199.411" y="1090.69" type="line"/>
      <point x="207.914" y="1136.58"/>
      <point x="276.731" y="1123.77"/>
      <point x="268.228" y="1077.88" type="curve"/>
      <point x="123.337" y="305.594" type="line"/>
      <point x="101.798" y="189.359"/>
      <point x="186.328" y="72"/>
      <point x="310.928" y="72" type="curve" smooth="yes"/>
      <point x="396.472" y="72"/>
      <point x="535.257" y="218.786"/>
      <point x="632.272" y="448.604" type="curve" smooth="yes"/>
      <point x="689.557" y="584.306"/>
      <point x="729.591" y="783.448"/>
      <point x="729.777" y="948.98" type="curve" smooth="yes"/>
      <point x="729.966" y="1118" type="line" smooth="yes"/>
      <point x="730.073" y="1213"/>
      <point x="816.966" y="1290"/>
      <point x="911.966" y="1290" type="curve" smooth="yes"/>
      <point x="1006.97" y="1290"/>
      <point x="1083.97" y="1213"/>
    </contour>
    <contour>
      <point x="685.579" y="934.021" type="line"/>
      <point x="668" y="934" type="line"/>
      <point x="669.926" y="776.654"/>
      <point x="621.343" y="576.919"/>
      <point x="577.029" y="471.939" type="curve" smooth="yes"/>
      <point x="477.637" y="236.477"/>
      <point x="352.346" y="132"/>
      <point x="310.962" y="132" type="curve" smooth="yes"/>
      <point x="217.074" y="132"/>
      <point x="163.566" y="195.042"/>
      <point x="182.765" y="297.305" type="curve"/>
      <point x="182.765" y="297.305"/>
      <point x="275.211" y="789.528"/>
      <point x="327.237" y="1066.84" type="curve"/>
      <point x="356.722" y="1061.31" type="line"/>
      <point x="304.696" y="783.994"/>
      <point x="212.249" y="291.768"/>
      <point x="212.249" y="291.768" type="curve"/>
      <point x="196.259" y="206.592"/>
      <point x="237.04" y="162"/>
      <point x="310.962" y="162" type="curve" smooth="yes"/>
      <point x="330.31" y="162"/>
      <point x="448.882" y="245.503"/>
      <point x="549.391" y="483.606" type="curve" smooth="yes"/>
      <point x="594.71" y="590.967"/>
      <point x="640.493" y="785.815"/>
      <point x="638.006" y="934.981" type="curve"/>
      <point x="619.714" y="933.943" type="line"/>
      <point x="652.715" y="991.101" type="line"/>
    </contour>
    <contour>
      <point x="1013.97" y="1118" type="curve" smooth="yes"/>
      <point x="1013.97" y="1174"/>
      <point x="967.966" y="1220"/>
      <point x="911.966" y="1220" type="curve" smooth="yes"/>
      <point x="855.966" y="1220"/>
      <point x="809.966" y="1174"/>
      <point x="809.966" y="1118" type="curve" smooth="yes"/>
      <point x="809.966" y="1062"/>
      <point x="855.966" y="1016"/>
      <point x="911.966" y="1016" type="curve" smooth="yes"/>
      <point x="967.966" y="1016"/>
      <point x="1013.97" y="1062"/>
    </contour>
  </outline>
</glyph>
<glyph name="uni1208" format="2">
  <advance width="822"/>
  <unicode hex="1208"/>
  <outline>
    <component base="bar"/>
    <contour>
      <point x="615" y="1368" type="line"/>
      <point x="594" y="1368" type="line"/>
      <point x="594" y="1469" type="line"/>
      <point x="587" y="1463"/>
      <point x="573" y="1456"/>
      <point x="565" y="1454" type="curve"/>
      <point x="565" y="1473" type="line"/>
      <point x="574" y="1477"/>
      <point x="590" y="1490"/>
      <point x="594" y="1494" type="curve"/>
      <point x="615" y="1494" type="line"/>
    </contour>
    <contour>
      <point x="297" y="1339" type="curve" smooth="yes"/>
      <point x="297" y="1310"/>
      <point x="270" y="1290"/>
      <point x="230" y="1264" type="curve"/>
      <point x="294" y="1264" type="line"/>
      <point x="294" y="1244" type="line"/>
      <point x="209" y="1244" type="line"/>
      <point x="209" y="1262" type="line"/>
      <point x="260" y="1303"/>
      <point x="275" y="1322"/>
      <point x="275" y="1339" type="curve" smooth="yes"/>
      <point x="275" y="1347"/>
      <point x="271" y="1359"/>
      <point x="256" y="1359" type="curve" smooth="yes"/>
      <point x="240" y="1359"/>
      <point x="234" y="1346"/>
      <point x="233" y="1335" type="curve"/>
      <point x="211" y="1335" type="line"/>
      <point x="213" y="1361"/>
      <point x="228" y="1374"/>
      <point x="256" y="1374" type="curve" smooth="yes"/>
      <point x="282" y="1374"/>
      <point x="297" y="1360"/>
    </contour>
    <contour>
      <point x="829" y="57" type="line"/>
      <point x="796" y="0" type="line"/>
      <point x="763" y="57" type="line"/>
      <point x="782.008" y="57" type="line"/>
      <point x="782.001" y="835" type="line" smooth="yes"/>
      <point x="782" y="968.234"/>
      <point x="658.383" y="1196.2"/>
      <point x="489.732" y="1405.63" type="curve"/>
      <point x="513.097" y="1424.45" type="line"/>
      <point x="681.553" y="1215.26"/>
      <point x="812" y="979.843"/>
      <point x="812.001" y="835" type="curve" smooth="yes"/>
      <point x="812.007" y="57" type="line"/>
    </contour>
    <contour>
      <point x="722.001" y="35" type="line" smooth="yes"/>
      <point x="722.001" y="16"/>
      <point x="706.001" y="0"/>
      <point x="687.001" y="0" type="curve" smooth="yes"/>
      <point x="667.001" y="0"/>
      <point x="652.001" y="16"/>
      <point x="652.001" y="35" type="curve" smooth="yes"/>
      <point x="652.001" y="800" type="line" smooth="yes"/>
      <point x="652.001" y="979.002"/>
      <point x="508.001" y="1153"/>
      <point x="508.001" y="1153" type="curve"/>
      <point x="101.186" y="930"/>
      <point x="126.01" y="722.158"/>
      <point x="120.001" y="35" type="curve" smooth="yes"/>
      <point x="119.835" y="16"/>
      <point x="104.001" y="0"/>
      <point x="85.0012" y="0" type="curve" smooth="yes"/>
      <point x="66.0012" y="0"/>
      <point x="49.841" y="16"/>
      <point x="50.0012" y="35" type="curve" smooth="yes"/>
      <point x="55.4804" y="684.451"/>
      <point x="21.1857" y="982"/>
      <point x="469.001" y="1205" type="curve"/>
      <point x="469.001" y="1205"/>
      <point x="440.088" y="1259.08"/>
      <point x="388.001" y="1325" type="curve" smooth="yes"/>
      <point x="376.094" y="1340.07"/>
      <point x="379.001" y="1362"/>
      <point x="394.001" y="1374" type="curve" smooth="yes"/>
      <point x="409.001" y="1386"/>
      <point x="430.069" y="1384.06"/>
      <point x="443.001" y="1368" type="curve" smooth="yes"/>
      <point x="612.065" y="1158.06"/>
      <point x="722.001" y="945"/>
      <point x="722.001" y="835" type="curve" smooth="yes"/>
    </contour>
    <contour>
      <point x="369.239" y="1219.34" type="line"/>
      <point x="41.6035" y="1027.53"/>
      <point x="0.905514" y="758.311"/>
      <point x="-8.67074" y="416.108" type="curve" smooth="yes"/>
      <point x="-12.1445" y="291.968"/>
      <point x="-9.41149" y="167.093"/>
      <point x="-9.86329" y="57" type="curve"/>
      <point x="9" y="57" type="line"/>
      <point x="-24" y="0" type="line"/>
      <point x="-57" y="57" type="line"/>
      <point x="-39.8622" y="57" type="line"/>
      <point x="-38.9242" y="302.207"/>
      <point x="-55.9455" y="564.247"/>
      <point x="6.567" y="802.738" type="curve" smooth="yes"/>
      <point x="56.0318" y="991.45"/>
      <point x="158.881" y="1130.95"/>
      <point x="354.082" y="1245.23" type="curve"/>
    </contour>
  </outline>
</glyph>
<glyph name="uni120A" format="2">
  <advance width="1254"/>
  <unicode hex="120A"/>
  <outline>
    <component base="bar"/>
    <contour>
      <point x="615" y="1368" type="line"/>
      <point x="594" y="1368" type="line"/>
      <point x="594" y="1469" type="line"/>
      <point x="587" y="1463"/>
      <point x="573" y="1456"/>
      <point x="565" y="1454" type="curve"/>
      <point x="565" y="1473" type="line"/>
      <point x="574" y="1477"/>
      <point x="590" y="1490"/>
      <point x="594" y="1494" type="curve"/>
      <point x="615" y="1494" type="line"/>
    </contour>
    <contour>
      <point x="312" y="1274" type="curve" smooth="yes"/>
      <point x="312" y="1255"/>
      <point x="298" y="1236"/>
      <point x="266" y="1236" type="curve" smooth="yes"/>
      <point x="233" y="1236"/>
      <point x="225" y="1256"/>
      <point x="225" y="1272" type="curve"/>
      <point x="247" y="1272" type="line"/>
      <point x="247" y="1260"/>
      <point x="255" y="1252"/>
      <point x="267" y="1252" type="curve" smooth="yes"/>
      <point x="279" y="1252"/>
      <point x="290" y="1260"/>
      <point x="290" y="1274" type="curve" smooth="yes"/>
      <point x="290" y="1279"/>
      <point x="286" y="1296"/>
      <point x="268" y="1296" type="curve" smooth="yes"/>
      <point x="257" y="1296" type="line"/>
      <point x="257" y="1310" type="line"/>
      <point x="285" y="1310"/>
      <point x="287" y="1322"/>
      <point x="287" y="1332" type="curve" smooth="yes"/>
      <point x="287" y="1341"/>
      <point x="283" y="1351"/>
      <point x="270" y="1351" type="curve" smooth="yes"/>
      <point x="256" y="1351"/>
      <point x="250" y="1345"/>
      <point x="249" y="1333" type="curve"/>
      <point x="227" y="1333" type="line"/>
      <point x="228" y="1355"/>
      <point x="246" y="1366"/>
      <point x="269" y="1366" type="curve" smooth="yes"/>
      <point x="291" y="1366"/>
      <point x="309" y="1354"/>
      <point x="309" y="1332" type="curve" smooth="yes"/>
      <point x="309" y="1313"/>
      <point x="297" y="1308"/>
      <point x="286" y="1304" type="curve"/>
      <point x="297" y="1301"/>
      <point x="312" y="1292"/>
    </contour>
    <contour>
      <point x="829" y="216" type="line"/>
      <point x="796" y="159" type="line"/>
      <point x="763" y="216" type="line"/>
      <point x="782.008" y="216" type="line"/>
      <point x="782.001" y="835" type="line" smooth="yes"/>
      <point x="782" y="968.237"/>
      <point x="658.383" y="1196.2"/>
      <point x="489.732" y="1405.63" type="curve"/>
      <point x="513.098" y="1424.45" type="line"/>
      <point x="681.554" y="1215.26"/>
      <point x="812" y="979.846"/>
      <point x="812.001" y="835" type="curve" smooth="yes"/>
      <point x="812.008" y="216" type="line"/>
    </contour>
    <contour>
      <point x="1154" y="35" type="curve" smooth="yes"/>
      <point x="1154" y="16"/>
      <point x="1139" y="0"/>
      <point x="1119" y="0" type="curve" smooth="yes"/>
      <point x="685.001" y="0" type="line" smooth="yes"/>
      <point x="666" y="0"/>
      <point x="651" y="16"/>
      <point x="651" y="35" type="curve" smooth="yes"/>
      <point x="651" y="800" type="line" smooth="yes"/>
      <point x="651" y="979.002"/>
      <point x="508" y="1153"/>
      <point x="508" y="1153" type="curve"/>
      <point x="101.185" y="930"/>
      <point x="126.009" y="722.158"/>
      <point x="120" y="35" type="curve" smooth="yes"/>
      <point x="119.834" y="16"/>
      <point x="104" y="0"/>
      <point x="85" y="0" type="curve" smooth="yes"/>
      <point x="66" y="0"/>
      <point x="49.8398" y="16"/>
      <point x="50" y="35" type="curve" smooth="yes"/>
      <point x="55.4792" y="684.451"/>
      <point x="21.1845" y="982"/>
      <point x="469" y="1205" type="curve"/>
      <point x="469" y="1205"/>
      <point x="439.087" y="1259.08"/>
      <point x="387" y="1325" type="curve" smooth="yes"/>
      <point x="375.092" y="1340.07"/>
      <point x="378" y="1362"/>
      <point x="393" y="1374" type="curve" smooth="yes"/>
      <point x="408" y="1386"/>
      <point x="429.068" y="1384.06"/>
      <point x="442" y="1368" type="curve" smooth="yes"/>
      <point x="611.064" y="1158.06"/>
      <point x="721" y="945"/>
      <point x="721" y="835" type="curve" smooth="yes"/>
      <point x="721" y="70" type="line"/>
      <point x="1119" y="70" type="line" smooth="yes"/>
      <point x="1138" y="70"/>
      <point x="1154" y="54"/>
    </contour>
    <contour>
      <point x="1132" y="-88" type="line"/>
      <point x="1075" y="-121" type="line"/>
      <point x="1075" y="-102.762" type="line"/>
      <point x="772.007" y="-102.754" type="line"/>
      <point x="772.008" y="-72.7539" type="line"/>
      <point x="1075" y="-72.7626" type="line"/>
      <point x="1075" y="-55" type="line"/>
    </contour>
    <contour>
      <point x="369.239" y="1219.34" type="line"/>
      <point x="41.6035" y="1027.53"/>
      <point x="0.905266" y="758.321"/>
      <point x="-8.67073" y="416.108" type="curve" smooth="yes"/>
      <point x="-12.1445" y="291.963"/>
      <point x="-9.41148" y="167.093"/>
      <point x="-9.86328" y="57" type="curve"/>
      <point x="9" y="57" type="line"/>
      <point x="-24" y="0" type="line"/>
      <point x="-57" y="57" type="line"/>
      <point x="-39.8622" y="57" type="line"/>
      <point x="-38.9242" y="302.207"/>
      <point x="-55.945" y="564.247"/>
      <point x="6.567" y="802.738" type="curve" smooth="yes"/>
      <point x="56.0313" y="991.45"/>
      <point x="158.882" y="1130.95"/>
      <point x="354.082" y="1245.23" type="curve"/>
    </contour>
    <contour>
      <point x="732" y="-106" type="curve" smooth="yes"/>
      <point x="732" y="-135"/>
      <point x="705" y="-155"/>
      <point x="665" y="-181" type="curve"/>
      <point x="729" y="-181" type="line"/>
      <point x="729" y="-201" type="line"/>
      <point x="644" y="-201" type="line"/>
      <point x="644" y="-183" type="line"/>
      <point x="695" y="-142"/>
      <point x="710" y="-123"/>
      <point x="710" y="-106" type="curve" smooth="yes"/>
      <point x="710" y="-98"/>
      <point x="706" y="-86"/>
      <point x="691" y="-86" type="curve" smooth="yes"/>
      <point x="675" y="-86"/>
      <point x="669" y="-99"/>
      <point x="668" y="-110" type="curve"/>
      <point x="646" y="-110" type="line"/>
      <point x="648" y="-84"/>
      <point x="663" y="-71"/>
      <point x="691" y="-71" type="curve" smooth="yes"/>
      <point x="717" y="-71"/>
      <point x="732" y="-85"/>
    </contour>
  </outline>
</glyph>
<glyph name="uni120D" format="2">
  <advance width="822"/>
  <unicode hex="120D"/>
  <outline>
    <component base="bar"/>
    <contour>
      <point x="615" y="1368" type="line"/>
      <point x="594" y="1368" type="line"/>
      <point x="594" y="1469" type="line"/>
      <point x="587" y="1463"/>
      <point x="573" y="1456"/>
      <point x="565" y="1454" type="curve"/>
      <point x="565" y="1473" type="line"/>
      <point x="574" y="1477"/>
      <point x="590" y="1490"/>
      <point x="594" y="1494" type="curve"/>
      <point x="615" y="1494" type="line"/>
    </contour>
    <contour>
      <point x="297" y="1339" type="curve" smooth="yes"/>
      <point x="297" y="1310"/>
      <point x="270" y="1290"/>
      <point x="230" y="1264" type="curve"/>
      <point x="294" y="1264" type="line"/>
      <point x="294" y="1244" type="line"/>
      <point x="209" y="1244" type="line"/>
      <point x="209" y="1262" type="line"/>
      <point x="260" y="1303"/>
      <point x="275" y="1322"/>
      <point x="275" y="1339" type="curve" smooth="yes"/>
      <point x="275" y="1347"/>
      <point x="271" y="1359"/>
      <point x="256" y="1359" type="curve" smooth="yes"/>
      <point x="240" y="1359"/>
      <point x="234" y="1346"/>
      <point x="233" y="1335" type="curve"/>
      <point x="211" y="1335" type="line"/>
      <point x="213" y="1361"/>
      <point x="228" y="1374"/>
      <point x="256" y="1374" type="curve" smooth="yes"/>
      <point x="282" y="1374"/>
      <point x="297" y="1360"/>
    </contour>
    <contour>
      <point x="829" y="57" type="line"/>
      <point x="796" y="0" type="line"/>
      <point x="763" y="57" type="line"/>
      <point x="782.008" y="57" type="line"/>
      <point x="782.001" y="835" type="line" smooth="yes"/>
      <point x="782" y="968.234"/>
      <point x="658.383" y="1196.2"/>
      <point x="489.732" y="1405.63" type="curve"/>
      <point x="513.097" y="1424.45" type="line"/>
      <point x="681.553" y="1215.26"/>
      <point x="812" y="979.843"/>
      <point x="812.001" y="835" type="curve" smooth="yes"/>
      <point x="812.007" y="57" type="line"/>
    </contour>
    <contour>
      <point x="721.787" y="35" type="line" smooth="yes"/>
      <point x="721.787" y="16"/>
      <point x="705.787" y="0"/>
      <point x="686.787" y="0" type="curve" smooth="yes"/>
      <point x="666.787" y="0"/>
      <point x="651.787" y="16"/>
      <point x="651.787" y="35" type="curve" smooth="yes"/>
      <point x="651.787" y="800" type="line" smooth="yes"/>
      <point x="651.787" y="979.002"/>
      <point x="507.787" y="1153"/>
      <point x="507.787" y="1153" type="curve"/>
      <point x="160.911" y="962.857"/>
      <point x="125.937" y="777.636"/>
      <point x="120" y="303" type="curve"/>
      <point x="150" y="328"/>
      <point x="189" y="344"/>
      <point x="232" y="344" type="curve" smooth="yes"/>
      <point x="327" y="344"/>
      <point x="404" y="267"/>
      <point x="404" y="172" type="curve" smooth="yes"/>
      <point x="404" y="77"/>
      <point x="327" y="0"/>
      <point x="232" y="0" type="curve" smooth="yes"/>
      <point x="137" y="0"/>
      <point x="50.165" y="76.9935"/>
      <point x="50" y="172" type="curve"/>
      <point x="52.2765" y="728.236"/>
      <point x="53.4973" y="998.197"/>
      <point x="468.787" y="1205" type="curve"/>
      <point x="468.787" y="1205"/>
      <point x="439.874" y="1259.08"/>
      <point x="387.787" y="1325" type="curve" smooth="yes"/>
      <point x="375.88" y="1340.07"/>
      <point x="378.787" y="1362"/>
      <point x="393.787" y="1374" type="curve" smooth="yes"/>
      <point x="408.787" y="1386"/>
      <point x="429.856" y="1384.06"/>
      <point x="442.787" y="1368" type="curve" smooth="yes"/>
      <point x="611.852" y="1158.06"/>
      <point x="721.787" y="945"/>
      <point x="721.787" y="835" type="curve" smooth="yes"/>
    </contour>
    <contour>
      <point x="369.239" y="1219.34" type="line"/>
      <point x="41.6035" y="1027.53"/>
      <point x="0.904015" y="758.231"/>
      <point x="-8.67074" y="416.108" type="curve"/>
      <point x="10.1925" y="416.108" type="line"/>
      <point x="-22.8075" y="359.108" type="line"/>
      <point x="-55.8075" y="416.108" type="line"/>
      <point x="-38.6697" y="416.108" type="line"/>
      <point x="-35.4422" y="546.944"/>
      <point x="-25.8682" y="678.991"/>
      <point x="6.56702" y="802.738" type="curve" smooth="yes"/>
      <point x="56.0253" y="991.429"/>
      <point x="158.882" y="1130.95"/>
      <point x="354.082" y="1245.23" type="curve"/>
    </contour>
    <contour>
      <point x="497" y="173" type="curve" smooth="yes"/>
      <point x="497" y="28.2953"/>
      <point x="379.704" y="-89"/>
      <point x="235" y="-89" type="curve" smooth="yes"/>
      <point x="97.384" y="-89"/>
      <point x="-37.1523" y="21.5198"/>
      <point x="-37" y="173.09" type="curve"/>
      <point x="-7" y="173.06" type="line"/>
      <point x="-7.1333" y="40.4663"/>
      <point x="111.46" y="-59"/>
      <point x="235" y="-59" type="curve" smooth="yes"/>
      <point x="363.14" y="-59"/>
      <point x="467" y="44.8637"/>
      <point x="467" y="173" type="curve" smooth="yes"/>
      <point x="467" y="294.736"/>
      <point x="373.234" y="394.563"/>
      <point x="253.992" y="404.227" type="curve"/>
      <point x="254" y="386" type="line"/>
      <point x="197" y="419" type="line"/>
      <point x="254" y="452" type="line"/>
      <point x="253.992" y="434.324" type="line"/>
      <point x="389.818" y="424.59"/>
      <point x="497" y="311.313"/>
    </contour>
    <contour>
      <point x="-15" y="248" type="curve" smooth="yes"/>
      <point x="-15" y="229"/>
      <point x="-29" y="210"/>
      <point x="-61" y="210" type="curve" smooth="yes"/>
      <point x="-94" y="210"/>
      <point x="-102" y="230"/>
      <point x="-102" y="246" type="curve"/>
      <point x="-80" y="246" type="line"/>
      <point x="-80" y="234"/>
      <point x="-72" y="226"/>
      <point x="-60" y="226" type="curve" smooth="yes"/>
      <point x="-48" y="226"/>
      <point x="-37" y="234"/>
      <point x="-37" y="248" type="curve" smooth="yes"/>
      <point x="-37" y="253"/>
      <point x="-41" y="270"/>
      <point x="-59" y="270" type="curve" smooth="yes"/>
      <point x="-70" y="270" type="line"/>
      <point x="-70" y="284" type="line"/>
      <point x="-42" y="284"/>
      <point x="-40" y="296"/>
      <point x="-40" y="306" type="curve" smooth="yes"/>
      <point x="-40" y="315"/>
      <point x="-44" y="325"/>
      <point x="-57" y="325" type="curve" smooth="yes"/>
      <point x="-71" y="325"/>
      <point x="-77" y="319"/>
      <point x="-78" y="307" type="curve"/>
      <point x="-100" y="307" type="line"/>
      <point x="-99" y="329"/>
      <point x="-81" y="340"/>
      <point x="-58" y="340" type="curve" smooth="yes"/>
      <point x="-36" y="340"/>
      <point x="-18" y="328"/>
      <point x="-18" y="306" type="curve" smooth="yes"/>
      <point x="-18" y="287"/>
      <point x="-30" y="282"/>
      <point x="-41" y="278" type="curve"/>
      <point x="-30" y="275"/>
      <point x="-15" y="266"/>
    </contour>
    <contour>
      <point x="334" y="172" type="curve" smooth="yes"/>
      <point x="334" y="228"/>
      <point x="288" y="274"/>
      <point x="232" y="274" type="curve" smooth="yes"/>
      <point x="176" y="274"/>
      <point x="130" y="228"/>
      <point x="130" y="172" type="curve" smooth="yes"/>
      <point x="130" y="116"/>
      <point x="176" y="70"/>
      <point x="232" y="70" type="curve" smooth="yes"/>
      <point x="288" y="70"/>
      <point x="334" y="116"/>
    </contour>
  </outline>
</glyph>
<glyph name="uni120E" format="2">
  <advance width="1426"/>
  <unicode hex="120E"/>
  <outline>
    <component base="bar"/>
    <contour>
      <point x="615" y="1368" type="line"/>
      <point x="594" y="1368" type="line"/>
      <point x="594" y="1469" type="line"/>
      <point x="587" y="1463"/>
      <point x="573" y="1456"/>
      <point x="565" y="1454" type="curve"/>
      <point x="565" y="1473" type="line"/>
      <point x="574" y="1477"/>
      <point x="590" y="1490"/>
      <point x="594" y="1494" type="curve"/>
      <point x="615" y="1494" type="line"/>
    </contour>
    <contour>
      <point x="1415.05" y="917.382" type="curve" smooth="yes"/>
      <point x="1427.66" y="773.245"/>
      <point x="1321.04" y="646.152"/>
      <point x="1176.88" y="633.543" type="curve" smooth="yes"/>
      <point x="1036.77" y="621.287"/>
      <point x="918.816" y="720.126"/>
      <point x="896.401" y="848.003" type="curve"/>
      <point x="876" y="848" type="line"/>
      <point x="909" y="905" type="line"/>
      <point x="942" y="848" type="line"/>
      <point x="926.908" y="848.003" type="line"/>
      <point x="948.97" y="737.33"/>
      <point x="1052.22" y="652.752"/>
      <point x="1174.27" y="663.428" type="curve" smooth="yes"/>
      <point x="1474.59" y="689.7"/>
      <point x="1446.13" y="1161.05"/>
      <point x="1131.44" y="1136.85" type="curve"/>
      <point x="1131.44" y="1136.85"/>
      <point x="939.825" y="1122.05"/>
      <point x="800.132" y="1111.36" type="curve"/>
      <point x="797.843" y="1141.28" type="line"/>
      <point x="937.528" y="1151.96"/>
      <point x="1129.13" y="1166.76"/>
      <point x="1129.13" y="1166.76" type="curve"/>
      <point x="1278.62" y="1178.25"/>
      <point x="1400.88" y="1079.44"/>
    </contour>
    <contour>
      <point x="813" y="1209" type="curve" smooth="yes"/>
      <point x="813" y="1190"/>
      <point x="799" y="1171"/>
      <point x="767" y="1171" type="curve" smooth="yes"/>
      <point x="734" y="1171"/>
      <point x="726" y="1191"/>
      <point x="726" y="1207" type="curve"/>
      <point x="748" y="1207" type="line"/>
      <point x="748" y="1195"/>
      <point x="756" y="1187"/>
      <point x="768" y="1187" type="curve" smooth="yes"/>
      <point x="780" y="1187"/>
      <point x="791" y="1195"/>
      <point x="791" y="1209" type="curve" smooth="yes"/>
      <point x="791" y="1214"/>
      <point x="787" y="1231"/>
      <point x="769" y="1231" type="curve" smooth="yes"/>
      <point x="758" y="1231" type="line"/>
      <point x="758" y="1245" type="line"/>
      <point x="786" y="1245"/>
      <point x="788" y="1257"/>
      <point x="788" y="1267" type="curve" smooth="yes"/>
      <point x="788" y="1276"/>
      <point x="784" y="1286"/>
      <point x="771" y="1286" type="curve" smooth="yes"/>
      <point x="757" y="1286"/>
      <point x="751" y="1280"/>
      <point x="750" y="1268" type="curve"/>
      <point x="728" y="1268" type="line"/>
      <point x="729" y="1290"/>
      <point x="747" y="1301"/>
      <point x="770" y="1301" type="curve" smooth="yes"/>
      <point x="792" y="1301"/>
      <point x="810" y="1289"/>
      <point x="810" y="1267" type="curve" smooth="yes"/>
      <point x="810" y="1248"/>
      <point x="798" y="1243"/>
      <point x="787" y="1239" type="curve"/>
      <point x="798" y="1236"/>
      <point x="813" y="1227"/>
    </contour>
    <contour>
      <point x="297" y="1339" type="curve" smooth="yes"/>
      <point x="297" y="1310"/>
      <point x="270" y="1290"/>
      <point x="230" y="1264" type="curve"/>
      <point x="294" y="1264" type="line"/>
      <point x="294" y="1244" type="line"/>
      <point x="209" y="1244" type="line"/>
      <point x="209" y="1262" type="line"/>
      <point x="260" y="1303"/>
      <point x="275" y="1322"/>
      <point x="275" y="1339" type="curve" smooth="yes"/>
      <point x="275" y="1347"/>
      <point x="271" y="1359"/>
      <point x="256" y="1359" type="curve" smooth="yes"/>
      <point x="240" y="1359"/>
      <point x="234" y="1346"/>
      <point x="233" y="1335" type="curve"/>
      <point x="211" y="1335" type="line"/>
      <point x="213" y="1361"/>
      <point x="228" y="1374"/>
      <point x="256" y="1374" type="curve" smooth="yes"/>
      <point x="282" y="1374"/>
      <point x="297" y="1360"/>
    </contour>
    <contour>
      <point x="1325.39" y="909.538" type="curve" smooth="yes"/>
      <point x="1333.67" y="814.899"/>
      <point x="1263.68" y="731.48"/>
      <point x="1169.04" y="723.2" type="curve" smooth="yes"/>
      <point x="1074.4" y="714.921"/>
      <point x="990.982" y="784.914"/>
      <point x="982.702" y="879.556" type="curve" smooth="yes"/>
      <point x="980" y="910.439"/>
      <point x="991.008" y="979.661"/>
      <point x="1018.5" y="998.128" type="curve"/>
      <point x="691" y="973" type="line"/>
      <point x="724.214" y="911.779"/>
      <point x="721.001" y="875.872"/>
      <point x="721.001" y="835" type="curve" smooth="yes"/>
      <point x="721.001" y="35" type="line" smooth="yes"/>
      <point x="721.001" y="16"/>
      <point x="705.001" y="0"/>
      <point x="686.001" y="0" type="curve" smooth="yes"/>
      <point x="666.001" y="0"/>
      <point x="651.001" y="16"/>
      <point x="651.001" y="35" type="curve" smooth="yes"/>
      <point x="651.001" y="800" type="line" smooth="yes"/>
      <point x="651.001" y="914.081"/>
      <point x="566.172" y="1082.72"/>
      <point x="508.001" y="1153" type="curve"/>
      <point x="101.186" y="930"/>
      <point x="126.01" y="722.15"/>
      <point x="120.001" y="35" type="curve" smooth="yes"/>
      <point x="119.835" y="16"/>
      <point x="104.001" y="0"/>
      <point x="85.0013" y="0" type="curve" smooth="yes"/>
      <point x="66.0013" y="0"/>
      <point x="49.841" y="16"/>
      <point x="50.0012" y="35" type="curve" smooth="yes"/>
      <point x="55.4802" y="684.443"/>
      <point x="21.1857" y="982"/>
      <point x="469.001" y="1205" type="curve"/>
      <point x="469.001" y="1205"/>
      <point x="439.087" y="1259.08"/>
      <point x="387.001" y="1325" type="curve" smooth="yes"/>
      <point x="375.094" y="1340.07"/>
      <point x="378.001" y="1362"/>
      <point x="393.001" y="1374" type="curve" smooth="yes"/>
      <point x="408.001" y="1386"/>
      <point x="429.069" y="1384.06"/>
      <point x="442.001" y="1368" type="curve" smooth="yes"/>
      <point x="526.913" y="1262.56"/>
      <point x="595.387" y="1128.96"/>
      <point x="652" y="1040" type="curve"/>
      <point x="1138.19" y="1075.86" type="line" smooth="yes"/>
      <point x="1232.92" y="1082.84"/>
      <point x="1317.11" y="1004.18"/>
    </contour>
    <contour>
      <point x="829" y="57" type="line"/>
      <point x="796" y="0" type="line"/>
      <point x="763" y="57" type="line"/>
      <point x="782.008" y="57" type="line"/>
      <point x="782.001" y="835" type="line" smooth="yes"/>
      <point x="782" y="968.234"/>
      <point x="658.383" y="1196.2"/>
      <point x="489.732" y="1405.63" type="curve"/>
      <point x="513.097" y="1424.45" type="line"/>
      <point x="681.553" y="1215.26"/>
      <point x="812" y="979.843"/>
      <point x="812.001" y="835" type="curve" smooth="yes"/>
      <point x="812.007" y="57" type="line"/>
    </contour>
    <contour>
      <point x="369.239" y="1219.34" type="line"/>
      <point x="41.6035" y="1027.53"/>
      <point x="0.907017" y="758.453"/>
      <point x="-8.67073" y="416.108" type="curve" smooth="yes"/>
      <point x="-12.1455" y="291.905"/>
      <point x="-9.41148" y="167.093"/>
      <point x="-9.86328" y="57" type="curve"/>
      <point x="9" y="57" type="line"/>
      <point x="-24" y="0" type="line"/>
      <point x="-57" y="57" type="line"/>
      <point x="-39.8622" y="57" type="line"/>
      <point x="-38.9242" y="302.207"/>
      <point x="-55.9432" y="564.249"/>
      <point x="6.567" y="802.738" type="curve" smooth="yes"/>
      <point x="56.03" y="991.449"/>
      <point x="158.882" y="1130.95"/>
      <point x="354.082" y="1245.23" type="curve"/>
    </contour>
    <contour>
      <point x="1254.66" y="903.35" type="curve" smooth="yes"/>
      <point x="1249.7" y="960.133"/>
      <point x="1200.95" y="1001.04"/>
      <point x="1145.16" y="996.159" type="curve" smooth="yes"/>
      <point x="1088.37" y="991.191"/>
      <point x="1047.47" y="942.44"/>
      <point x="1052.44" y="885.656" type="curve" smooth="yes"/>
      <point x="1057.32" y="829.869"/>
      <point x="1106.07" y="788.963"/>
      <point x="1162.85" y="793.93" type="curve" smooth="yes"/>
      <point x="1218.64" y="798.811"/>
      <point x="1259.55" y="847.563"/>
    </contour>
  </outline>
</glyph>
<glyph name="uni120F" format="2">
  <advance width="1446"/>
  <unicode hex="120F"/>
  <outline>
    <contour>
      <point x="1685" y="1561" type="line"/>
      <point x="1470" y="1494" type="line"/>
      <point x="1614" y="1321" type="line"/>
      <point x="1415" y="1426" type="line"/>
      <point x="1394" y="1202" type="line"/>
      <point x="1327" y="1417" type="line"/>
      <point x="1154" y="1273" type="line"/>
      <point x="1259" y="1472" type="line"/>
      <point x="1035" y="1493" type="line"/>
      <point x="1250" y="1560" type="line"/>
      <point x="1106" y="1733" type="line"/>
      <point x="1305" y="1628" type="line"/>
      <point x="1326" y="1852" type="line"/>
      <point x="1393" y="1637" type="line"/>
      <point x="1566" y="1781" type="line"/>
      <point x="1461" y="1582" type="line"/>
    </contour>
    <contour>
      <point x="1372" y="-76" type="curve"/>
      <point x="1366" y="-81"/>
      <point x="1358.01" y="-86.0338"/>
      <point x="1349" y="-90" type="curve" smooth="yes"/>
      <point x="1333.01" y="-97.0335"/>
      <point x="1307" y="-104"/>
      <point x="1272" y="-104" type="curve" smooth="yes"/>
      <point x="1148" y="-104"/>
      <point x="1039" y="-39"/>
      <point x="1034" y="104" type="curve"/>
      <point x="514" y="72" type="line"/>
      <point x="516" y="62"/>
      <point x="517" y="52"/>
      <point x="517" y="43" type="curve" smooth="yes"/>
      <point x="517" y="-76"/>
      <point x="388" y="-164"/>
      <point x="256" y="-164" type="curve" smooth="yes"/>
      <point x="237" y="-164"/>
      <point x="216.988" y="-163.184"/>
      <point x="201" y="-162" type="curve" smooth="yes"/>
      <point x="174" y="-160" type="line"/>
      <point x="182" y="-145"/>
      <point x="189.923" y="-126.976"/>
      <point x="197" y="-105" type="curve" smooth="yes"/>
      <point x="208.924" y="-67.9743"/>
      <point x="221" y="-13"/>
      <point x="221" y="63" type="curve" smooth="yes"/>
      <point x="221" y="78"/>
      <point x="218.398" y="94.1068"/>
      <point x="215" y="106" type="curve" smooth="yes"/>
      <point x="209" y="127" type="line"/>
      <point x="647" y="154" type="line"/>
      <point x="616" y="217"/>
      <point x="614" y="325"/>
      <point x="614" y="450" type="curve" smooth="yes"/>
      <point x="614" y="504" type="line" smooth="yes"/>
      <point x="614" y="684"/>
      <point x="609" y="875"/>
      <point x="526" y="991" type="curve"/>
      <point x="417" y="893"/>
      <point x="362" y="774.007"/>
      <point x="362" y="584" type="curve" smooth="yes"/>
      <point x="362" y="551"/>
      <point x="371" y="518"/>
      <point x="383" y="510" type="curve"/>
      <point x="383" y="483" type="line"/>
      <point x="223" y="457" type="line" smooth="yes"/>
      <point x="210.018" y="454.891"/>
      <point x="198" y="453"/>
      <point x="185" y="453" type="curve" smooth="yes"/>
      <point x="121" y="453"/>
      <point x="96" y="494"/>
      <point x="96" y="594" type="curve" smooth="yes"/>
      <point x="96" y="794"/>
      <point x="150" y="1018"/>
      <point x="418" y="1169" type="curve"/>
      <point x="334" y="1311" type="line"/>
      <point x="580" y="1395" type="line"/>
      <point x="688" y="1176" type="line"/>
      <point x="1014" y="941"/>
      <point x="805" y="256"/>
      <point x="950" y="170" type="curve"/>
      <point x="1346" y="195" type="line"/>
      <point x="1343" y="186"/>
      <point x="1340.84" y="175.028"/>
      <point x="1339" y="164" type="curve" smooth="yes"/>
      <point x="1335.84" y="145.026"/>
      <point x="1333" y="121"/>
      <point x="1333" y="94" type="curve" smooth="yes"/>
      <point x="1333" y="30"/>
      <point x="1341.28" y="-11.8877"/>
      <point x="1352" y="-39" type="curve" smooth="yes"/>
      <point x="1358.28" y="-54.8912"/>
      <point x="1365" y="-67"/>
    </contour>
  </outline>
</glyph>
<glyph name="uni1214" format="2">
  <advance width="1401"/>
  <unicode hex="1214"/>
  <outline>
    <component base="bar"/>
    <contour>
      <point x="445" y="1244" type="line"/>
      <point x="424" y="1244" type="line"/>
      <point x="424" y="1345" type="line"/>
      <point x="417" y="1339"/>
      <point x="403" y="1332"/>
      <point x="395" y="1330" type="curve"/>
      <point x="395" y="1349" type="line"/>
      <point x="404" y="1353"/>
      <point x="420" y="1366"/>
      <point x="424" y="1370" type="curve"/>
      <point x="445" y="1370" type="line"/>
    </contour>
    <contour>
      <point x="1301.18" y="171" type="curve" smooth="yes"/>
      <point x="1301.18" y="76"/>
      <point x="1224.18" y="0"/>
      <point x="1129.18" y="0" type="curve" smooth="yes"/>
      <point x="1034.18" y="0"/>
      <point x="946.929" y="75.994"/>
      <point x="947.179" y="171" type="curve" smooth="yes"/>
      <point x="948.179" y="550" type="line" smooth="yes"/>
      <point x="948.612" y="714.09"/>
      <point x="913.097" y="776.14"/>
      <point x="766.179" y="774" type="curve" smooth="yes"/>
      <point x="603.407" y="771.629" type="line"/>
      <point x="538.91" y="34.4402" type="line" smooth="yes"/>
      <point x="537.254" y="15.5127"/>
      <point x="519.911" y="0.971723"/>
      <point x="500.993" y="2.62372" type="curve"/>
      <point x="499.996" y="2.71072" type="line"/>
      <point x="481.078" y="4.36272"/>
      <point x="466.524" y="21.7007"/>
      <point x="468.18" y="40.6282" type="curve" smooth="yes"/>
      <point x="532.677" y="777.817" type="line"/>
      <point x="246.522" y="777.817"/>
      <point x="113.986" y="584.081"/>
      <point x="120.179" y="34.9195" type="curve" smooth="yes"/>
      <point x="120.705" y="-11.7065"/>
      <point x="50.7098" y="-12.4973"/>
      <point x="50.184" y="34.1299" type="curve" smooth="yes"/>
      <point x="43.899" y="591.37"/>
      <point x="198.596" y="847.551"/>
      <point x="538.778" y="847.551" type="curve"/>
      <point x="584.449" y="1369.56" type="line" smooth="yes"/>
      <point x="586.105" y="1388.49"/>
      <point x="603.448" y="1403.03"/>
      <point x="622.366" y="1401.38" type="curve"/>
      <point x="623.363" y="1401.29" type="line"/>
      <point x="642.282" y="1399.64"/>
      <point x="656.835" y="1382.3"/>
      <point x="655.179" y="1363.37" type="curve" smooth="yes"/>
      <point x="609.509" y="841.363" type="line"/>
      <point x="765.18" y="845" type="line" smooth="yes"/>
      <point x="943.214" y="849.16"/>
      <point x="1018.64" y="757.003"/>
      <point x="1018.18" y="613" type="curve" smooth="yes"/>
      <point x="1017.18" y="302" type="line"/>
      <point x="1047.18" y="328"/>
      <point x="1086.18" y="343"/>
      <point x="1129.18" y="343" type="curve" smooth="yes"/>
      <point x="1224.18" y="343"/>
      <point x="1301.18" y="266"/>
    </contour>
    <contour>
      <point x="395" y="1041" type="curve" smooth="yes"/>
      <point x="395" y="1012"/>
      <point x="368" y="992"/>
      <point x="328" y="966" type="curve"/>
      <point x="392" y="966" type="line"/>
      <point x="392" y="946" type="line"/>
      <point x="307" y="946" type="line"/>
      <point x="307" y="964" type="line"/>
      <point x="358" y="1005"/>
      <point x="373" y="1024"/>
      <point x="373" y="1041" type="curve" smooth="yes"/>
      <point x="373" y="1049"/>
      <point x="369" y="1061"/>
      <point x="354" y="1061" type="curve" smooth="yes"/>
      <point x="338" y="1061"/>
      <point x="332" y="1048"/>
      <point x="331" y="1037" type="curve"/>
      <point x="309" y="1037" type="line"/>
      <point x="311" y="1063"/>
      <point x="326" y="1076"/>
      <point x="354" y="1076" type="curve" smooth="yes"/>
      <point x="380" y="1076"/>
      <point x="395" y="1062"/>
    </contour>
    <contour>
      <point x="1393" y="175" type="curve" smooth="yes"/>
      <point x="1393" y="30.2912"/>
      <point x="1275.7" y="-87"/>
      <point x="1131" y="-87" type="curve" smooth="yes"/>
      <point x="993.384" y="-87"/>
      <point x="858.848" y="23.5198"/>
      <point x="859" y="175.09" type="curve"/>
      <point x="889" y="175.06" type="line"/>
      <point x="888.867" y="42.4663"/>
      <point x="1007.46" y="-57"/>
      <point x="1131" y="-57" type="curve" smooth="yes"/>
      <point x="1259.14" y="-57"/>
      <point x="1363" y="46.8635"/>
      <point x="1363" y="175" type="curve" smooth="yes"/>
      <point x="1363" y="296.736"/>
      <point x="1269.23" y="396.563"/>
      <point x="1149.99" y="406.227" type="curve"/>
      <point x="1150" y="388" type="line"/>
      <point x="1093" y="421" type="line"/>
      <point x="1150" y="454" type="line"/>
      <point x="1149.99" y="436.324" type="line"/>
      <point x="1285.82" y="426.59"/>
      <point x="1393" y="313.317"/>
    </contour>
    <contour>
      <point x="905" y="334" type="line"/>
      <point x="872" y="277" type="line"/>
      <point x="839" y="334" type="line"/>
      <point x="858.177" y="334" type="line"/>
      <point x="858.179" y="582" type="line" smooth="yes"/>
      <point x="858.18" y="634.9"/>
      <point x="854.541" y="656.258"/>
      <point x="838.565" y="668.054" type="curve" smooth="yes"/>
      <point x="808.035" y="690.595"/>
      <point x="711.579" y="684.363"/>
      <point x="672.666" y="683.373" type="curve"/>
      <point x="671.904" y="713.363" type="line"/>
      <point x="719.213" y="714.566"/>
      <point x="816.371" y="721.732"/>
      <point x="856.386" y="692.187" type="curve" smooth="yes"/>
      <point x="886.724" y="669.786"/>
      <point x="888.18" y="630.524"/>
      <point x="888.18" y="582" type="curve" smooth="yes"/>
      <point x="888.177" y="334" type="line"/>
    </contour>
    <contour>
      <point x="748" y="547" type="curve" smooth="yes"/>
      <point x="748" y="528"/>
      <point x="734" y="509"/>
      <point x="702" y="509" type="curve" smooth="yes"/>
      <point x="669" y="509"/>
      <point x="661" y="529"/>
      <point x="661" y="545" type="curve"/>
      <point x="683" y="545" type="line"/>
      <point x="683" y="533"/>
      <point x="691" y="525"/>
      <point x="703" y="525" type="curve" smooth="yes"/>
      <point x="715" y="525"/>
      <point x="726" y="533"/>
      <point x="726" y="547" type="curve" smooth="yes"/>
      <point x="726" y="552"/>
      <point x="722" y="569"/>
      <point x="704" y="569" type="curve" smooth="yes"/>
      <point x="693" y="569" type="line"/>
      <point x="693" y="583" type="line"/>
      <point x="721" y="583"/>
      <point x="723" y="595"/>
      <point x="723" y="605" type="curve" smooth="yes"/>
      <point x="723" y="614"/>
      <point x="719" y="624"/>
      <point x="706" y="624" type="curve" smooth="yes"/>
      <point x="692" y="624"/>
      <point x="686" y="618"/>
      <point x="685" y="606" type="curve"/>
      <point x="663" y="606" type="line"/>
      <point x="664" y="628"/>
      <point x="682" y="639"/>
      <point x="705" y="639" type="curve" smooth="yes"/>
      <point x="727" y="639"/>
      <point x="745" y="627"/>
      <point x="745" y="605" type="curve" smooth="yes"/>
      <point x="745" y="586"/>
      <point x="733" y="581"/>
      <point x="722" y="577" type="curve"/>
      <point x="733" y="574"/>
      <point x="748" y="565"/>
    </contour>
    <contour>
      <point x="519" y="1360" type="line"/>
      <point x="409.469" y="58.4091" type="line"/>
      <point x="425.359" y="57.0156" type="line"/>
      <point x="387.516" y="3.10831" type="line"/>
      <point x="359.609" y="62.7681" type="line"/>
      <point x="379.585" y="61.0141" type="line"/>
      <point x="489.114" y="1362.62" type="line"/>
    </contour>
    <contour>
      <point x="830" y="115" type="line"/>
      <point x="817" y="115" type="line"/>
      <point x="817" y="88" type="line"/>
      <point x="796" y="88" type="line"/>
      <point x="796" y="115" type="line"/>
      <point x="736" y="115" type="line"/>
      <point x="736" y="140" type="line"/>
      <point x="788" y="215" type="line"/>
      <point x="817" y="215" type="line"/>
      <point x="817" y="134" type="line"/>
      <point x="830" y="134" type="line"/>
    </contour>
    <contour>
      <point x="422.931" y="897.497" type="line"/>
      <point x="115.617" y="840.79"/>
      <point x="-10.9563" y="545.955"/>
      <point x="-9.99425" y="59.9983" type="curve"/>
      <point x="8" y="60" type="line"/>
      <point x="-25" y="3" type="line"/>
      <point x="-58" y="60" type="line"/>
      <point x="-39.9932" y="59.9982" type="line"/>
      <point x="-40.898" y="547.352"/>
      <point x="86.377" y="865.965"/>
      <point x="416.949" y="926.927" type="curve"/>
    </contour>
    <contour>
      <point x="1231.18" y="171" type="curve" smooth="yes"/>
      <point x="1231.18" y="228"/>
      <point x="1185.18" y="273"/>
      <point x="1129.18" y="273" type="curve" smooth="yes"/>
      <point x="1073.18" y="273"/>
      <point x="1027.18" y="228"/>
      <point x="1027.18" y="171" type="curve" smooth="yes"/>
      <point x="1027.18" y="115"/>
      <point x="1073.18" y="70"/>
      <point x="1129.18" y="70" type="curve" smooth="yes"/>
      <point x="1185.18" y="70"/>
      <point x="1231.18" y="115"/>
    </contour>
    <contour>
      <point x="796" y="134" type="line"/>
      <point x="796" y="199" type="line"/>
      <point x="751" y="134" type="line"/>
    </contour>
  </outline>
</glyph>
<glyph name="uni1215" format="2">
  <advance width="1118"/>
  <unicode hex="1215"/>
  <outline>
    <component base="bar"/>
    <component base="bar"/>
    <contour>
      <point x="774" y="1463" type="line"/>
      <point x="761" y="1463" type="line"/>
      <point x="761" y="1436" type="line"/>
      <point x="740" y="1436" type="line"/>
      <point x="740" y="1463" type="line"/>
      <point x="680" y="1463" type="line"/>
      <point x="680" y="1488" type="line"/>
      <point x="732" y="1563" type="line"/>
      <point x="761" y="1563" type="line"/>
      <point x="761" y="1482" type="line"/>
      <point x="774" y="1482" type="line"/>
    </contour>
    <contour>
      <point x="648" y="1520" type="line"/>
      <point x="648" y="1490" type="line"/>
      <point x="258.011" y="1490.01" type="line"/>
      <point x="258.008" y="1472.25" type="line"/>
      <point x="201.008" y="1505.25" type="line"/>
      <point x="258.008" y="1538.25" type="line"/>
      <point x="258.011" y="1520.01" type="line"/>
    </contour>
    <contour>
      <point x="448" y="1151" type="line"/>
      <point x="427" y="1151" type="line"/>
      <point x="427" y="1252" type="line"/>
      <point x="420" y="1246"/>
      <point x="406" y="1239"/>
      <point x="398" y="1237" type="curve"/>
      <point x="398" y="1256" type="line"/>
      <point x="407" y="1260"/>
      <point x="423" y="1273"/>
      <point x="427" y="1277" type="curve"/>
      <point x="448" y="1277" type="line"/>
    </contour>
    <contour>
      <point x="395" y="1041" type="curve" smooth="yes"/>
      <point x="395" y="1012"/>
      <point x="368" y="992"/>
      <point x="328" y="966" type="curve"/>
      <point x="392" y="966" type="line"/>
      <point x="392" y="946" type="line"/>
      <point x="307" y="946" type="line"/>
      <point x="307" y="964" type="line"/>
      <point x="358" y="1005"/>
      <point x="373" y="1024"/>
      <point x="373" y="1041" type="curve" smooth="yes"/>
      <point x="373" y="1049"/>
      <point x="369" y="1061"/>
      <point x="354" y="1061" type="curve" smooth="yes"/>
      <point x="338" y="1061"/>
      <point x="332" y="1048"/>
      <point x="331" y="1037" type="curve"/>
      <point x="309" y="1037" type="line"/>
      <point x="311" y="1063"/>
      <point x="326" y="1076"/>
      <point x="354" y="1076" type="curve" smooth="yes"/>
      <point x="380" y="1076"/>
      <point x="395" y="1062"/>
    </contour>
    <contour>
      <point x="748" y="547" type="curve" smooth="yes"/>
      <point x="748" y="528"/>
      <point x="734" y="509"/>
      <point x="702" y="509" type="curve" smooth="yes"/>
      <point x="669" y="509"/>
      <point x="661" y="529"/>
      <point x="661" y="545" type="curve"/>
      <point x="683" y="545" type="line"/>
      <point x="683" y="533"/>
      <point x="691" y="525"/>
      <point x="703" y="525" type="curve" smooth="yes"/>
      <point x="715" y="525"/>
      <point x="726" y="533"/>
      <point x="726" y="547" type="curve" smooth="yes"/>
      <point x="726" y="552"/>
      <point x="722" y="569"/>
      <point x="704" y="569" type="curve" smooth="yes"/>
      <point x="693" y="569" type="line"/>
      <point x="693" y="583" type="line"/>
      <point x="721" y="583"/>
      <point x="723" y="595"/>
      <point x="723" y="605" type="curve" smooth="yes"/>
      <point x="723" y="614"/>
      <point x="719" y="624"/>
      <point x="706" y="624" type="curve" smooth="yes"/>
      <point x="692" y="624"/>
      <point x="686" y="618"/>
      <point x="685" y="606" type="curve"/>
      <point x="663" y="606" type="line"/>
      <point x="664" y="628"/>
      <point x="682" y="639"/>
      <point x="705" y="639" type="curve" smooth="yes"/>
      <point x="727" y="639"/>
      <point x="745" y="627"/>
      <point x="745" y="605" type="curve" smooth="yes"/>
      <point x="745" y="586"/>
      <point x="733" y="581"/>
      <point x="722" y="577" type="curve"/>
      <point x="733" y="574"/>
      <point x="748" y="565"/>
    </contour>
    <contour>
      <point x="1018.18" y="35" type="line" smooth="yes"/>
      <point x="1018.18" y="16"/>
      <point x="1002.18" y="0"/>
      <point x="983.18" y="0" type="curve" smooth="yes"/>
      <point x="963.18" y="0"/>
      <point x="948.18" y="16"/>
      <point x="948.18" y="35" type="curve" smooth="yes"/>
      <point x="948.18" y="582" type="line" smooth="yes"/>
      <point x="948.18" y="746.007"/>
      <point x="879.333" y="778.681"/>
      <point x="696.18" y="774" type="curve" smooth="yes"/>
      <point x="603.407" y="771.629" type="line"/>
      <point x="538.91" y="34.4402" type="line" smooth="yes"/>
      <point x="537.254" y="15.5127"/>
      <point x="519.909" y="0.971974"/>
      <point x="500.993" y="2.62377" type="curve"/>
      <point x="499.997" y="2.71077" type="line"/>
      <point x="481.08" y="4.36247"/>
      <point x="466.524" y="21.7007"/>
      <point x="468.18" y="40.6282" type="curve" smooth="yes"/>
      <point x="532.677" y="777.817" type="line"/>
      <point x="246.522" y="777.817"/>
      <point x="113.986" y="584.084"/>
      <point x="120.18" y="34.9195" type="curve" smooth="yes"/>
      <point x="120.705" y="-11.7028"/>
      <point x="50.7099" y="-12.4936"/>
      <point x="50.1841" y="34.1299" type="curve" smooth="yes"/>
      <point x="43.8993" y="591.373"/>
      <point x="198.596" y="847.551"/>
      <point x="538.778" y="847.551" type="curve"/>
      <point x="581.399" y="1334.69" type="line"/>
      <point x="223.605" y="1334" type="line" smooth="yes"/>
      <point x="204.605" y="1333.96"/>
      <point x="188.605" y="1350"/>
      <point x="188.605" y="1369" type="curve" smooth="yes"/>
      <point x="188.605" y="1389"/>
      <point x="204.604" y="1404.12"/>
      <point x="223.605" y="1404" type="curve" smooth="yes"/>
      <point x="622.367" y="1401.38" type="line"/>
      <point x="623.363" y="1401.29" type="line"/>
      <point x="642.28" y="1399.64"/>
      <point x="656.835" y="1382.3"/>
      <point x="655.179" y="1363.37" type="curve" smooth="yes"/>
      <point x="609.509" y="841.363" type="line"/>
      <point x="694.18" y="845" type="line" smooth="yes"/>
      <point x="873.025" y="852.683"/>
      <point x="1018.18" y="819.006"/>
      <point x="1018.18" y="613" type="curve" smooth="yes"/>
    </contour>
    <contour>
      <point x="905" y="57" type="line"/>
      <point x="872" y="0" type="line"/>
      <point x="839" y="57" type="line"/>
      <point x="858.177" y="57" type="line"/>
      <point x="858.179" y="582" type="line" smooth="yes"/>
      <point x="858.179" y="634.901"/>
      <point x="854.54" y="656.258"/>
      <point x="838.565" y="668.054" type="curve" smooth="yes"/>
      <point x="808.037" y="690.594"/>
      <point x="711.579" y="684.363"/>
      <point x="672.666" y="683.373" type="curve"/>
      <point x="671.903" y="713.363" type="line"/>
      <point x="719.213" y="714.566"/>
      <point x="816.371" y="721.732"/>
      <point x="856.386" y="692.187" type="curve" smooth="yes"/>
      <point x="886.725" y="669.785"/>
      <point x="888.18" y="630.524"/>
      <point x="888.179" y="582" type="curve" smooth="yes"/>
      <point x="888.177" y="57" type="line"/>
    </contour>
    <contour>
      <point x="513" y="1264" type="line"/>
      <point x="409.469" y="58.4091" type="line"/>
      <point x="425.359" y="57.0156" type="line"/>
      <point x="387.516" y="3.10831" type="line"/>
      <point x="359.609" y="62.7681" type="line"/>
      <point x="379.585" y="61.0141" type="line"/>
      <point x="483.114" y="1266.62" type="line"/>
    </contour>
    <contour>
      <point x="422.931" y="897.497" type="line"/>
      <point x="115.617" y="840.79"/>
      <point x="-10.9563" y="545.955"/>
      <point x="-9.99425" y="59.9983" type="curve"/>
      <point x="8" y="60" type="line"/>
      <point x="-25" y="3" type="line"/>
      <point x="-58" y="60" type="line"/>
      <point x="-39.9932" y="59.9982" type="line"/>
      <point x="-40.898" y="547.352"/>
      <point x="86.377" y="865.965"/>
      <point x="416.949" y="926.927" type="curve"/>
    </contour>
    <contour>
      <point x="740" y="1482" type="line"/>
      <point x="740" y="1547" type="line"/>
      <point x="695" y="1482" type="line"/>
    </contour>
  </outline>
</glyph>
<glyph name="uni1216" format="2">
  <advance width="1133"/>
  <unicode hex="1216"/>
  <outline>
    <component base="bar"/>
    <contour>
      <point x="445" y="1244" type="line"/>
      <point x="424" y="1244" type="line"/>
      <point x="424" y="1345" type="line"/>
      <point x="417" y="1339"/>
      <point x="403" y="1332"/>
      <point x="395" y="1330" type="curve"/>
      <point x="395" y="1349" type="line"/>
      <point x="404" y="1353"/>
      <point x="420" y="1366"/>
      <point x="424" y="1370" type="curve"/>
      <point x="445" y="1370" type="line"/>
    </contour>
    <contour>
      <point x="395" y="1041" type="curve" smooth="yes"/>
      <point x="395" y="1012"/>
      <point x="368" y="992"/>
      <point x="328" y="966" type="curve"/>
      <point x="392" y="966" type="line"/>
      <point x="392" y="946" type="line"/>
      <point x="307" y="946" type="line"/>
      <point x="307" y="964" type="line"/>
      <point x="358" y="1005"/>
      <point x="373" y="1024"/>
      <point x="373" y="1041" type="curve" smooth="yes"/>
      <point x="373" y="1049"/>
      <point x="369" y="1061"/>
      <point x="354" y="1061" type="curve" smooth="yes"/>
      <point x="338" y="1061"/>
      <point x="332" y="1048"/>
      <point x="331" y="1037" type="curve"/>
      <point x="309" y="1037" type="line"/>
      <point x="311" y="1063"/>
      <point x="326" y="1076"/>
      <point x="354" y="1076" type="curve" smooth="yes"/>
      <point x="380" y="1076"/>
      <point x="395" y="1062"/>
    </contour>
    <contour>
      <point x="905" y="394" type="line"/>
      <point x="872" y="337" type="line"/>
      <point x="839" y="394" type="line"/>
      <point x="858.177" y="394" type="line"/>
      <point x="858.179" y="582" type="line" smooth="yes"/>
      <point x="858.18" y="634.9"/>
      <point x="854.54" y="656.259"/>
      <point x="838.564" y="668.054" type="curve" smooth="yes"/>
      <point x="808.038" y="690.593"/>
      <point x="711.579" y="684.363"/>
      <point x="672.666" y="683.373" type="curve"/>
      <point x="671.904" y="713.363" type="line"/>
      <point x="719.213" y="714.566"/>
      <point x="816.37" y="721.733"/>
      <point x="856.386" y="692.187" type="curve" smooth="yes"/>
      <point x="886.727" y="669.784"/>
      <point x="888.18" y="630.524"/>
      <point x="888.18" y="582" type="curve" smooth="yes"/>
      <point x="888.177" y="394" type="line"/>
    </contour>
    <contour>
      <point x="519" y="1360" type="line"/>
      <point x="438.953" y="392.301" type="line"/>
      <point x="454.843" y="390.907" type="line"/>
      <point x="417" y="337" type="line"/>
      <point x="389.093" y="396.66" type="line"/>
      <point x="409.069" y="394.906" type="line"/>
      <point x="489.114" y="1362.61" type="line"/>
    </contour>
    <contour>
      <point x="748" y="547" type="curve" smooth="yes"/>
      <point x="748" y="528"/>
      <point x="734" y="509"/>
      <point x="702" y="509" type="curve" smooth="yes"/>
      <point x="669" y="509"/>
      <point x="661" y="529"/>
      <point x="661" y="545" type="curve"/>
      <point x="683" y="545" type="line"/>
      <point x="683" y="533"/>
      <point x="691" y="525"/>
      <point x="703" y="525" type="curve" smooth="yes"/>
      <point x="715" y="525"/>
      <point x="726" y="533"/>
      <point x="726" y="547" type="curve" smooth="yes"/>
      <point x="726" y="552"/>
      <point x="722" y="569"/>
      <point x="704" y="569" type="curve" smooth="yes"/>
      <point x="693" y="569" type="line"/>
      <point x="693" y="583" type="line"/>
      <point x="721" y="583"/>
      <point x="723" y="595"/>
      <point x="723" y="605" type="curve" smooth="yes"/>
      <point x="723" y="614"/>
      <point x="719" y="624"/>
      <point x="706" y="624" type="curve" smooth="yes"/>
      <point x="692" y="624"/>
      <point x="686" y="618"/>
      <point x="685" y="606" type="curve"/>
      <point x="663" y="606" type="line"/>
      <point x="664" y="628"/>
      <point x="682" y="639"/>
      <point x="705" y="639" type="curve" smooth="yes"/>
      <point x="727" y="639"/>
      <point x="745" y="627"/>
      <point x="745" y="605" type="curve" smooth="yes"/>
      <point x="745" y="586"/>
      <point x="733" y="581"/>
      <point x="722" y="577" type="curve"/>
      <point x="733" y="574"/>
      <point x="748" y="565"/>
    </contour>
    <contour>
      <point x="1033.43" y="385" type="line" smooth="yes"/>
      <point x="1033.43" y="366"/>
      <point x="1017.43" y="350"/>
      <point x="998.432" y="350" type="curve" smooth="yes"/>
      <point x="978.432" y="350"/>
      <point x="963.432" y="366"/>
      <point x="963.432" y="385" type="curve" smooth="yes"/>
      <point x="963.432" y="582" type="line" smooth="yes"/>
      <point x="963.432" y="746.007"/>
      <point x="894.436" y="776.891"/>
      <point x="711.432" y="774" type="curve" smooth="yes"/>
      <point x="603.407" y="772.293" type="line"/>
      <point x="569.416" y="383.775" type="line" smooth="yes"/>
      <point x="567.76" y="364.847"/>
      <point x="550.417" y="350.307"/>
      <point x="531.498" y="351.959" type="curve"/>
      <point x="530.502" y="352.046" type="line"/>
      <point x="511.583" y="353.698"/>
      <point x="497.029" y="371.035"/>
      <point x="498.685" y="389.963" type="curve" smooth="yes"/>
      <point x="532.677" y="778.481" type="line"/>
      <point x="246.522" y="778.481"/>
      <point x="113.986" y="584.746"/>
      <point x="120.179" y="35.5843" type="curve" smooth="yes"/>
      <point x="120.705" y="-11.0417"/>
      <point x="50.7098" y="-11.8324"/>
      <point x="50.184" y="34.7948" type="curve" smooth="yes"/>
      <point x="43.899" y="592.035"/>
      <point x="198.596" y="848.216"/>
      <point x="538.778" y="848.216" type="curve"/>
      <point x="584.449" y="1370.22" type="line" smooth="yes"/>
      <point x="586.105" y="1389.15"/>
      <point x="603.448" y="1403.69"/>
      <point x="622.366" y="1402.04" type="curve"/>
      <point x="623.363" y="1401.95" type="line"/>
      <point x="642.282" y="1400.3"/>
      <point x="656.835" y="1382.97"/>
      <point x="655.179" y="1364.04" type="curve" smooth="yes"/>
      <point x="609.509" y="842.028" type="line"/>
      <point x="709.432" y="845" type="line" smooth="yes"/>
      <point x="889.367" y="850.352"/>
      <point x="1033.43" y="819"/>
      <point x="1033.43" y="613" type="curve" smooth="yes"/>
    </contour>
    <contour>
      <point x="422.931" y="897.497" type="line"/>
      <point x="115.617" y="840.79"/>
      <point x="-10.9563" y="545.955"/>
      <point x="-9.99425" y="59.9983" type="curve"/>
      <point x="8" y="60" type="line"/>
      <point x="-25" y="3" type="line"/>
      <point x="-58" y="60" type="line"/>
      <point x="-39.9932" y="59.9982" type="line"/>
      <point x="-40.898" y="547.352"/>
      <point x="86.377" y="865.965"/>
      <point x="416.949" y="926.927" type="curve"/>
    </contour>
  </outline>
</glyph>
<glyph name="uni1218" format="2">
  <advance width="1321"/>
  <unicode hex="1218"/>
  <outline>
    <component base="bar"/>
    <contour>
      <point x="912" y="1322" type="curve" smooth="yes"/>
      <point x="912" y="1293"/>
      <point x="885" y="1273"/>
      <point x="845" y="1247" type="curve"/>
      <point x="909" y="1247" type="line"/>
      <point x="909" y="1227" type="line"/>
      <point x="824" y="1227" type="line"/>
      <point x="824" y="1245" type="line"/>
      <point x="875" y="1286"/>
      <point x="890" y="1305"/>
      <point x="890" y="1322" type="curve" smooth="yes"/>
      <point x="890" y="1330"/>
      <point x="886" y="1342"/>
      <point x="871" y="1342" type="curve" smooth="yes"/>
      <point x="855" y="1342"/>
      <point x="849" y="1329"/>
      <point x="848" y="1318" type="curve"/>
      <point x="826" y="1318" type="line"/>
      <point x="828" y="1344"/>
      <point x="843" y="1357"/>
      <point x="871" y="1357" type="curve" smooth="yes"/>
      <point x="897" y="1357"/>
      <point x="912" y="1343"/>
    </contour>
    <contour>
      <point x="628" y="1224" type="line"/>
      <point x="607" y="1224" type="line"/>
      <point x="607" y="1325" type="line"/>
      <point x="600" y="1319"/>
      <point x="586" y="1312"/>
      <point x="578" y="1310" type="curve"/>
      <point x="578" y="1329" type="line"/>
      <point x="587" y="1333"/>
      <point x="603" y="1346"/>
      <point x="607" y="1350" type="curve"/>
      <point x="628" y="1350" type="line"/>
    </contour>
    <contour>
      <point x="1310.98" y="858.617" type="curve" smooth="yes"/>
      <point x="1310.98" y="653.032"/>
      <point x="1237.74" y="364.485"/>
      <point x="978.025" y="348.768" type="curve" smooth="yes"/>
      <point x="843.122" y="340.604"/>
      <point x="678.632" y="369.799"/>
      <point x="664.011" y="534.004" type="curve"/>
      <point x="643" y="534" type="line"/>
      <point x="676" y="591" type="line"/>
      <point x="709" y="534" type="line"/>
      <point x="694.174" y="534.004" type="line"/>
      <point x="709.145" y="390.991"/>
      <point x="859.365" y="371.642"/>
      <point x="976.213" y="378.713" type="curve" smooth="yes"/>
      <point x="1207" y="392.679"/>
      <point x="1280.98" y="651.251"/>
      <point x="1280.98" y="858.617" type="curve" smooth="yes"/>
      <point x="1280.98" y="1078.53"/>
      <point x="1159.98" y="1164.77"/>
      <point x="966.122" y="1168.92" type="curve" smooth="yes"/>
      <point x="919.709" y="1169.92"/>
      <point x="812.814" y="1166.9"/>
      <point x="768.019" y="1165.77" type="curve"/>
      <point x="767.261" y="1195.76" type="line"/>
      <point x="864.115" y="1198.21"/>
      <point x="1023.23" y="1207.8"/>
      <point x="1116.82" y="1175.28" type="curve" smooth="yes"/>
      <point x="1236.37" y="1133.75"/>
      <point x="1310.98" y="1032.09"/>
    </contour>
    <contour>
      <point x="1220.98" y="858.617" type="curve" smooth="yes"/>
      <point x="1220.98" y="648.645"/>
      <point x="1146.17" y="449.111"/>
      <point x="972.587" y="438.603" type="curve" smooth="yes"/>
      <point x="897.434" y="434.054"/>
      <point x="755.321" y="429.933"/>
      <point x="752.989" y="554.51" type="curve" smooth="yes"/>
      <point x="743.99" y="1035.25" type="line"/>
      <point x="653.9" y="1028.27" type="line"/>
      <point x="530.983" y="474" type="line" smooth="yes"/>
      <point x="519.988" y="424.424"/>
      <point x="416.922" y="390.502"/>
      <point x="321.997" y="391.97" type="curve" smooth="yes"/>
      <point x="193.217" y="393.961"/>
      <point x="50" y="452.935"/>
      <point x="50" y="604.158" type="curve" smooth="yes"/>
      <point x="50" y="1081.85"/>
      <point x="506.865" y="1097.63"/>
      <point x="829.535" y="1105.79" type="curve" smooth="yes"/>
      <point x="994.941" y="1109.97"/>
      <point x="1220.98" y="1142.61"/>
    </contour>
    <contour>
      <point x="669.005" y="1159.07" type="line"/>
      <point x="336.802" y="1136.97"/>
      <point x="-10" y="1048.01"/>
      <point x="-10" y="604.158" type="curve" smooth="yes"/>
      <point x="-10" y="272.567"/>
      <point x="515.943" y="275.491"/>
      <point x="584.581" y="445.038" type="curve"/>
      <point x="568.513" y="449.318" type="line"/>
      <point x="615.182" y="495.987" type="line"/>
      <point x="632.153" y="432.347" type="line"/>
      <point x="613.745" y="437.256" type="line"/>
      <point x="537.668" y="233.314"/>
      <point x="-40" y="237.526"/>
      <point x="-40" y="604.158" type="curve" smooth="yes"/>
      <point x="-40" y="1075.9"/>
      <point x="335.011" y="1166.92"/>
      <point x="667.014" y="1189.01" type="curve"/>
    </contour>
    <contour>
      <point x="1150.98" y="858.617" type="curve" smooth="yes"/>
      <point x="1150.98" y="1082.14"/>
      <point x="967.651" y="1027.99"/>
      <point x="816.432" y="1040.63" type="curve"/>
      <point x="821.98" y="542.617" type="line" smooth="yes"/>
      <point x="822.497" y="496.147"/>
      <point x="950.128" y="507.372"/>
      <point x="968.354" y="508.475" type="curve" smooth="yes"/>
      <point x="1107.98" y="516.925"/>
      <point x="1150.98" y="688.629"/>
    </contour>
    <contour>
      <point x="579.683" y="1025.34" type="line"/>
      <point x="308.42" y="1008.93"/>
      <point x="119.937" y="889.397"/>
      <point x="119.937" y="602.636" type="curve" smooth="yes"/>
      <point x="119.937" y="517.573"/>
      <point x="204.772" y="458.787"/>
      <point x="327.638" y="462.589" type="curve" smooth="yes"/>
      <point x="376.613" y="464.104"/>
      <point x="458.401" y="470.737"/>
      <point x="467.997" y="514.617" type="curve" smooth="yes"/>
    </contour>
  </outline>
</glyph>
<glyph name="uni121A" format="2">
  <advance width="1662"/>
  <unicode hex="121A"/>
  <outline>
    <component base="bar"/>
    <contour>
      <point x="906.986" y="1570.99" type="curve" smooth="yes"/>
      <point x="906.986" y="1541.99"/>
      <point x="879.986" y="1521.99"/>
      <point x="839.986" y="1495.99" type="curve"/>
      <point x="903.986" y="1495.99" type="line"/>
      <point x="903.986" y="1475.99" type="line"/>
      <point x="818.986" y="1475.99" type="line"/>
      <point x="818.986" y="1493.99" type="line"/>
      <point x="869.986" y="1534.99"/>
      <point x="884.986" y="1553.99"/>
      <point x="884.986" y="1570.99" type="curve" smooth="yes"/>
      <point x="884.986" y="1578.99"/>
      <point x="880.986" y="1590.99"/>
      <point x="865.986" y="1590.99" type="curve" smooth="yes"/>
      <point x="849.986" y="1590.99"/>
      <point x="843.986" y="1577.99"/>
      <point x="842.986" y="1566.99" type="curve"/>
      <point x="820.986" y="1566.99" type="line"/>
      <point x="822.986" y="1592.99"/>
      <point x="837.986" y="1605.99"/>
      <point x="865.986" y="1605.99" type="curve" smooth="yes"/>
      <point x="891.986" y="1605.99"/>
      <point x="906.986" y="1591.99"/>
    </contour>
    <contour>
      <point x="622.986" y="1472.99" type="line"/>
      <point x="601.986" y="1472.99" type="line"/>
      <point x="601.986" y="1573.99" type="line"/>
      <point x="594.986" y="1567.99"/>
      <point x="580.986" y="1560.99"/>
      <point x="572.986" y="1558.99" type="curve"/>
      <point x="572.986" y="1577.99" type="line"/>
      <point x="581.986" y="1581.99"/>
      <point x="597.986" y="1594.99"/>
      <point x="601.986" y="1598.99" type="curve"/>
      <point x="622.986" y="1598.99" type="line"/>
    </contour>
    <contour>
      <point x="1305.97" y="1107.61" type="curve" smooth="yes"/>
      <point x="1305.97" y="901.986"/>
      <point x="1232.75" y="613.477"/>
      <point x="973.012" y="597.759" type="curve" smooth="yes"/>
      <point x="838.114" y="589.596"/>
      <point x="673.618" y="618.79"/>
      <point x="658.997" y="782.995" type="curve"/>
      <point x="637.986" y="782.992" type="line"/>
      <point x="670.986" y="839.992" type="line"/>
      <point x="703.986" y="782.992" type="line"/>
      <point x="689.16" y="782.995" type="line"/>
      <point x="704.131" y="639.982"/>
      <point x="854.351" y="620.634"/>
      <point x="971.199" y="627.704" type="curve" smooth="yes"/>
      <point x="1201.99" y="641.67"/>
      <point x="1275.97" y="900.244"/>
      <point x="1275.97" y="1107.61" type="curve" smooth="yes"/>
      <point x="1275.97" y="1327.52"/>
      <point x="1154.89" y="1413.76"/>
      <point x="961.108" y="1417.91" type="curve" smooth="yes"/>
      <point x="914.713" y="1418.91"/>
      <point x="797.553" y="1415.89"/>
      <point x="752.757" y="1414.76" type="curve"/>
      <point x="752" y="1444.75" type="line"/>
      <point x="848.854" y="1447.2"/>
      <point x="1018.21" y="1456.79"/>
      <point x="1111.81" y="1424.27" type="curve" smooth="yes"/>
      <point x="1231.35" y="1382.74"/>
      <point x="1305.97" y="1281.11"/>
    </contour>
    <contour>
      <point x="1561.66" y="35.9512" type="curve" smooth="yes"/>
      <point x="1561.66" y="16.9512"/>
      <point x="1545.74" y="0.950748"/>
      <point x="1526.66" y="0.950748" type="curve" smooth="yes"/>
      <point x="1092.66" y="0.950748" type="line" smooth="yes"/>
      <point x="1072.55" y="0.950748"/>
      <point x="1055.88" y="17.0055"/>
      <point x="1057.66" y="35.951" type="curve" smooth="yes"/>
      <point x="1126.92" y="773.292" type="line"/>
      <point x="1088.41" y="725.986"/>
      <point x="1037.4" y="695.735"/>
      <point x="972.588" y="691.813" type="curve" smooth="yes"/>
      <point x="897.41" y="687.264"/>
      <point x="755.32" y="683.231"/>
      <point x="752.989" y="807.72" type="curve" smooth="yes"/>
      <point x="743.99" y="1288.46" type="line"/>
      <point x="653.9" y="1281.48" type="line"/>
      <point x="530.983" y="727.21" type="line" smooth="yes"/>
      <point x="519.988" y="677.634"/>
      <point x="416.921" y="643.713"/>
      <point x="321.997" y="645.18" type="curve" smooth="yes"/>
      <point x="193.218" y="647.17"/>
      <point x="50" y="706.152"/>
      <point x="50" y="857.368" type="curve"/>
      <point x="50" y="1335.04"/>
      <point x="506.87" y="1350.84"/>
      <point x="829.535" y="1359" type="curve"/>
      <point x="994.413" y="1366.37"/>
      <point x="1220.35" y="1395.65"/>
      <point x="1221.47" y="1113.96" type="curve"/>
      <point x="1221.47" y="1113.96"/>
      <point x="1159.59" y="418.289"/>
      <point x="1128.66" y="70.9518" type="curve"/>
      <point x="1526.66" y="70.9515" type="line" smooth="yes"/>
      <point x="1545.66" y="70.9515"/>
      <point x="1561.66" y="55.9512"/>
    </contour>
    <contour>
      <point x="965" y="468" type="curve" smooth="yes"/>
      <point x="965" y="449"/>
      <point x="951" y="430"/>
      <point x="919" y="430" type="curve" smooth="yes"/>
      <point x="886" y="430"/>
      <point x="878" y="450"/>
      <point x="878" y="466" type="curve"/>
      <point x="900" y="466" type="line"/>
      <point x="900" y="454"/>
      <point x="908" y="446"/>
      <point x="920" y="446" type="curve" smooth="yes"/>
      <point x="932" y="446"/>
      <point x="943" y="454"/>
      <point x="943" y="468" type="curve" smooth="yes"/>
      <point x="943" y="473"/>
      <point x="939" y="490"/>
      <point x="921" y="490" type="curve" smooth="yes"/>
      <point x="910" y="490" type="line"/>
      <point x="910" y="504" type="line"/>
      <point x="938" y="504"/>
      <point x="940" y="516"/>
      <point x="940" y="526" type="curve" smooth="yes"/>
      <point x="940" y="535"/>
      <point x="936" y="545"/>
      <point x="923" y="545" type="curve" smooth="yes"/>
      <point x="909" y="545"/>
      <point x="903" y="539"/>
      <point x="902" y="527" type="curve"/>
      <point x="880" y="527" type="line"/>
      <point x="881" y="549"/>
      <point x="899" y="560"/>
      <point x="922" y="560" type="curve" smooth="yes"/>
      <point x="944" y="560"/>
      <point x="962" y="548"/>
      <point x="962" y="526" type="curve" smooth="yes"/>
      <point x="962" y="507"/>
      <point x="950" y="502"/>
      <point x="939" y="498" type="curve"/>
      <point x="950" y="495"/>
      <point x="965" y="486"/>
    </contour>
    <contour>
      <point x="663.992" y="1408.07" type="line"/>
      <point x="331.788" y="1385.96"/>
      <point x="-15.0137" y="1297"/>
      <point x="-15.0137" y="853.15" type="curve" smooth="yes"/>
      <point x="-15.0137" y="521.56"/>
      <point x="510.93" y="524.483"/>
      <point x="579.567" y="694.03" type="curve"/>
      <point x="563.499" y="698.31" type="line"/>
      <point x="610.168" y="744.979" type="line"/>
      <point x="627.139" y="681.339" type="line"/>
      <point x="608.731" y="686.248" type="line"/>
      <point x="532.655" y="482.306"/>
      <point x="-45.0138" y="486.47"/>
      <point x="-45.0138" y="853.15" type="curve" smooth="yes"/>
      <point x="-45.0138" y="1324.89"/>
      <point x="329.997" y="1415.91"/>
      <point x="662" y="1438" type="curve"/>
    </contour>
    <contour>
      <point x="1039" y="567" type="line"/>
      <point x="995.822" y="76.3405" type="line"/>
      <point x="1010.97" y="75.8135" type="line"/>
      <point x="976" y="20" type="line"/>
      <point x="945.008" y="78.1145" type="line"/>
      <point x="965.812" y="77.3832" type="line"/>
      <point x="1009.09" y="569.267" type="line"/>
    </contour>
    <contour>
      <point x="1520" y="-88" type="line"/>
      <point x="1463" y="-121" type="line"/>
      <point x="1463" y="-102.762" type="line"/>
      <point x="1160.01" y="-102.754" type="line"/>
      <point x="1160.01" y="-72.7539" type="line"/>
      <point x="1463" y="-72.7626" type="line"/>
      <point x="1463" y="-55" type="line"/>
    </contour>
    <contour>
      <point x="1118" y="-173" type="line"/>
      <point x="1105" y="-173" type="line"/>
      <point x="1105" y="-200" type="line"/>
      <point x="1084" y="-200" type="line"/>
      <point x="1084" y="-173" type="line"/>
      <point x="1024" y="-173" type="line"/>
      <point x="1024" y="-148" type="line"/>
      <point x="1076" y="-73" type="line"/>
      <point x="1105" y="-73" type="line"/>
      <point x="1105" y="-154" type="line"/>
      <point x="1118" y="-154" type="line"/>
    </contour>
    <contour>
      <point x="1150.98" y="1111.83" type="curve" smooth="yes"/>
      <point x="1150.98" y="1335.35"/>
      <point x="967.651" y="1281.2"/>
      <point x="816.432" y="1293.84" type="curve"/>
      <point x="821.98" y="795.827" type="line" smooth="yes"/>
      <point x="822.497" y="749.357"/>
      <point x="950.128" y="760.583"/>
      <point x="968.354" y="761.685" type="curve" smooth="yes"/>
      <point x="1124.42" y="771.128"/>
      <point x="1150.98" y="987.259"/>
    </contour>
    <contour>
      <point x="579.683" y="1278.55" type="line"/>
      <point x="308.42" y="1262.14"/>
      <point x="119.937" y="1142.6"/>
      <point x="119.937" y="855.846" type="curve"/>
      <point x="119.937" y="770.79"/>
      <point x="204.79" y="712"/>
      <point x="327.638" y="715.799" type="curve" smooth="yes"/>
      <point x="376.58" y="717.313"/>
      <point x="458.401" y="723.948"/>
      <point x="467.997" y="767.828" type="curve" smooth="yes"/>
    </contour>
    <contour>
      <point x="1084" y="-154" type="line"/>
      <point x="1084" y="-89" type="line"/>
      <point x="1039" y="-154" type="line"/>
    </contour>
  </outline>
</glyph>
<glyph name="uni1220" format="2">
  <advance width="1362"/>
  <unicode hex="1220"/>
  <outline>
    <component base="bar"/>
    <contour>
      <point x="909" y="1228" type="curve" smooth="yes"/>
      <point x="909" y="1199"/>
      <point x="882" y="1179"/>
      <point x="842" y="1153" type="curve"/>
      <point x="906" y="1153" type="line"/>
      <point x="906" y="1133" type="line"/>
      <point x="821" y="1133" type="line"/>
      <point x="821" y="1151" type="line"/>
      <point x="872" y="1192"/>
      <point x="887" y="1211"/>
      <point x="887" y="1228" type="curve" smooth="yes"/>
      <point x="887" y="1236"/>
      <point x="883" y="1248"/>
      <point x="868" y="1248" type="curve" smooth="yes"/>
      <point x="852" y="1248"/>
      <point x="846" y="1235"/>
      <point x="845" y="1224" type="curve"/>
      <point x="823" y="1224" type="line"/>
      <point x="825" y="1250"/>
      <point x="840" y="1263"/>
      <point x="868" y="1263" type="curve" smooth="yes"/>
      <point x="894" y="1263"/>
      <point x="909" y="1249"/>
    </contour>
    <contour>
      <point x="1143.46" y="1126.5" type="line"/>
      <point x="1128.33" y="1125.15" type="line"/>
      <point x="1138.32" y="1031.49"/>
      <point x="1131.07" y="941.491"/>
      <point x="1076.79" y="833.569" type="curve" smooth="yes"/>
      <point x="1050.05" y="780.383"/>
      <point x="982.757" y="765.601"/>
      <point x="881.759" y="757.592" type="curve" smooth="yes"/>
      <point x="808.794" y="751.807"/>
      <point x="800.012" y="836.642"/>
      <point x="794.895" y="888.017" type="curve" smooth="yes"/>
      <point x="786.665" y="970.645"/>
      <point x="796.722" y="1065.51"/>
      <point x="796.632" y="1109.01" type="curve"/>
      <point x="826.632" y="1109.08" type="line"/>
      <point x="826.785" y="1034.95"/>
      <point x="809.635" y="880.191"/>
      <point x="840.669" y="812.405" type="curve" smooth="yes"/>
      <point x="848.835" y="794.57"/>
      <point x="859.868" y="785.951"/>
      <point x="879.387" y="787.498" type="curve" smooth="yes"/>
      <point x="984.549" y="795.837"/>
      <point x="1032.03" y="811.319"/>
      <point x="1049.99" y="847.047" type="curve" smooth="yes"/>
      <point x="1101.22" y="948.91"/>
      <point x="1108.05" y="1033.05"/>
      <point x="1098.45" y="1122.5" type="curve"/>
      <point x="1077.85" y="1120.68" type="line"/>
      <point x="1105.75" y="1180.5" type="line"/>
    </contour>
    <contour>
      <point x="1256" y="1153" type="curve" smooth="yes"/>
      <point x="1272.55" y="1016.75"/>
      <point x="1257.77" y="895.71"/>
      <point x="1192.88" y="773.069" type="curve" smooth="yes"/>
      <point x="1132.1" y="658.206"/>
      <point x="1015.34" y="637.781"/>
      <point x="892.042" y="628" type="curve" smooth="yes"/>
      <point x="784.759" y="619.489"/>
      <point x="729.438" y="682.479"/>
      <point x="699.286" y="764.684" type="curve"/>
      <point x="683.086" y="704.832"/>
      <point x="661.72" y="643.049"/>
      <point x="634.479" y="583.294" type="curve" smooth="yes"/>
      <point x="528.984" y="351.888"/>
      <point x="1.96124" y="311.78"/>
      <point x="53.543" y="554.756" type="curve" smooth="yes"/>
      <point x="160.395" y="1058.08" type="line" smooth="yes"/>
      <point x="170.117" y="1103.88"/>
      <point x="238.596" y="1089.36"/>
      <point x="228.869" y="1043.54" type="curve" smooth="yes"/>
      <point x="121.705" y="538.842" type="line" smooth="yes"/>
      <point x="93.842" y="407.618"/>
      <point x="494.992" y="446.075"/>
      <point x="570.786" y="612.332" type="curve" smooth="yes"/>
      <point x="608.994" y="696.145"/>
      <point x="657.859" y="904.558"/>
      <point x="666.632" y="1108.74" type="curve" smooth="yes"/>
      <point x="668.637" y="1155.39"/>
      <point x="736.534" y="1155.58"/>
      <point x="736.632" y="1108.89" type="curve" smooth="yes"/>
      <point x="736.866" y="996.918"/>
      <point x="692.557" y="682.395"/>
      <point x="886.504" y="697.781" type="curve" smooth="yes"/>
      <point x="980.008" y="705.198"/>
      <point x="1086.16" y="718.653"/>
      <point x="1130.4" y="806.611" type="curve" smooth="yes"/>
      <point x="1193.51" y="932.108"/>
      <point x="1199.5" y="1037.62"/>
      <point x="1186.51" y="1144.56" type="curve" smooth="yes"/>
      <point x="1180.88" y="1190.9"/>
      <point x="1250.37" y="1199.34"/>
    </contour>
    <contour>
      <point x="367" y="1023" type="line"/>
      <point x="346" y="1023" type="line"/>
      <point x="346" y="1124" type="line"/>
      <point x="339" y="1118"/>
      <point x="325" y="1111"/>
      <point x="317" y="1109" type="curve"/>
      <point x="317" y="1128" type="line"/>
      <point x="326" y="1132"/>
      <point x="342" y="1145"/>
      <point x="346" y="1149" type="curve"/>
      <point x="367" y="1149" type="line"/>
    </contour>
    <contour>
      <point x="625" y="1087" type="line"/>
      <point x="605.454" y="1087" type="line"/>
      <point x="594.251" y="895.902"/>
      <point x="548.8" y="708.758"/>
      <point x="516.191" y="637.221" type="curve" smooth="yes"/>
      <point x="477.464" y="552.264"/>
      <point x="312.535" y="515.823"/>
      <point x="222.374" y="519.128" type="curve" smooth="yes"/>
      <point x="198.264" y="520.012"/>
      <point x="185.887" y="549.065"/>
      <point x="190.323" y="570.096" type="curve" smooth="yes"/>
      <point x="287.557" y="1031.06" type="line"/>
      <point x="316.911" y="1024.87" type="line"/>
      <point x="219.677" y="563.904" type="line" smooth="yes"/>
      <point x="218.886" y="560.152"/>
      <point x="220.568" y="551.913"/>
      <point x="223.58" y="549.165" type="curve"/>
      <point x="301.392" y="546.31"/>
      <point x="456.541" y="578.688"/>
      <point x="488.894" y="649.665" type="curve" smooth="yes"/>
      <point x="519.388" y="716.565"/>
      <point x="564.174" y="898.904"/>
      <point x="575.406" y="1087" type="curve"/>
      <point x="559" y="1087" type="line"/>
      <point x="592" y="1144" type="line"/>
    </contour>
  </outline>
</glyph>
<glyph name="uni1221" format="2">
  <advance width="1746"/>
  <unicode hex="1221"/>
  <outline>
    <component base="bar"/>
    <contour>
      <point x="1446" y="1111" type="curve" smooth="yes"/>
      <point x="1446" y="1092"/>
      <point x="1432" y="1073"/>
      <point x="1400" y="1073" type="curve" smooth="yes"/>
      <point x="1367" y="1073"/>
      <point x="1359" y="1093"/>
      <point x="1359" y="1109" type="curve"/>
      <point x="1381" y="1109" type="line"/>
      <point x="1381" y="1097"/>
      <point x="1389" y="1089"/>
      <point x="1401" y="1089" type="curve" smooth="yes"/>
      <point x="1413" y="1089"/>
      <point x="1424" y="1097"/>
      <point x="1424" y="1111" type="curve" smooth="yes"/>
      <point x="1424" y="1116"/>
      <point x="1420" y="1133"/>
      <point x="1402" y="1133" type="curve" smooth="yes"/>
      <point x="1391" y="1133" type="line"/>
      <point x="1391" y="1147" type="line"/>
      <point x="1419" y="1147"/>
      <point x="1421" y="1159"/>
      <point x="1421" y="1169" type="curve" smooth="yes"/>
      <point x="1421" y="1178"/>
      <point x="1417" y="1188"/>
      <point x="1404" y="1188" type="curve" smooth="yes"/>
      <point x="1390" y="1188"/>
      <point x="1384" y="1182"/>
      <point x="1383" y="1170" type="curve"/>
      <point x="1361" y="1170" type="line"/>
      <point x="1362" y="1192"/>
      <point x="1380" y="1203"/>
      <point x="1403" y="1203" type="curve" smooth="yes"/>
      <point x="1425" y="1203"/>
      <point x="1443" y="1191"/>
      <point x="1443" y="1169" type="curve" smooth="yes"/>
      <point x="1443" y="1150"/>
      <point x="1431" y="1145"/>
      <point x="1420" y="1141" type="curve"/>
      <point x="1431" y="1138"/>
      <point x="1446" y="1129"/>
    </contour>
    <contour>
      <point x="1655" y="1019" type="line"/>
      <point x="1598" y="986" type="line"/>
      <point x="1598" y="1004.24" type="line"/>
      <point x="1349" y="1004.25" type="line"/>
      <point x="1349" y="1034.25" type="line"/>
      <point x="1598" y="1034.24" type="line"/>
      <point x="1598" y="1052" type="line"/>
    </contour>
    <contour>
      <point x="909" y="1228" type="curve" smooth="yes"/>
      <point x="909" y="1199"/>
      <point x="882" y="1179"/>
      <point x="842" y="1153" type="curve"/>
      <point x="906" y="1153" type="line"/>
      <point x="906" y="1133" type="line"/>
      <point x="821" y="1133" type="line"/>
      <point x="821" y="1151" type="line"/>
      <point x="872" y="1192"/>
      <point x="887" y="1211"/>
      <point x="887" y="1228" type="curve" smooth="yes"/>
      <point x="887" y="1236"/>
      <point x="883" y="1248"/>
      <point x="868" y="1248" type="curve" smooth="yes"/>
      <point x="852" y="1248"/>
      <point x="846" y="1235"/>
      <point x="845" y="1224" type="curve"/>
      <point x="823" y="1224" type="line"/>
      <point x="825" y="1250"/>
      <point x="840" y="1263"/>
      <point x="868" y="1263" type="curve" smooth="yes"/>
      <point x="894" y="1263"/>
      <point x="909" y="1249"/>
    </contour>
    <contour>
      <point x="1143.46" y="1126.5" type="line"/>
      <point x="1128.33" y="1125.15" type="line"/>
      <point x="1138.32" y="1031.49"/>
      <point x="1131.07" y="941.491"/>
      <point x="1076.79" y="833.569" type="curve" smooth="yes"/>
      <point x="1050.05" y="780.383"/>
      <point x="982.749" y="765.6"/>
      <point x="881.759" y="757.592" type="curve" smooth="yes"/>
      <point x="808.794" y="751.807"/>
      <point x="800.012" y="836.644"/>
      <point x="794.895" y="888.017" type="curve" smooth="yes"/>
      <point x="786.665" y="970.646"/>
      <point x="796.722" y="1065.51"/>
      <point x="796.632" y="1109.01" type="curve"/>
      <point x="826.632" y="1109.08" type="line"/>
      <point x="826.785" y="1034.95"/>
      <point x="809.635" y="880.19"/>
      <point x="840.669" y="812.405" type="curve" smooth="yes"/>
      <point x="848.835" y="794.57"/>
      <point x="859.868" y="785.951"/>
      <point x="879.387" y="787.498" type="curve" smooth="yes"/>
      <point x="984.552" y="795.837"/>
      <point x="1032.03" y="811.318"/>
      <point x="1049.99" y="847.047" type="curve" smooth="yes"/>
      <point x="1101.22" y="948.908"/>
      <point x="1108.05" y="1033.05"/>
      <point x="1098.45" y="1122.5" type="curve"/>
      <point x="1077.85" y="1120.68" type="line"/>
      <point x="1105.75" y="1180.5" type="line"/>
    </contour>
    <contour>
      <point x="1646" y="889.813" type="line" smooth="yes"/>
      <point x="1646" y="869.813"/>
      <point x="1630" y="854.861"/>
      <point x="1611" y="854.813" type="curve" smooth="yes"/>
      <point x="1228.18" y="853.846" type="line"/>
      <point x="1219.56" y="828.209"/>
      <point x="1208.01" y="801.663"/>
      <point x="1192.88" y="773.069" type="curve" smooth="yes"/>
      <point x="1132.1" y="658.209"/>
      <point x="1015.34" y="637.782"/>
      <point x="892.042" y="628" type="curve" smooth="yes"/>
      <point x="784.758" y="619.488"/>
      <point x="729.438" y="682.479"/>
      <point x="699.285" y="764.684" type="curve"/>
      <point x="683.086" y="704.832"/>
      <point x="661.723" y="643.055"/>
      <point x="634.479" y="583.294" type="curve" smooth="yes"/>
      <point x="528.971" y="351.864"/>
      <point x="1.96124" y="311.78"/>
      <point x="53.543" y="554.756" type="curve" smooth="yes"/>
      <point x="160.395" y="1058.08" type="line" smooth="yes"/>
      <point x="170.109" y="1103.84"/>
      <point x="238.589" y="1089.32"/>
      <point x="228.869" y="1043.54" type="curve" smooth="yes"/>
      <point x="121.705" y="538.842" type="line" smooth="yes"/>
      <point x="93.842" y="407.618"/>
      <point x="494.994" y="446.081"/>
      <point x="570.786" y="612.332" type="curve" smooth="yes"/>
      <point x="608.992" y="696.139"/>
      <point x="661.675" y="926.143"/>
      <point x="666.633" y="1108.74" type="curve" smooth="yes"/>
      <point x="667.9" y="1155.41"/>
      <point x="736.533" y="1155.58"/>
      <point x="736.632" y="1108.89" type="curve" smooth="yes"/>
      <point x="736.868" y="996.918"/>
      <point x="692.555" y="682.393"/>
      <point x="886.504" y="697.781" type="curve" smooth="yes"/>
      <point x="979.977" y="705.197"/>
      <point x="1086.17" y="718.666"/>
      <point x="1130.4" y="806.611" type="curve" smooth="yes"/>
      <point x="1193.51" y="932.105"/>
      <point x="1199.5" y="1037.63"/>
      <point x="1186.51" y="1144.56" type="curve" smooth="yes"/>
      <point x="1180.88" y="1190.89"/>
      <point x="1250.37" y="1199.35"/>
      <point x="1256" y="1153" type="curve" smooth="yes"/>
      <point x="1265.05" y="1078.49"/>
      <point x="1253.78" y="983.279"/>
      <point x="1245.23" y="924.821" type="curve"/>
      <point x="1611" y="924.813" type="line" smooth="yes"/>
      <point x="1630" y="924.813"/>
      <point x="1646" y="909.813"/>
      <point x="1646" y="890.813" type="curve" smooth="yes"/>
    </contour>
    <contour>
      <point x="367" y="1023" type="line"/>
      <point x="346" y="1023" type="line"/>
      <point x="346" y="1124" type="line"/>
      <point x="339" y="1118"/>
      <point x="325" y="1111"/>
      <point x="317" y="1109" type="curve"/>
      <point x="317" y="1128" type="line"/>
      <point x="326" y="1132"/>
      <point x="342" y="1145"/>
      <point x="346" y="1149" type="curve"/>
      <point x="367" y="1149" type="line"/>
    </contour>
    <contour>
      <point x="625" y="1087" type="line"/>
      <point x="605.454" y="1087" type="line"/>
      <point x="594.251" y="895.902"/>
      <point x="548.801" y="708.76"/>
      <point x="516.191" y="637.222" type="curve" smooth="yes"/>
      <point x="477.464" y="552.263"/>
      <point x="312.543" y="515.824"/>
      <point x="222.374" y="519.129" type="curve" smooth="yes"/>
      <point x="198.261" y="520.012"/>
      <point x="185.887" y="549.065"/>
      <point x="190.323" y="570.096" type="curve" smooth="yes"/>
      <point x="287.556" y="1031.06" type="line"/>
      <point x="316.91" y="1024.87" type="line"/>
      <point x="219.677" y="563.904" type="line" smooth="yes"/>
      <point x="218.885" y="560.152"/>
      <point x="220.567" y="551.913"/>
      <point x="223.58" y="549.165" type="curve"/>
      <point x="301.392" y="546.31"/>
      <point x="456.539" y="578.684"/>
      <point x="488.894" y="649.665" type="curve" smooth="yes"/>
      <point x="519.39" y="716.568"/>
      <point x="564.174" y="898.904"/>
      <point x="575.406" y="1087" type="curve"/>
      <point x="559" y="1087" type="line"/>
      <point x="592" y="1144" type="line"/>
    </contour>
  </outline>
</glyph>
<glyph name="uni1224" format="2">
  <advance width="1267"/>
  <unicode hex="1224"/>
  <outline>
    <component base="bar"/>
    <contour>
      <point x="1350" y="1216" type="curve" smooth="yes"/>
      <point x="1350" y="1197"/>
      <point x="1336" y="1178"/>
      <point x="1304" y="1178" type="curve" smooth="yes"/>
      <point x="1271" y="1178"/>
      <point x="1263" y="1198"/>
      <point x="1263" y="1214" type="curve"/>
      <point x="1285" y="1214" type="line"/>
      <point x="1285" y="1202"/>
      <point x="1293" y="1194"/>
      <point x="1305" y="1194" type="curve" smooth="yes"/>
      <point x="1317" y="1194"/>
      <point x="1328" y="1202"/>
      <point x="1328" y="1216" type="curve" smooth="yes"/>
      <point x="1328" y="1221"/>
      <point x="1324" y="1238"/>
      <point x="1306" y="1238" type="curve" smooth="yes"/>
      <point x="1295" y="1238" type="line"/>
      <point x="1295" y="1252" type="line"/>
      <point x="1323" y="1252"/>
      <point x="1325" y="1264"/>
      <point x="1325" y="1274" type="curve" smooth="yes"/>
      <point x="1325" y="1283"/>
      <point x="1321" y="1293"/>
      <point x="1308" y="1293" type="curve" smooth="yes"/>
      <point x="1294" y="1293"/>
      <point x="1288" y="1287"/>
      <point x="1287" y="1275" type="curve"/>
      <point x="1265" y="1275" type="line"/>
      <point x="1266" y="1297"/>
      <point x="1284" y="1308"/>
      <point x="1307" y="1308" type="curve" smooth="yes"/>
      <point x="1329" y="1308"/>
      <point x="1347" y="1296"/>
      <point x="1347" y="1274" type="curve" smooth="yes"/>
      <point x="1347" y="1255"/>
      <point x="1335" y="1250"/>
      <point x="1324" y="1246" type="curve"/>
      <point x="1335" y="1243"/>
      <point x="1350" y="1234"/>
    </contour>
    <contour>
      <point x="795" y="1290" type="curve" smooth="yes"/>
      <point x="795" y="1261"/>
      <point x="768" y="1241"/>
      <point x="728" y="1215" type="curve"/>
      <point x="792" y="1215" type="line"/>
      <point x="792" y="1195" type="line"/>
      <point x="707" y="1195" type="line"/>
      <point x="707" y="1213" type="line"/>
      <point x="758" y="1254"/>
      <point x="773" y="1273"/>
      <point x="773" y="1290" type="curve" smooth="yes"/>
      <point x="773" y="1298"/>
      <point x="769" y="1310"/>
      <point x="754" y="1310" type="curve" smooth="yes"/>
      <point x="738" y="1310"/>
      <point x="732" y="1297"/>
      <point x="731" y="1286" type="curve"/>
      <point x="709" y="1286" type="line"/>
      <point x="711" y="1312"/>
      <point x="726" y="1325"/>
      <point x="754" y="1325" type="curve" smooth="yes"/>
      <point x="780" y="1325"/>
      <point x="795" y="1311"/>
    </contour>
    <contour>
      <point x="1243.49" y="1241.26" type="line"/>
      <point x="1063.26" y="517.276" type="line"/>
      <point x="1078.01" y="513.308" type="line"/>
      <point x="1031.49" y="466.68" type="line"/>
      <point x="1014.41" y="530.431" type="line"/>
      <point x="1034.29" y="525.075" type="line"/>
      <point x="1214.38" y="1248.51" type="line"/>
    </contour>
    <contour>
      <point x="931" y="899" type="line"/>
      <point x="874" y="866" type="line"/>
      <point x="874.004" y="880.001" type="line"/>
      <point x="839.086" y="874.865"/>
      <point x="792.984" y="869.817"/>
      <point x="738.371" y="867.737" type="curve" smooth="yes"/>
      <point x="611.684" y="862.912"/>
      <point x="650.93" y="1147.56"/>
      <point x="650.786" y="1219.01" type="curve"/>
      <point x="680.786" y="1219.07" type="line"/>
      <point x="680.892" y="1166.41"/>
      <point x="649.096" y="894.359"/>
      <point x="737.228" y="897.715" type="curve" smooth="yes"/>
      <point x="792.934" y="899.836"/>
      <point x="839.443" y="905.097"/>
      <point x="874.005" y="910.328" type="curve"/>
      <point x="874" y="932" type="line"/>
    </contour>
    <contour>
      <point x="305" y="1197" type="line"/>
      <point x="284" y="1197" type="line"/>
      <point x="284" y="1298" type="line"/>
      <point x="277" y="1292"/>
      <point x="263" y="1285"/>
      <point x="255" y="1283" type="curve"/>
      <point x="255" y="1302" type="line"/>
      <point x="264" y="1306"/>
      <point x="280" y="1319"/>
      <point x="284" y="1323" type="curve"/>
      <point x="305" y="1323" type="line"/>
    </contour>
    <contour>
      <point x="479" y="1203" type="line"/>
      <point x="460.456" y="1203" type="line"/>
      <point x="455.33" y="1018.08"/>
      <point x="403.752" y="820.518"/>
      <point x="370.344" y="747.22" type="curve" smooth="yes"/>
      <point x="340.345" y="681.402"/>
      <point x="241.643" y="660.739"/>
      <point x="194.755" y="706.653" type="curve" smooth="yes"/>
      <point x="186.553" y="714.684"/>
      <point x="179.179" y="727.259"/>
      <point x="181.786" y="739.266" type="curve" smooth="yes"/>
      <point x="272.787" y="1158.27" type="line"/>
      <point x="302.104" y="1151.9" type="line"/>
      <point x="211.452" y="734.495" type="line"/>
      <point x="223.839" y="705.582"/>
      <point x="314.942" y="698.002"/>
      <point x="343.046" y="759.663" type="curve" smooth="yes"/>
      <point x="374.555" y="828.794"/>
      <point x="425.288" y="1021.9"/>
      <point x="430.441" y="1203" type="curve"/>
      <point x="413" y="1203" type="line"/>
      <point x="446" y="1260" type="line"/>
    </contour>
    <contour>
      <point x="1167.15" y="171" type="curve" smooth="yes"/>
      <point x="1167.15" y="76"/>
      <point x="1090.15" y="-1"/>
      <point x="995.153" y="-1" type="curve" smooth="yes"/>
      <point x="936.153" y="-1"/>
      <point x="883.153" y="29"/>
      <point x="852.153" y="75" type="curve"/>
      <point x="809.76" y="118.241"/>
      <point x="819.334" y="213.935"/>
      <point x="822.96" y="242.09" type="curve" smooth="yes"/>
      <point x="823.281" y="244.585"/>
      <point x="823.472" y="247.239"/>
      <point x="824.153" y="250" type="curve" smooth="yes"/>
      <point x="951.153" y="765" type="line"/>
      <point x="951.153" y="765"/>
      <point x="828.307" y="741.605"/>
      <point x="740.657" y="737.78" type="curve"/>
      <point x="633.193" y="733.093"/>
      <point x="579.306" y="784.795"/>
      <point x="549.153" y="867" type="curve"/>
      <point x="532.954" y="807.148"/>
      <point x="515.874" y="753.052"/>
      <point x="488.632" y="693.294" type="curve" smooth="yes"/>
      <point x="383.169" y="461.948"/>
      <point x="2.19091" y="524.762"/>
      <point x="54.9917" y="767.914" type="curve" smooth="yes"/>
      <point x="145.679" y="1185.54" type="line" smooth="yes"/>
      <point x="155.649" y="1231.45"/>
      <point x="224.117" y="1216.88"/>
      <point x="214.153" y="1171" type="curve" smooth="yes"/>
      <point x="123.153" y="752" type="line" smooth="yes"/>
      <point x="94.6829" y="620.91"/>
      <point x="349.14" y="556.052"/>
      <point x="424.939" y="722.332" type="curve" smooth="yes"/>
      <point x="463.15" y="806.157"/>
      <point x="518.318" y="1021.59"/>
      <point x="520.786" y="1218.74" type="curve" smooth="yes"/>
      <point x="521.37" y="1265.45"/>
      <point x="590.689" y="1265.6"/>
      <point x="590.785" y="1218.89" type="curve" smooth="yes"/>
      <point x="591.023" y="1103.53"/>
      <point x="545.929" y="800.354"/>
      <point x="740.657" y="807.78" type="curve"/>
      <point x="877.602" y="813.004"/>
      <point x="963.153" y="836"/>
      <point x="963.153" y="836" type="curve"/>
      <point x="1080.34" y="1275.81" type="line" smooth="yes"/>
      <point x="1092.35" y="1320.91"/>
      <point x="1160.43" y="1308.31"/>
      <point x="1149.15" y="1263" type="curve" smooth="yes"/>
      <point x="915.153" y="323" type="line"/>
      <point x="939.153" y="336"/>
      <point x="966.153" y="343"/>
      <point x="995.153" y="343" type="curve" smooth="yes"/>
      <point x="1090.15" y="343"/>
      <point x="1167.15" y="266"/>
    </contour>
    <contour>
      <point x="1257.15" y="171" type="curve" smooth="yes"/>
      <point x="1257.15" y="26.296"/>
      <point x="1139.88" y="-91"/>
      <point x="995.153" y="-91" type="curve" smooth="yes"/>
      <point x="907.865" y="-91"/>
      <point x="829.388" y="-47.927"/>
      <point x="781.713" y="18.6615" type="curve"/>
      <point x="683.043" y="131.245"/>
      <point x="740.279" y="284.525"/>
      <point x="771.459" y="407.681" type="curve"/>
      <point x="800.541" y="400.319" type="line"/>
      <point x="772.497" y="289.547"/>
      <point x="714.86" y="139.475"/>
      <point x="805.206" y="37.3163" type="curve"/>
      <point x="847.398" y="-21.994"/>
      <point x="917.625" y="-61"/>
      <point x="995.153" y="-61" type="curve" smooth="yes"/>
      <point x="1123.31" y="-61"/>
      <point x="1227.15" y="42.8285"/>
      <point x="1227.15" y="171" type="curve" smooth="yes"/>
      <point x="1227.15" y="260.086"/>
      <point x="1176.97" y="337.42"/>
      <point x="1103.28" y="376.308" type="curve"/>
      <point x="1095" y="362" type="line"/>
      <point x="1062" y="419" type="line"/>
      <point x="1128" y="419" type="line"/>
      <point x="1118.32" y="402.293" type="line"/>
      <point x="1200.9" y="358.229"/>
      <point x="1257.15" y="271.2"/>
    </contour>
    <contour>
      <point x="727" y="352" type="line"/>
      <point x="714" y="352" type="line"/>
      <point x="714" y="325" type="line"/>
      <point x="693" y="325" type="line"/>
      <point x="693" y="352" type="line"/>
      <point x="633" y="352" type="line"/>
      <point x="633" y="377" type="line"/>
      <point x="685" y="452" type="line"/>
      <point x="714" y="452" type="line"/>
      <point x="714" y="371" type="line"/>
      <point x="727" y="371" type="line"/>
    </contour>
    <contour>
      <point x="1097.15" y="171" type="curve" smooth="yes"/>
      <point x="1097.15" y="228"/>
      <point x="1051.15" y="273"/>
      <point x="995.153" y="273" type="curve" smooth="yes"/>
      <point x="939.153" y="273"/>
      <point x="893.153" y="228"/>
      <point x="893.153" y="171" type="curve" smooth="yes"/>
      <point x="893.153" y="115"/>
      <point x="939.153" y="70"/>
      <point x="995.153" y="70" type="curve" smooth="yes"/>
      <point x="1051.15" y="70"/>
      <point x="1097.15" y="115"/>
    </contour>
    <contour>
      <point x="693" y="371" type="line"/>
      <point x="693" y="436" type="line"/>
      <point x="648" y="371" type="line"/>
    </contour>
  </outline>
</glyph>
<glyph name="uni1225" format="2">
  <advance width="1407"/>
  <unicode hex="1225"/>
  <outline>
    <component base="bar"/>
    <contour>
      <point x="997" y="1274" type="curve" smooth="yes"/>
      <point x="997" y="1245"/>
      <point x="970" y="1225"/>
      <point x="930" y="1199" type="curve"/>
      <point x="994" y="1199" type="line"/>
      <point x="994" y="1179" type="line"/>
      <point x="909" y="1179" type="line"/>
      <point x="909" y="1197" type="line"/>
      <point x="960" y="1238"/>
      <point x="975" y="1257"/>
      <point x="975" y="1274" type="curve" smooth="yes"/>
      <point x="975" y="1282"/>
      <point x="971" y="1294"/>
      <point x="956" y="1294" type="curve" smooth="yes"/>
      <point x="940" y="1294"/>
      <point x="934" y="1281"/>
      <point x="933" y="1270" type="curve"/>
      <point x="911" y="1270" type="line"/>
      <point x="913" y="1296"/>
      <point x="928" y="1309"/>
      <point x="956" y="1309" type="curve" smooth="yes"/>
      <point x="982" y="1309"/>
      <point x="997" y="1295"/>
    </contour>
    <contour>
      <point x="1189" y="1232" type="line"/>
      <point x="1173.87" y="1230.65" type="line"/>
      <point x="1183.86" y="1136.99"/>
      <point x="1176.6" y="1046.99"/>
      <point x="1122.34" y="939.068" type="curve" smooth="yes"/>
      <point x="1095.59" y="885.884"/>
      <point x="1028.19" y="871.091"/>
      <point x="927.3" y="863.092" type="curve" smooth="yes"/>
      <point x="854.336" y="857.308"/>
      <point x="845.552" y="942.141"/>
      <point x="840.436" y="993.517" type="curve" smooth="yes"/>
      <point x="832.204" y="1076.18"/>
      <point x="842.263" y="1171.01"/>
      <point x="842.173" y="1214.51" type="curve"/>
      <point x="872.173" y="1214.58" type="line"/>
      <point x="872.326" y="1140.45"/>
      <point x="855.178" y="985.689"/>
      <point x="886.21" y="917.905" type="curve" smooth="yes"/>
      <point x="894.375" y="900.07"/>
      <point x="905.398" y="891.45"/>
      <point x="924.928" y="892.998" type="curve" smooth="yes"/>
      <point x="1030.12" y="901.336"/>
      <point x="1077.57" y="916.818"/>
      <point x="1095.53" y="952.547" type="curve" smooth="yes"/>
      <point x="1146.76" y="1054.41"/>
      <point x="1153.59" y="1138.55"/>
      <point x="1143.99" y="1228" type="curve"/>
      <point x="1123.39" y="1226.18" type="line"/>
      <point x="1151.29" y="1286" type="line"/>
    </contour>
    <contour>
      <point x="549" y="1140" type="line"/>
      <point x="528" y="1140" type="line"/>
      <point x="528" y="1241" type="line"/>
      <point x="521" y="1235"/>
      <point x="507" y="1228"/>
      <point x="499" y="1226" type="curve"/>
      <point x="499" y="1245" type="line"/>
      <point x="508" y="1249"/>
      <point x="524" y="1262"/>
      <point x="528" y="1266" type="curve"/>
      <point x="549" y="1266" type="line"/>
    </contour>
    <contour>
      <point x="672" y="1202" type="line"/>
      <point x="656.654" y="1202" type="line"/>
      <point x="651.371" y="1017.36"/>
      <point x="599.908" y="820.376"/>
      <point x="566.564" y="747.22" type="curve" smooth="yes"/>
      <point x="536.571" y="681.416"/>
      <point x="437.836" y="660.749"/>
      <point x="390.968" y="706.656" type="curve" smooth="yes"/>
      <point x="382.767" y="714.688"/>
      <point x="375.399" y="727.261"/>
      <point x="378.006" y="739.266" type="curve" smooth="yes"/>
      <point x="469.006" y="1158.27" type="line"/>
      <point x="498.323" y="1151.9" type="line"/>
      <point x="407.667" y="734.495" type="line"/>
      <point x="420.036" y="705.598"/>
      <point x="511.145" y="697.967"/>
      <point x="539.266" y="759.663" type="curve" smooth="yes"/>
      <point x="570.72" y="828.671"/>
      <point x="621.329" y="1021.19"/>
      <point x="626.639" y="1202" type="curve"/>
      <point x="606" y="1202" type="line"/>
      <point x="639" y="1259" type="line"/>
    </contour>
    <contour>
      <point x="1300.83" y="1262.78" type="curve" smooth="yes"/>
      <point x="1317.38" y="1126.53"/>
      <point x="1302.61" y="1005.49"/>
      <point x="1237.71" y="882.849" type="curve" smooth="yes"/>
      <point x="1176.93" y="767.987"/>
      <point x="1060.32" y="745.52"/>
      <point x="936.877" y="737.781" type="curve" smooth="yes"/>
      <point x="829.525" y="731.05"/>
      <point x="775.525" y="784.795"/>
      <point x="745.373" y="867" type="curve"/>
      <point x="729.174" y="807.148"/>
      <point x="712.09" y="753.046"/>
      <point x="684.852" y="693.294" type="curve" smooth="yes"/>
      <point x="602.969" y="513.674"/>
      <point x="354.992" y="511.361"/>
      <point x="272.917" y="633.127" type="curve"/>
      <point x="118.373" y="31" type="line" smooth="yes"/>
      <point x="113.73" y="12.9102"/>
      <point x="95.3517" y="0.855499"/>
      <point x="76.3732" y="5" type="curve" smooth="yes"/>
      <point x="63.343" y="7.8455"/>
      <point x="47.3457" y="19.01"/>
      <point x="50.3732" y="31" type="curve" smooth="yes"/>
      <point x="341.899" y="1185.54" type="line" smooth="yes"/>
      <point x="350.121" y="1218.1"/>
      <point x="386.046" y="1220.26"/>
      <point x="402.94" y="1201.93" type="curve"/>
      <point x="407.266" y="1198.09"/>
      <point x="410.222" y="1193.47"/>
      <point x="410.264" y="1188.59" type="curve"/>
      <point x="411.626" y="1183.42"/>
      <point x="411.791" y="1177.53"/>
      <point x="410.373" y="1171" type="curve" smooth="yes"/>
      <point x="319.373" y="752" type="line" smooth="yes"/>
      <point x="290.903" y="620.91"/>
      <point x="545.355" y="556.041"/>
      <point x="621.159" y="722.332" type="curve" smooth="yes"/>
      <point x="659.372" y="806.162"/>
      <point x="714.54" y="1021.64"/>
      <point x="717.006" y="1218.74" type="curve" smooth="yes"/>
      <point x="717.59" y="1265.44"/>
      <point x="786.909" y="1265.59"/>
      <point x="787.005" y="1218.89" type="curve" smooth="yes"/>
      <point x="787.242" y="1103.53"/>
      <point x="736.751" y="797.541"/>
      <point x="931.339" y="807.561" type="curve" smooth="yes"/>
      <point x="1025.01" y="812.385"/>
      <point x="1131" y="828.434"/>
      <point x="1175.23" y="916.391" type="curve" smooth="yes"/>
      <point x="1238.35" y="1041.89"/>
      <point x="1244.33" y="1147.41"/>
      <point x="1231.35" y="1254.34" type="curve" smooth="yes"/>
      <point x="1225.72" y="1300.67"/>
      <point x="1295.21" y="1309.12"/>
    </contour>
    <contour>
      <point x="196" y="1145" type="curve" smooth="yes"/>
      <point x="196" y="1126"/>
      <point x="182" y="1107"/>
      <point x="150" y="1107" type="curve" smooth="yes"/>
      <point x="117" y="1107"/>
      <point x="109" y="1127"/>
      <point x="109" y="1143" type="curve"/>
      <point x="131" y="1143" type="line"/>
      <point x="131" y="1131"/>
      <point x="139" y="1123"/>
      <point x="151" y="1123" type="curve" smooth="yes"/>
      <point x="163" y="1123"/>
      <point x="174" y="1131"/>
      <point x="174" y="1145" type="curve" smooth="yes"/>
      <point x="174" y="1150"/>
      <point x="170" y="1167"/>
      <point x="152" y="1167" type="curve" smooth="yes"/>
      <point x="141" y="1167" type="line"/>
      <point x="141" y="1181" type="line"/>
      <point x="169" y="1181"/>
      <point x="171" y="1193"/>
      <point x="171" y="1203" type="curve" smooth="yes"/>
      <point x="171" y="1212"/>
      <point x="167" y="1222"/>
      <point x="154" y="1222" type="curve" smooth="yes"/>
      <point x="140" y="1222"/>
      <point x="134" y="1216"/>
      <point x="133" y="1204" type="curve"/>
      <point x="111" y="1204" type="line"/>
      <point x="112" y="1226"/>
      <point x="130" y="1237"/>
      <point x="153" y="1237" type="curve" smooth="yes"/>
      <point x="175" y="1237"/>
      <point x="193" y="1225"/>
      <point x="193" y="1203" type="curve" smooth="yes"/>
      <point x="193" y="1184"/>
      <point x="181" y="1179"/>
      <point x="170" y="1175" type="curve"/>
      <point x="181" y="1172"/>
      <point x="196" y="1163"/>
    </contour>
    <contour>
      <point x="283.725" y="1200.23" type="line"/>
      <point x="-1.80225" y="69.4517" type="line"/>
      <point x="15.1615" y="64.8992" type="line"/>
      <point x="-31.467" y="18.3822" type="line"/>
      <point x="-48.5895" y="81.9814" type="line"/>
      <point x="-30.7855" y="77.2177" type="line"/>
      <point x="254.638" y="1207.57" type="line"/>
    </contour>
  </outline>
</glyph>
<glyph name="uni1228" format="2">
  <advance width="965"/>
  <unicode hex="1228"/>
  <outline>
    <component base="bar"/>
    <contour>
      <point x="512" y="1149" type="line"/>
      <point x="491" y="1149" type="line"/>
      <point x="491" y="1250" type="line"/>
      <point x="484" y="1244"/>
      <point x="470" y="1237"/>
      <point x="462" y="1235" type="curve"/>
      <point x="462" y="1254" type="line"/>
      <point x="471" y="1258"/>
      <point x="487" y="1271"/>
      <point x="491" y="1275" type="curve"/>
      <point x="512" y="1275" type="line"/>
    </contour>
    <contour>
      <point x="830.343" y="0" type="curve" smooth="yes"/>
      <point x="377.343" y="0" type="line" smooth="yes"/>
      <point x="175.548" y="0"/>
      <point x="41.8328" y="106.157"/>
      <point x="50.388" y="304.256" type="curve" smooth="yes"/>
      <point x="63.272" y="602.587"/>
      <point x="652.343" y="924.561"/>
      <point x="652.343" y="1183" type="curve" smooth="yes"/>
      <point x="652.343" y="1229.67"/>
      <point x="722.343" y="1229.67"/>
      <point x="722.343" y="1183" type="curve" smooth="yes"/>
      <point x="722.343" y="885.056"/>
      <point x="133.079" y="563.235"/>
      <point x="120.345" y="301.711" type="curve" smooth="yes"/>
      <point x="112.935" y="149.534"/>
      <point x="207.932" y="70"/>
      <point x="377.343" y="70" type="curve" smooth="yes"/>
      <point x="830.343" y="70" type="line" smooth="yes"/>
      <point x="877.008" y="70"/>
      <point x="877.008" y="0"/>
    </contour>
    <contour>
      <point x="877" y="-79" type="line"/>
      <point x="820" y="-112" type="line"/>
      <point x="820.003" y="-89.9972" type="line"/>
      <point x="377.343" y="-90" type="line" smooth="yes"/>
      <point x="139.069" y="-90.0012"/>
      <point x="-50.8813" y="45.2006"/>
      <point x="-39.5283" y="308.139" type="curve" smooth="yes"/>
      <point x="-24.8633" y="647.779"/>
      <point x="562.343" y="981.567"/>
      <point x="562.343" y="1183" type="curve"/>
      <point x="592.343" y="1183" type="line"/>
      <point x="592.343" y="961.441"/>
      <point x="4.59139" y="634.514"/>
      <point x="-9.55636" y="306.844" type="curve" smooth="yes"/>
      <point x="-19.9761" y="65.5167"/>
      <point x="151.037" y="-60"/>
      <point x="377.343" y="-60" type="curve" smooth="yes"/>
      <point x="820.003" y="-59.9982" type="line"/>
      <point x="820" y="-46" type="line"/>
    </contour>
  </outline>
</glyph>
<glyph name="uni1229" format="2">
  <advance width="890"/>
  <unicode hex="1229"/>
  <outline>
    <component base="bar"/>
    <contour>
      <point x="746" y="1298" type="line"/>
      <point x="725" y="1298" type="line"/>
      <point x="725" y="1399" type="line"/>
      <point x="718" y="1393"/>
      <point x="704" y="1386"/>
      <point x="696" y="1384" type="curve"/>
      <point x="696" y="1403" type="line"/>
      <point x="705" y="1407"/>
      <point x="721" y="1420"/>
      <point x="725" y="1424" type="curve"/>
      <point x="746" y="1424" type="line"/>
    </contour>
    <contour>
      <point x="810.773" y="589" type="line"/>
      <point x="753.773" y="556" type="line"/>
      <point x="753.779" y="570.999" type="line"/>
      <point x="301.773" y="571" type="line" smooth="yes"/>
      <point x="186.316" y="571"/>
      <point x="173.809" y="598.321"/>
      <point x="180.694" y="739.793" type="curve" smooth="yes"/>
      <point x="191.29" y="957.5"/>
      <point x="631.108" y="998.571"/>
      <point x="631.108" y="1333" type="curve"/>
      <point x="661.108" y="1333" type="line"/>
      <point x="661.108" y="1110.35"/>
      <point x="489.376" y="1015.74"/>
      <point x="337.69" y="904.99" type="curve" smooth="yes"/>
      <point x="283.194" y="865.202"/>
      <point x="214.241" y="811.958"/>
      <point x="210.659" y="738.335" type="curve" smooth="yes"/>
      <point x="204.134" y="604.265"/>
      <point x="211.84" y="601"/>
      <point x="301.773" y="601" type="curve" smooth="yes"/>
      <point x="753.779" y="600.998" type="line"/>
      <point x="753.773" y="622" type="line"/>
    </contour>
    <contour>
      <point x="754.773" y="441" type="curve" smooth="yes"/>
      <point x="448.765" y="441" type="line"/>
      <point x="441.108" y="35" type="line" smooth="yes"/>
      <point x="440.75" y="16.0023"/>
      <point x="425.108" y="0"/>
      <point x="406.108" y="0" type="curve" smooth="yes"/>
      <point x="387.108" y="0"/>
      <point x="370.75" y="16.0023"/>
      <point x="371.108" y="35" type="curve" smooth="yes"/>
      <point x="378.773" y="441" type="line"/>
      <point x="301.773" y="441" type="line" smooth="yes"/>
      <point x="99.9713" y="441"/>
      <point x="42.2541" y="547.158"/>
      <point x="50.8086" y="745.256" type="curve" smooth="yes"/>
      <point x="63.6913" y="1043.59"/>
      <point x="501.108" y="1074.56"/>
      <point x="501.108" y="1333" type="curve" smooth="yes"/>
      <point x="501.108" y="1379.66"/>
      <point x="571.108" y="1379.66"/>
      <point x="571.108" y="1333" type="curve" smooth="yes"/>
      <point x="571.108" y="1035.06"/>
      <point x="133.498" y="1004.23"/>
      <point x="120.765" y="742.711" type="curve" smooth="yes"/>
      <point x="113.356" y="590.535"/>
      <point x="132.362" y="511"/>
      <point x="301.773" y="511" type="curve" smooth="yes"/>
      <point x="754.773" y="511" type="line" smooth="yes"/>
      <point x="801.438" y="511"/>
      <point x="801.438" y="441"/>
    </contour>
    <contour>
      <point x="225" y="322" type="curve" smooth="yes"/>
      <point x="225" y="293"/>
      <point x="198" y="273"/>
      <point x="158" y="247" type="curve"/>
      <point x="222" y="247" type="line"/>
      <point x="222" y="227" type="line"/>
      <point x="137" y="227" type="line"/>
      <point x="137" y="245" type="line"/>
      <point x="188" y="286"/>
      <point x="203" y="305"/>
      <point x="203" y="322" type="curve" smooth="yes"/>
      <point x="203" y="330"/>
      <point x="199" y="342"/>
      <point x="184" y="342" type="curve" smooth="yes"/>
      <point x="168" y="342"/>
      <point x="162" y="329"/>
      <point x="161" y="318" type="curve"/>
      <point x="139" y="318" type="line"/>
      <point x="141" y="344"/>
      <point x="156" y="357"/>
      <point x="184" y="357" type="curve" smooth="yes"/>
      <point x="210" y="357"/>
      <point x="225" y="343"/>
    </contour>
    <contour>
      <point x="304.754" y="53.0078" type="line"/>
      <point x="271.754" y="-3.99225" type="line"/>
      <point x="238.754" y="53.0078" type="line"/>
      <point x="256.992" y="53.0108" type="line"/>
      <point x="257" y="356" type="line"/>
      <point x="287" y="356" type="line"/>
      <point x="286.991" y="53.0107" type="line"/>
    </contour>
  </outline>
</glyph>
<glyph name="uni122A" format="2">
  <advance width="822"/>
  <unicode hex="122A"/>
  <outline>
    <component base="bar"/>
    <contour>
      <point x="519" y="1121" type="line"/>
      <point x="498" y="1121" type="line"/>
      <point x="498" y="1222" type="line"/>
      <point x="491" y="1216"/>
      <point x="477" y="1209"/>
      <point x="469" y="1207" type="curve"/>
      <point x="469" y="1226" type="line"/>
      <point x="478" y="1230"/>
      <point x="494" y="1243"/>
      <point x="498" y="1247" type="curve"/>
      <point x="519" y="1247" type="line"/>
    </contour>
    <contour>
      <point x="722.326" y="1183" type="curve" smooth="yes"/>
      <point x="722.326" y="885.052"/>
      <point x="133.06" y="563.247"/>
      <point x="120.328" y="301.711" type="curve"/>
      <point x="112.92" y="149.543"/>
      <point x="214.05" y="24.1837"/>
      <point x="377.326" y="70" type="curve" smooth="yes"/>
      <point x="527" y="112"/>
      <point x="645.002" y="238.005"/>
      <point x="645.287" y="337.983" type="curve" smooth="yes"/>
      <point x="645.347" y="359.079"/>
      <point x="638.873" y="378.397"/>
      <point x="633.927" y="389.586" type="curve" smooth="yes"/>
      <point x="626.25" y="406.951"/>
      <point x="635.722" y="428.026"/>
      <point x="653.351" y="435.11" type="curve"/>
      <point x="670.979" y="442.194"/>
      <point x="691.601" y="433.236"/>
      <point x="698.875" y="415.686" type="curve"/>
      <point x="709.507" y="392.602"/>
      <point x="715.188" y="366.196"/>
      <point x="715.287" y="337.983" type="curve" smooth="yes"/>
      <point x="715.703" y="219.925"/>
      <point x="618.395" y="70.2212"/>
      <point x="377.327" y="0" type="curve"/>
      <point x="181.924" y="-50.2238"/>
      <point x="41.8183" y="106.158"/>
      <point x="50.3721" y="304.256" type="curve"/>
      <point x="63.2538" y="602.584"/>
      <point x="652.327" y="924.558"/>
      <point x="652.327" y="1183" type="curve"/>
      <point x="652.327" y="1229.67"/>
      <point x="722.327" y="1229.67"/>
    </contour>
    <contour>
      <point x="809" y="437" type="line"/>
      <point x="791.282" y="428.786" type="line"/>
      <point x="800.266" y="402.948"/>
      <point x="805.166" y="372.611"/>
      <point x="805.286" y="338.299" type="curve" smooth="yes"/>
      <point x="805.798" y="191.771"/>
      <point x="704.727" y="36.4905"/>
      <point x="503.949" y="-50.751" type="curve"/>
      <point x="491.993" y="-23.236" type="line"/>
      <point x="684.421" y="60.377"/>
      <point x="775.747" y="206.29"/>
      <point x="775.286" y="338.194" type="curve" smooth="yes"/>
      <point x="775.18" y="368.498"/>
      <point x="771.022" y="394.498"/>
      <point x="763.904" y="416.105" type="curve"/>
      <point x="749.19" y="409.279" type="line"/>
      <point x="754.949" y="475.094" type="line"/>
    </contour>
    <contour>
      <point x="592" y="1183" type="line"/>
      <point x="592" y="961"/>
      <point x="4.31799" y="634.013"/>
      <point x="-10" y="307" type="curve" smooth="yes"/>
      <point x="-19.6748" y="86.0343"/>
      <point x="141" y="-115"/>
      <point x="381" y="-61" type="curve"/>
      <point x="378" y="-45" type="line"/>
      <point x="440" y="-67" type="line"/>
      <point x="390" y="-109" type="line"/>
      <point x="386" y="-90" type="line"/>
      <point x="121" y="-150"/>
      <point x="-50.1543" y="75.2245"/>
      <point x="-40" y="308" type="curve" smooth="yes"/>
      <point x="-25.1622" y="648.139"/>
      <point x="562" y="982"/>
      <point x="562" y="1183" type="curve"/>
    </contour>
    <contour>
      <point x="577" y="-122" type="curve" smooth="yes"/>
      <point x="577" y="-151"/>
      <point x="550" y="-171"/>
      <point x="510" y="-197" type="curve"/>
      <point x="574" y="-197" type="line"/>
      <point x="574" y="-217" type="line"/>
      <point x="489" y="-217" type="line"/>
      <point x="489" y="-199" type="line"/>
      <point x="540" y="-158"/>
      <point x="555" y="-139"/>
      <point x="555" y="-122" type="curve" smooth="yes"/>
      <point x="555" y="-114"/>
      <point x="551" y="-102"/>
      <point x="536" y="-102" type="curve" smooth="yes"/>
      <point x="520" y="-102"/>
      <point x="514" y="-115"/>
      <point x="513" y="-126" type="curve"/>
      <point x="491" y="-126" type="line"/>
      <point x="493" y="-100"/>
      <point x="508" y="-87"/>
      <point x="536" y="-87" type="curve" smooth="yes"/>
      <point x="562" y="-87"/>
      <point x="577" y="-101"/>
    </contour>
  </outline>
</glyph>
<glyph name="uni122D" format="2">
  <advance width="965"/>
  <unicode hex="122D"/>
  <outline>
    <component base="bar"/>
    <contour>
      <point x="661" y="1289" type="line"/>
      <point x="604" y="1256" type="line"/>
      <point x="603.997" y="1274.24" type="line"/>
      <point x="214.532" y="1274.25" type="line"/>
      <point x="214.533" y="1304.25" type="line"/>
      <point x="603.997" y="1304.24" type="line"/>
      <point x="604" y="1322" type="line"/>
    </contour>
    <contour>
      <point x="299" y="1436" type="curve" smooth="yes"/>
      <point x="299" y="1407"/>
      <point x="272" y="1387"/>
      <point x="232" y="1361" type="curve"/>
      <point x="296" y="1361" type="line"/>
      <point x="296" y="1341" type="line"/>
      <point x="211" y="1341" type="line"/>
      <point x="211" y="1359" type="line"/>
      <point x="262" y="1400"/>
      <point x="277" y="1419"/>
      <point x="277" y="1436" type="curve" smooth="yes"/>
      <point x="277" y="1444"/>
      <point x="273" y="1456"/>
      <point x="258" y="1456" type="curve" smooth="yes"/>
      <point x="242" y="1456"/>
      <point x="236" y="1443"/>
      <point x="235" y="1432" type="curve"/>
      <point x="213" y="1432" type="line"/>
      <point x="215" y="1458"/>
      <point x="230" y="1471"/>
      <point x="258" y="1471" type="curve" smooth="yes"/>
      <point x="284" y="1471"/>
      <point x="299" y="1457"/>
    </contour>
    <contour>
      <point x="101" y="1237" type="line"/>
      <point x="80" y="1237" type="line"/>
      <point x="80" y="1338" type="line"/>
      <point x="73" y="1332"/>
      <point x="59" y="1325"/>
      <point x="51" y="1323" type="curve"/>
      <point x="51" y="1342" type="line"/>
      <point x="60" y="1346"/>
      <point x="76" y="1359"/>
      <point x="80" y="1363" type="curve"/>
      <point x="101" y="1363" type="line"/>
    </contour>
    <contour>
      <point x="830.343" y="0" type="curve" smooth="yes"/>
      <point x="377.343" y="0" type="line" smooth="yes"/>
      <point x="175.548" y="0"/>
      <point x="41.8333" y="106.158"/>
      <point x="50.388" y="304.256" type="curve" smooth="yes"/>
      <point x="63.2713" y="602.586"/>
      <point x="162" y="1183"/>
      <point x="162" y="1183" type="curve"/>
      <point x="162" y="1211.91"/>
      <point x="188.859" y="1222.91"/>
      <point x="209.303" y="1216" type="curve"/>
      <point x="607" y="1216" type="line" smooth="yes"/>
      <point x="626" y="1216"/>
      <point x="642" y="1200"/>
      <point x="642" y="1181" type="curve" smooth="yes"/>
      <point x="642" y="1162"/>
      <point x="626" y="1146"/>
      <point x="607" y="1146" type="curve" smooth="yes"/>
      <point x="229.078" y="1146" type="line"/>
      <point x="229.078" y="1146"/>
      <point x="132.556" y="552.522"/>
      <point x="120.344" y="301.711" type="curve" smooth="yes"/>
      <point x="112.931" y="149.454"/>
      <point x="207.932" y="70"/>
      <point x="377.342" y="70" type="curve" smooth="yes"/>
      <point x="830.342" y="70" type="line" smooth="yes"/>
      <point x="877.007" y="70"/>
      <point x="877.007" y="0"/>
    </contour>
    <contour>
      <point x="871" y="-75" type="line"/>
      <point x="814" y="-108" type="line"/>
      <point x="814.006" y="-89.9972" type="line"/>
      <point x="377.343" y="-90" type="line" smooth="yes"/>
      <point x="139.059" y="-90.0015"/>
      <point x="-50.8849" y="45.1195"/>
      <point x="-39.5284" y="308.139" type="curve" smooth="yes"/>
      <point x="-27.1787" y="594.163"/>
      <point x="62.8216" y="1135.9"/>
      <point x="72.4361" y="1193.1" type="curve"/>
      <point x="102.021" y="1188.12" type="line"/>
      <point x="92.4461" y="1131.17"/>
      <point x="2.73607" y="591.555"/>
      <point x="-9.55643" y="306.845" type="curve" smooth="yes"/>
      <point x="-19.9689" y="65.6803"/>
      <point x="151.027" y="-60"/>
      <point x="377.343" y="-60" type="curve" smooth="yes"/>
      <point x="814.006" y="-59.9982" type="line"/>
      <point x="814" y="-42" type="line"/>
    </contour>
  </outline>
</glyph>
<glyph name="uni122F" format="2">
  <advance width="1554"/>
  <unicode hex="122F"/>
  <outline>
    <contour>
      <point x="1685" y="1561" type="line"/>
      <point x="1470" y="1494" type="line"/>
      <point x="1614" y="1321" type="line"/>
      <point x="1415" y="1426" type="line"/>
      <point x="1394" y="1202" type="line"/>
      <point x="1327" y="1417" type="line"/>
      <point x="1154" y="1273" type="line"/>
      <point x="1259" y="1472" type="line"/>
      <point x="1035" y="1493" type="line"/>
      <point x="1250" y="1560" type="line"/>
      <point x="1106" y="1733" type="line"/>
      <point x="1305" y="1628" type="line"/>
      <point x="1326" y="1852" type="line"/>
      <point x="1393" y="1637" type="line"/>
      <point x="1566" y="1781" type="line"/>
      <point x="1461" y="1582" type="line"/>
    </contour>
    <contour>
      <point x="1473" y="1323" type="curve"/>
      <point x="1417" y="1262"/>
      <point x="1393" y="1207"/>
      <point x="1393" y="1070" type="curve" smooth="yes"/>
      <point x="1393" y="1038" type="line"/>
      <point x="981" y="1038" type="line"/>
      <point x="943" y="738"/>
      <point x="381" y="562.011"/>
      <point x="381" y="227" type="curve" smooth="yes"/>
      <point x="381" y="142.995"/>
      <point x="416" y="108"/>
      <point x="511" y="108" type="curve" smooth="yes"/>
      <point x="535" y="108"/>
      <point x="564" y="111"/>
      <point x="596" y="115" type="curve"/>
      <point x="648" y="485"/>
      <point x="931" y="490"/>
      <point x="1403" y="530" type="curve"/>
      <point x="1403" y="478" type="line" smooth="yes"/>
      <point x="1403" y="381"/>
      <point x="1406" y="308"/>
      <point x="1446" y="244" type="curve"/>
      <point x="1439" y="241"/>
      <point x="1432.03" y="238.88"/>
      <point x="1423" y="237" type="curve" smooth="yes"/>
      <point x="1408.02" y="233.88"/>
      <point x="1385" y="231"/>
      <point x="1358" y="231" type="curve" smooth="yes"/>
      <point x="1250" y="231"/>
      <point x="1135" y="276"/>
      <point x="1130" y="422" type="curve"/>
      <point x="1118" y="423"/>
      <point x="1107" y="424"/>
      <point x="1096" y="424" type="curve" smooth="yes"/>
      <point x="953" y="424"/>
      <point x="890" y="326"/>
      <point x="889" y="94" type="curve"/>
      <point x="469" y="38"/>
      <point x="381.003" y="0"/>
      <point x="287" y="0" type="curve" smooth="yes"/>
      <point x="149.995" y="0"/>
      <point x="94" y="79.9938"/>
      <point x="94" y="225" type="curve" smooth="yes"/>
      <point x="94" y="635.001"/>
      <point x="694" y="766"/>
      <point x="694" y="1006" type="curve" smooth="yes"/>
      <point x="694" y="1038" type="line"/>
      <point x="311" y="1038" type="line"/>
      <point x="312" y="1053"/>
      <point x="313" y="1065"/>
      <point x="313" y="1080" type="curve" smooth="yes"/>
      <point x="313" y="1179"/>
      <point x="280" y="1272"/>
      <point x="213" y="1323" type="curve"/>
      <point x="237" y="1326"/>
      <point x="260" y="1325"/>
      <point x="281" y="1325" type="curve" smooth="yes"/>
      <point x="525.992" y="1325"/>
      <point x="584" y="1222"/>
      <point x="600" y="1106" type="curve"/>
      <point x="1094" y="1106" type="line"/>
      <point x="1113" y="1238"/>
      <point x="1197.01" y="1326"/>
      <point x="1406" y="1326" type="curve" smooth="yes"/>
      <point x="1427" y="1326"/>
      <point x="1449" y="1325"/>
    </contour>
  </outline>
</glyph>
